<?xml version="1.0" standalone="no"?><!DOCTYPE svg PUBLIC "-//W3C//DTD SVG 1.1//EN" "http://www.w3.org/Graphics/SVG/1.1/DTD/svg11.dtd"><svg height="1080" node-id="1" sillyvg="true" template-height="1080" template-width="1080" version="1.1" viewBox="0 0 1080 1080" width="1080" xmlns="http://www.w3.org/2000/svg" xmlns:xlink="http://www.w3.org/1999/xlink"><defs node-id="99"></defs><g node-id="314"><path d="M 292.10 269.70 L 280.20 275.10 L 268.50 281.10 L 260.90 285.40 L 253.60 290.10 L 246.60 295.10 L 241.50 299.20 L 232.10 308.00 L 227.80 312.90 L 223.80 318.10 L 220.20 323.50 L 217.00 329.30 L 214.20 335.30 L 212.00 341.50 L 210.30 347.80 L 209.10 354.20 L 208.50 360.60 L 208.50 367.00 L 209.00 371.70 L 209.90 376.50 L 211.10 381.10 L 212.80 385.70 L 215.30 390.90 L 218.20 395.90 L 221.60 400.80 L 227.20 407.70 L 251.80 434.10 L 257.20 440.80 L 260.40 445.40 L 263.20 450.20 L 265.50 455.10 L 267.90 462.90 L 268.50 467.00 L 268.80 471.30 L 268.50 475.90 L 267.80 480.40 L 266.60 484.70 L 264.90 488.80 L 262.80 492.80 L 257.60 500.20 L 254.50 503.70 L 249.90 508.00 L 245.00 512.00 L 239.70 515.70 L 234.10 519.00 L 228.50 521.80 L 222.70 524.30 L 213.90 527.50 L 186.90 535.50 L 178.00 538.40 L 169.30 541.60 L 158.10 546.80 L 152.70 549.90 L 146.90 553.90 L 141.50 558.30 L 136.50 563.00 L 131.80 568.10 L 127.50 573.50 L 123.60 579.20 L 119.90 585.10 L 116.60 591.40 L 112.60 600.00 L 109.10 608.80 L 106.20 617.90 L 103.60 627.10 L 101.50 636.40 L 99.80 645.70 L 97.80 661.30 L 97.20 669.30 L 96.90 677.30 L 97.50 693.10 L 98.40 701.00 L 99.70 708.70 L 101.40 716.20 L 103.70 723.60 L 106.50 730.70 L 109.80 737.60 L 112.60 742.50 L 115.80 747.20 L 119.40 751.70 L 123.30 756.10 L 128.60 761.10 L 134.20 765.40 L 140.00 769.30 L 146.10 772.60 L 152.40 775.40 L 158.90 777.80 L 165.70 779.90 L 172.70 781.50 L 182.10 783.00 L 191.80 784.00 L 201.70 784.50 L 211.60 784.40 L 231.70 783.20 L 246.70 781.60 L 261.20 779.50 L 309.10 771.80 L 357.00 763.60 L 452.70 746.40 L 879.20 668.60 L 894.20 665.00 L 901.30 662.50 L 905.90 660.40 L 910.20 657.90 L 914.40 655.10 L 921.00 649.10 L 926.30 642.10 L 929.10 637.00 L 931.40 631.60 L 933.20 625.90 L 934.40 620.10 L 935.10 614.10 L 935.30 608.00 L 935.00 601.90 L 934.30 595.80 L 933.00 589.80 L 931.30 583.90 L 929.20 578.20 L 926.60 572.70 L 922.80 566.20 L 918.70 560.00 L 914.00 554.10 L 909.10 548.60 L 903.80 543.20 L 898.10 538.20 L 889.30 531.00 L 880.00 524.30 L 870.40 518.00 L 841.30 500.20 L 822.20 487.90 L 813.00 481.20 L 804.20 474.10 L 798.70 469.10 L 793.40 463.80 L 788.40 458.10 L 783.80 452.10 L 779.60 445.60 L 776.00 438.80 L 773.60 433.50 L 769.90 422.70 L 767.60 411.60 L 767.10 406.00 L 767.10 400.50 L 767.50 395.00 L 768.30 389.60 L 769.70 384.30 L 771.60 379.10 L 774.10 374.00 L 776.80 369.70 L 783.00 361.60 L 788.30 356.10 L 811.00 335.00 L 816.20 329.40 L 819.30 325.40 L 824.70 316.80 L 826.80 312.20 L 828.30 307.50 L 829.50 302.80 L 830.10 298.00 L 830.20 288.20 L 828.70 278.50 L 826.90 272.10 L 824.60 265.80 L 821.60 259.60 L 818.20 253.70 L 814.20 248.10 L 809.90 242.70 L 805.10 237.70 L 800.00 233.20 L 794.60 229.10 L 789.70 226.90 L 785.40 225.70 L 771.90 223.20 L 762.50 222.10 L 732.90 220.00 L 711.20 219.20 L 688.50 218.80 L 663.10 218.80 L 636.90 219.20 L 608.80 220.10 L 580.30 221.40 L 550.90 223.20 L 521.40 225.50 L 491.80 228.20 L 452.80 232.70 L 415.00 238.10 L 379.70 244.40 L 362.40 248.10 L 346.40 251.90 L 331.60 255.90 L 310.10 262.70 L 292.10 269.70 Z" fill="#f7f7f7" fill-rule="nonzero" group-id="1" node-id="103" stroke="none" target-height="565.7" target-width="838.39996" target-x="96.9" target-y="218.8"></path></g><path d="M 1021.30 987.10 L 58.70 987.10 L 56.10 986.90 L 53.80 986.20 L 51.60 985.20 L 49.60 983.70 L 47.90 982.00 L 46.40 980.00 L 45.40 977.80 L 44.70 975.50 L 44.50 972.90 L 44.50 878.60 L 44.70 876.00 L 45.40 873.70 L 46.40 871.50 L 47.90 869.50 L 49.60 867.80 L 51.60 866.30 L 53.80 865.30 L 56.10 864.60 L 58.70 864.40 L 1021.40 864.40 L 1024.00 864.60 L 1026.30 865.30 L 1028.50 866.30 L 1032.20 869.50 L 1033.70 871.50 L 1034.70 873.70 L 1035.40 876.00 L 1035.60 878.60 L 1035.60 972.90 L 1035.30 975.50 L 1034.70 977.80 L 1033.60 980.00 L 1030.50 983.70 L 1028.50 985.20 L 1026.20 986.20 L 1023.90 986.90 L 1021.30 987.10 Z" fill="#f2f2f2" fill-rule="nonzero" node-id="106" stroke="none" target-height="122.69995" target-width="991.1" target-x="44.5" target-y="864.4"></path><g node-id="315"><g node-id="324"><g node-id="328"><path d="M 953.40 805.70 L 951.40 797.40 L 948.90 789.20 L 946.00 781.20 L 942.60 773.30 L 938.90 765.60 L 934.70 758.10 L 930.20 750.80 L 925.30 743.80 L 920.00 737.00 L 914.40 730.60 L 908.50 724.40 L 902.30 718.50 L 895.70 713.00 L 888.90 707.90 L 881.90 703.10 L 874.50 698.70 L 882.70 713.70 L 891.30 728.50 L 900.20 743.00 L 909.50 757.30 L 919.20 771.40 L 929.30 785.20 L 939.70 798.70 L 950.50 812.00 L 953.40 805.70 Z" fill="#08a342" fill-rule="nonzero" group-id="2,11,15" node-id="114" stroke="none" target-height="113.29999" target-width="78.900024" target-x="874.5" target-y="698.7"></path></g><g node-id="329"><path d="M 964.10 822.50 L 957.20 812.40 L 950.70 802.00 L 944.80 791.30 L 939.20 780.40 L 934.20 769.30 L 929.60 757.90 L 925.50 746.40 L 921.90 734.70 L 918.70 722.90 L 916.10 711.00 L 914.00 698.90 L 912.40 686.80 L 911.20 674.60 L 910.70 662.40 L 910.60 650.20 L 911.10 637.90 L 920.00 660.60 L 928.40 683.40 L 936.20 706.50 L 943.50 729.80 L 950.10 753.20 L 956.20 776.80 L 961.60 800.60 L 966.50 824.50 L 964.10 822.50 Z" fill="#008829" fill-rule="nonzero" group-id="2,11,16" node-id="119" stroke="none" target-height="186.59998" target-width="55.900024" target-x="910.6" target-y="637.9"></path></g><g node-id="330"><path d="M 953.20 824.30 L 952.30 791.60 L 952.20 775.20 L 952.70 758.90 L 954.50 737.20 L 956.00 726.40 L 958.00 715.60 L 960.40 705.00 L 963.50 694.50 L 969.20 679.10 L 976.20 664.40 L 980.30 657.40 L 984.80 650.60 L 989.60 644.10 L 994.90 637.90 L 995.30 651.30 L 995.20 664.70 L 994.60 678.00 L 993.40 691.40 L 991.80 704.70 L 989.70 717.90 L 987.10 731.00 L 984.00 744.00 L 980.40 756.90 L 976.30 769.70 L 971.80 782.30 L 966.70 794.70 L 961.30 806.90 L 955.30 818.90 L 948.90 830.70 L 953.20 824.30 Z" fill="#0cad3d" fill-rule="nonzero" group-id="2,11,17" node-id="124" stroke="none" target-height="192.79999" target-width="46.399963" target-x="948.9" target-y="637.9"></path></g><g node-id="331"><path d="M 954.80 827.20 L 951.10 815.50 L 947.90 803.70 L 945.40 791.70 L 943.40 779.60 L 942.00 767.40 L 941.20 755.20 L 940.90 743.00 L 941.30 730.70 L 942.20 718.50 L 943.60 706.30 L 945.70 694.30 L 948.30 682.30 L 951.50 670.40 L 955.20 658.80 L 959.50 647.40 L 964.40 636.10 L 966.70 645.50 L 968.60 654.80 L 970.10 664.20 L 971.10 673.70 L 971.90 686.40 L 972.00 699.10 L 971.60 711.90 L 970.60 724.60 L 969.20 737.40 L 967.40 750.30 L 964.00 769.40 L 960.10 788.60 L 951.20 826.40 L 954.80 827.20 Z" fill="#11921a" fill-rule="nonzero" group-id="2,11,18" node-id="129" stroke="none" target-height="191.10004" target-width="31.099976" target-x="940.9" target-y="636.1"></path></g><path d="M 957.60 804.30 L 958.70 796.20 L 960.30 788.20 L 962.20 780.30 L 964.60 772.50 L 967.40 764.80 L 970.60 757.30 L 974.20 750.00 L 978.10 742.80 L 982.40 735.80 L 992.00 722.60 L 997.30 716.40 L 1002.90 710.40 L 1008.70 704.80 L 1014.90 699.40 L 1021.30 694.40 L 1028.00 689.60 L 1034.80 685.30 L 1041.90 681.40 L 1049.30 677.80 L 1044.00 691.20 L 1038.10 704.40 L 1031.60 717.20 L 1024.60 729.80 L 1017.00 742.10 L 1008.90 754.10 L 1000.40 765.60 L 991.30 776.90 L 981.70 787.70 L 971.70 798.10 L 961.30 808.00 L 950.40 817.50 L 957.60 804.30 Z" fill="#02a134" fill-rule="nonzero" group-id="2,11,19" node-id="134" stroke="none" target-height="139.70001" target-width="98.900024" target-x="950.4" target-y="677.8"></path></g><path d="M 1008.70 794.80 L 1002.60 900.00 L 1002.30 902.50 L 1001.30 904.70 L 999.90 906.50 L 998.10 907.90 L 995.90 908.90 L 993.40 909.20 L 920.40 909.20 L 917.90 908.90 L 915.70 907.90 L 913.90 906.50 L 912.50 904.70 L 911.50 902.50 L 911.20 900.00 L 905.00 794.80 L 905.30 792.30 L 906.30 790.10 L 907.70 788.30 L 909.50 786.90 L 911.70 785.90 L 914.20 785.60 L 999.50 785.60 L 1001.90 785.90 L 1004.10 786.80 L 1006.00 788.20 L 1007.40 790.00 L 1008.10 791.50 L 1008.70 794.80 Z" fill="#e2e2e2" fill-rule="nonzero" group-id="2" node-id="138" stroke="none" target-height="123.60004" target-width="103.70001" target-x="905" target-y="785.6"></path><g node-id="325"><path d="M 1008.70 794.80 L 1002.60 900.00 L 1002.30 902.50 L 1001.30 904.70 L 999.90 906.50 L 998.10 907.90 L 995.90 908.90 L 993.40 909.20 L 920.40 909.20 L 917.90 908.90 L 915.70 907.90 L 913.90 906.50 L 912.50 904.70 L 911.50 902.50 L 911.20 900.00 L 909.80 876.20 L 919.90 872.40 L 925.00 869.90 L 930.30 866.80 L 937.00 862.40 L 943.80 857.30 L 957.30 845.60 L 970.50 832.40 L 989.60 811.20 L 1007.40 790.00 L 1008.60 793.10 L 1008.70 794.80 Z" fill="#d6d6d6" fill-rule="nonzero" group-id="2,12" node-id="142" stroke="none" target-height="119.20001" target-width="98.900024" target-x="909.8" target-y="790"></path></g></g><g node-id="316"><g node-id="326"><g node-id="333"><path d="M 90.20 827.10 L 88.50 820.50 L 86.40 814.10 L 83.80 807.80 L 80.70 801.70 L 77.30 795.80 L 73.40 790.20 L 69.20 784.90 L 64.60 779.80 L 59.70 775.10 L 54.50 770.80 L 48.90 766.90 L 43.10 763.30 L 49.70 775.20 L 56.60 786.80 L 64.00 798.30 L 71.70 809.40 L 79.90 820.30 L 88.40 830.90 L 90.20 827.10 Z" fill="#15ac4f" fill-rule="nonzero" group-id="3,13,20" node-id="152" stroke="none" target-height="67.60004" target-width="47.1" target-x="43.1" target-y="763.3"></path></g><g node-id="334"><path d="M 96.60 837.20 L 91.20 829.10 L 86.20 820.70 L 81.80 812.10 L 77.80 803.20 L 74.30 794.10 L 71.40 784.80 L 69.00 775.40 L 67.10 765.80 L 65.70 756.10 L 64.90 746.50 L 64.70 736.80 L 65.00 727.00 L 75.30 754.20 L 84.30 781.80 L 88.30 795.80 L 95.10 824.00 L 98.00 838.30 L 96.60 837.20 Z" fill="#cce9ff" fill-rule="nonzero" group-id="3,13,21" node-id="157" stroke="none" target-height="111.29999" target-width="33.300003" target-x="64.7" target-y="727"></path></g><g node-id="335"><path d="M 90.10 838.20 L 89.50 808.90 L 89.80 799.20 L 90.50 789.50 L 91.80 779.80 L 94.50 767.00 L 98.40 754.60 L 101.00 748.60 L 103.90 742.80 L 107.10 737.30 L 110.90 732.00 L 115.00 727.00 L 115.30 737.00 L 115.00 747.00 L 114.30 756.90 L 113.20 766.80 L 111.50 776.70 L 109.40 786.40 L 106.90 796.10 L 103.90 805.60 L 100.40 815.00 L 96.60 824.20 L 92.20 833.20 L 87.50 842.00 L 90.10 838.20 Z" fill="#0d9b36" fill-rule="nonzero" group-id="3,13,22" node-id="162" stroke="none" target-height="115" target-width="27.800003" target-x="87.5" target-y="727"></path></g><g node-id="336"><path d="M 91.00 840.00 L 88.10 830.70 L 85.80 821.20 L 84.20 811.60 L 83.10 801.90 L 82.70 792.20 L 82.90 782.50 L 83.70 772.70 L 85.10 763.10 L 87.10 753.60 L 89.70 744.20 L 92.90 735.00 L 96.70 726.00 L 98.40 733.00 L 100.60 747.00 L 101.00 754.10 L 101.20 763.60 L 100.80 773.10 L 100.00 782.60 L 97.20 801.70 L 92.20 825.40 L 88.80 839.50 L 91.00 840.00 Z" fill="#008d4f" fill-rule="nonzero" group-id="3,13,23" node-id="167" stroke="none" target-height="114" target-width="18.5" target-x="82.7" target-y="726"></path></g><path d="M 92.70 826.30 L 93.60 820.30 L 94.80 814.30 L 96.50 808.50 L 98.60 802.80 L 103.70 791.80 L 106.80 786.50 L 114.00 776.60 L 122.30 767.80 L 131.70 760.00 L 136.70 756.60 L 141.90 753.50 L 147.40 750.80 L 144.20 758.80 L 136.80 774.30 L 128.10 789.20 L 118.20 803.20 L 112.80 809.90 L 101.10 822.50 L 88.40 834.10 L 92.70 826.30 Z" fill="#0da101" fill-rule="nonzero" group-id="3,13,24" node-id="172" stroke="none" target-height="83.29999" target-width="58.999992" target-x="88.4" target-y="750.8"></path></g><path d="M 123.20 820.70 L 119.50 883.50 L 119.30 885.00 L 117.90 887.40 L 115.50 888.80 L 114.00 889.00 L 70.50 889.00 L 69.00 888.80 L 66.60 887.40 L 65.20 885.00 L 65.00 883.50 L 61.40 820.70 L 61.60 819.20 L 63.00 816.80 L 65.40 815.40 L 66.90 815.20 L 117.80 815.20 L 119.20 815.40 L 121.60 816.80 L 122.50 817.90 L 123.20 820.70 Z" fill="#c2c2c2" fill-rule="nonzero" group-id="3" node-id="176" stroke="none" target-height="73.79999" target-width="61.799995" target-x="61.4" target-y="815.2"></path><g node-id="327"><path d="M 123.20 820.70 L 119.50 883.50 L 119.30 885.00 L 117.90 887.40 L 115.50 888.80 L 114.00 889.00 L 70.50 889.00 L 69.00 888.80 L 66.60 887.40 L 65.20 885.00 L 65.00 883.50 L 64.20 869.30 L 69.20 867.50 L 74.20 865.00 L 79.50 861.70 L 84.40 858.00 L 94.50 849.10 L 101.80 841.70 L 109.00 833.80 L 122.40 817.90 L 123.00 819.20 L 123.20 820.70 Z" fill="#b4b4b4" fill-rule="nonzero" group-id="3,14" node-id="180" stroke="none" target-height="71.099976" target-width="59" target-x="64.2" target-y="817.9"></path></g></g><g node-id="317"><path d="M 516.40 264.50 L 516.10 273.10 L 515.30 281.40 L 513.90 289.50 L 512.00 297.40 L 509.50 305.20 L 506.70 312.70 L 503.30 319.90 L 499.50 326.90 L 495.30 333.70 L 490.60 340.10 L 485.60 346.20 L 480.20 352.00 L 474.40 357.40 L 468.30 362.40 L 461.90 367.10 L 455.10 371.30 L 448.10 375.10 L 440.90 378.50 L 433.40 381.40 L 425.60 383.80 L 417.70 385.70 L 409.60 387.10 L 401.30 387.90 L 392.70 388.20 L 384.10 387.90 L 375.80 387.10 L 367.70 385.70 L 359.80 383.80 L 352.00 381.40 L 344.50 378.50 L 337.30 375.10 L 330.30 371.30 L 323.50 367.10 L 317.10 362.40 L 311.00 357.40 L 305.20 352.00 L 299.80 346.20 L 294.80 340.10 L 290.10 333.70 L 285.90 326.90 L 282.10 319.90 L 278.70 312.70 L 275.80 305.20 L 273.40 297.40 L 271.50 289.50 L 270.10 281.40 L 269.30 273.10 L 269.00 264.50 L 269.30 255.90 L 270.10 247.60 L 271.50 239.50 L 273.40 231.60 L 275.80 223.80 L 278.70 216.30 L 282.10 209.10 L 285.90 202.10 L 290.10 195.30 L 294.80 188.90 L 299.80 182.80 L 305.20 177.00 L 311.00 171.60 L 317.10 166.60 L 323.50 161.90 L 330.30 157.70 L 337.30 153.90 L 344.50 150.50 L 352.00 147.60 L 359.80 145.20 L 367.70 143.30 L 375.80 141.90 L 384.10 141.10 L 392.70 140.80 L 401.30 141.10 L 409.60 141.90 L 417.70 143.30 L 425.60 145.20 L 433.40 147.60 L 440.90 150.50 L 448.10 153.90 L 455.10 157.70 L 461.90 161.90 L 468.30 166.60 L 474.40 171.60 L 480.20 177.00 L 485.60 182.80 L 490.60 188.90 L 495.30 195.30 L 499.50 202.10 L 503.30 209.10 L 506.70 216.30 L 509.60 223.80 L 512.00 231.60 L 513.90 239.50 L 515.30 247.60 L 516.10 255.90 L 516.40 264.50 Z" fill="none" group-id="4" node-id="186" stroke="#d3d3d3" stroke-dasharray="12.1401 12.1401" stroke-linecap="butt" stroke-width="1" target-height="247.40001" target-width="247.40002" target-x="269" target-y="140.8"></path></g><path d="M 716.30 606.00 L 369.00 606.00 L 364.80 605.20 L 361.30 603.20 L 358.60 600.00 L 357.20 596.20 L 357.00 594.00 L 357.00 482.90 L 357.80 478.70 L 359.80 475.20 L 363.00 472.50 L 364.80 471.70 L 369.00 470.90 L 716.30 470.90 L 720.50 471.70 L 724.00 473.70 L 726.70 476.90 L 728.10 480.70 L 728.30 482.90 L 728.30 594.00 L 727.50 598.20 L 726.70 600.00 L 724.00 603.20 L 720.50 605.20 L 716.30 606.00 Z" fill="none" node-id="189" stroke="#ffe9cc" stroke-linecap="butt" stroke-width="2" target-height="135.1" target-width="371.3" target-x="357" target-y="470.9"></path><path d="M 684.20 337.10 L 347.80 337.10 L 343.70 336.40 L 340.30 334.40 L 337.80 331.40 L 336.40 327.60 L 336.20 325.50 L 336.20 217.90 L 336.90 213.80 L 338.90 210.40 L 341.90 207.90 L 345.70 206.50 L 684.10 206.30 L 688.20 207.00 L 691.60 209.00 L 694.10 212.00 L 695.50 215.80 L 695.70 217.90 L 695.70 325.50 L 695.00 329.50 L 694.20 331.30 L 691.70 334.30 L 688.30 336.40 L 684.20 337.10 Z" fill="none" node-id="191" stroke="#ffe9cc" stroke-linecap="butt" stroke-width="2" target-height="130.8" target-width="359.5" target-x="336.2" target-y="206.3"></path><path d="M 861.70 566.90 L 867.00 586.80 L 878.10 633.50 L 887.80 678.20 L 894.60 711.40 L 861.70 875.10 L 837.00 875.10 L 839.00 796.10 L 841.00 750.30 L 843.00 723.90 L 843.60 718.40 L 844.50 713.90 L 845.20 712.30 L 843.10 708.60 L 840.60 703.10 L 838.20 697.10 L 833.40 682.20 L 826.50 657.30 L 822.60 641.40 L 816.80 615.30 L 838.80 555.80 L 861.70 566.90 Z" fill="#0a3e5b" fill-rule="nonzero" node-id="193" stroke="none" target-height="319.3" target-width="77.79999" target-x="816.8" target-y="555.8"></path><path d="M 845.20 567.80 L 797.60 895.20 L 771.10 895.20 L 768.40 833.60 L 767.70 808.00 L 767.50 770.90 L 768.30 750.20 L 768.90 742.40 L 770.40 733.90 L 771.80 729.10 L 772.90 720.20 L 772.90 701.20 L 771.70 677.00 L 769.50 650.00 L 764.10 597.00 L 759.20 555.90 L 845.20 567.80 Z" fill="#0b4870" fill-rule="nonzero" node-id="195" stroke="none" target-height="339.3" target-width="86" target-x="759.2" target-y="555.9"></path><path d="M 791.20 918.60 L 835.50 936.40 L 838.10 940.90 L 840.20 947.40 L 787.80 945.70 L 766.50 945.60 L 771.20 912.20 L 780.00 914.60 L 791.20 918.60 Z" fill="#0a3e5b" fill-rule="nonzero" node-id="197" stroke="none" target-height="35.200012" target-width="73.70001" target-x="766.5" target-y="912.2"></path><path d="M 854.70 898.50 L 893.20 926.80 L 894.60 931.80 L 895.00 938.60 L 844.70 923.80 L 824.20 918.40 L 837.10 887.20 L 844.90 891.80 L 854.70 898.50 Z" fill="#0a3e5b" fill-rule="nonzero" node-id="199" stroke="none" target-height="51.399963" target-width="70.79999" target-x="824.2" target-y="887.2"></path><path d="M 794.00 888.80 L 792.20 914.40 L 800.40 925.40 L 779.40 925.40 L 772.00 915.30 L 772.00 887.00 Z" fill="#ffe3ca" fill-rule="nonzero" node-id="201" stroke="none" target-height="38.400024" target-width="28.400024" target-x="772" target-y="887"></path><path d="M 860.00 868.80 L 855.20 894.00 L 862.10 905.80 L 841.20 903.50 L 835.10 892.60 L 838.40 864.50 Z" fill="#ffe3ca" fill-rule="nonzero" node-id="203" stroke="none" target-height="41.299988" target-width="27" target-x="835.1" target-y="864.5"></path><path d="M 763.40 881.00 L 803.60 881.00 L 803.60 899.30 L 763.40 899.30 Z" fill="#145c84" fill-rule="nonzero" node-id="205" stroke="none" target-height="18.299988" target-width="40.19995" target-x="763.4" target-y="881"></path><g node-id="318"><path d="M 829.40 861.40 L 869.40 866.00 L 867.30 884.20 L 827.40 879.60 Z" fill="#145c84" fill-rule="nonzero" group-id="5" node-id="209" stroke="none" target-height="22.799988" target-width="42" target-x="827.4" target-y="861.4"></path></g><path d="M 855.70 438.60 L 858.00 447.10 L 864.60 475.20 L 866.50 480.50 L 868.00 483.80 L 869.80 486.60 L 871.70 489.00 L 874.00 491.10 L 876.80 492.70 L 880.00 494.00 L 884.30 495.00 L 888.00 495.40 L 891.10 495.30 L 894.30 494.80 L 899.30 493.10 L 904.80 489.60 L 908.70 486.10 L 909.80 483.80 L 911.90 477.30 L 918.00 453.00 L 902.00 433.00 L 855.70 438.60 Z" fill="#f9d7bb" fill-rule="nonzero" node-id="212" stroke="none" target-height="62.399994" target-width="62.299988" target-x="855.7" target-y="433"></path><path d="M 826.70 336.20 L 859.00 362.70 L 875.60 419.80 L 856.50 441.20 Z" fill="#132a2a" fill-rule="nonzero" node-id="214" stroke="none" target-height="105" target-width="48.899963" target-x="826.7" target-y="336.2"></path><path d="M 848.10 435.90 L 850.80 440.10 L 852.10 441.50 L 854.30 443.00 L 855.90 442.80 L 894.00 415.30 L 888.40 408.30 L 848.10 435.90 Z" fill="#1c88c9" fill-rule="nonzero" node-id="216" stroke="none" target-height="34.700012" target-width="45.900024" target-x="848.1" target-y="408.3"></path><path d="M 861.00 437.00 L 869.00 420.00 L 876.00 414.00 L 876.00 429.00 Z" fill="#f9d7bb" fill-rule="nonzero" node-id="218" stroke="none" target-height="23" target-width="15" target-x="861" target-y="414"></path><path d="M 191.00 861.00 L 326.00 861.00 L 326.00 892.00 L 191.00 892.00 Z" fill="#072c3d" fill-rule="nonzero" node-id="220" stroke="none" target-height="31" target-width="135" target-x="191" target-y="861"></path><path d="M 335.80 856.00 L 188.30 851.00 L 179.00 723.00 L 347.00 723.00 Z" fill="#f42a57" fill-rule="nonzero" node-id="222" stroke="none" target-height="133" target-width="168" target-x="179" target-y="723"></path><g node-id="319"><path d="M 136.50 861.40 L 150.10 862.60 L 169.20 865.20 L 192.20 868.70 L 242.30 877.10 L 309.80 889.40 L 367.60 909.80 L 368.70 910.40 L 369.90 912.00 L 370.20 913.50 L 369.80 915.00 L 369.20 915.90 L 367.30 917.00 L 363.70 917.60 L 353.60 918.20 L 341.70 917.60 L 335.50 916.70 L 329.50 915.40 L 323.90 913.80 L 318.20 916.10 L 313.90 917.40 L 308.70 918.10 L 304.60 917.30 L 302.60 916.40 L 297.60 913.20 L 294.20 911.60 L 287.60 909.50 L 280.80 908.20 L 275.90 907.70 L 264.90 907.50 L 262.30 907.60 L 224.40 915.40 L 200.80 919.40 L 188.40 920.80 L 175.80 921.80 L 167.30 922.10 L 150.60 921.60 L 142.40 920.80 L 134.40 919.50 L 126.70 917.70 L 115.60 914.00 L 105.30 908.90 L 96.40 902.80 L 90.90 897.70 L 88.70 894.80 L 87.10 892.10 L 86.20 889.70 L 85.80 887.40 L 85.80 885.00 L 86.20 882.80 L 87.00 880.60 L 88.20 878.40 L 90.30 875.80 L 93.00 873.40 L 96.30 871.00 L 103.90 867.20 L 112.80 864.20 L 122.30 862.20 L 127.20 861.60 L 136.50 861.40 Z" fill="#ffe3ca" fill-rule="nonzero" group-id="6" node-id="226" stroke="none" target-height="60.69995" target-width="284.40002" target-x="85.8" target-y="861.4"></path><path d="M 136.50 861.40 L 150.10 862.60 L 169.20 865.20 L 192.20 868.70 L 242.30 877.10 L 286.00 885.00 L 280.70 908.30 L 271.50 907.60 L 262.20 907.70 L 224.30 915.50 L 200.70 919.50 L 188.30 920.90 L 175.70 921.90 L 167.20 922.20 L 150.50 921.70 L 142.30 920.90 L 134.30 919.60 L 126.60 917.80 L 115.50 914.10 L 105.20 909.00 L 96.30 902.90 L 90.80 897.80 L 88.60 894.90 L 87.10 892.20 L 86.10 889.80 L 85.70 887.50 L 85.70 885.10 L 86.10 882.80 L 86.90 880.60 L 88.20 878.50 L 90.30 875.90 L 93.00 873.40 L 96.30 871.10 L 103.90 867.20 L 112.80 864.20 L 122.30 862.20 L 127.20 861.60 L 136.50 861.40 Z" fill="#0a3e5b" fill-rule="nonzero" group-id="6" node-id="228" stroke="none" target-height="60.799988" target-width="200.3" target-x="85.7" target-y="861.4"></path><path d="M 310.90 904.20 L 314.20 904.00 L 327.80 898.90 L 332.90 897.70 L 368.70 910.40 L 369.90 912.00 L 370.20 913.50 L 369.80 915.00 L 369.20 915.90 L 367.30 917.00 L 363.70 917.60 L 353.60 918.20 L 341.70 917.60 L 335.50 916.70 L 329.50 915.40 L 323.90 913.80 L 318.20 916.10 L 313.90 917.40 L 311.10 918.00 L 306.60 917.90 L 302.60 916.40 L 297.60 913.20 L 294.20 911.60 L 295.80 909.10 L 298.90 906.90 L 303.80 905.30 L 310.90 904.20 Z" fill="#2c2c2c" fill-rule="nonzero" group-id="6" node-id="230" stroke="none" target-height="20.5" target-width="76" target-x="294.2" target-y="897.7"></path></g><path d="M 353.20 725.65 L 351.90 741.45 L 350.60 749.55 L 348.10 761.65 L 345.10 773.45 L 341.60 784.95 L 338.00 795.55 L 334.10 805.45 L 330.40 813.75 L 326.60 821.25 L 323.50 826.35 L 316.80 835.65 L 283.10 835.65 L 289.00 824.35 L 294.80 811.25 L 300.30 795.65 L 302.60 787.45 L 304.40 779.05 L 305.90 770.25 L 306.80 758.45 L 306.40 746.45 L 305.60 740.55 L 304.40 734.65 L 198.50 734.65 L 197.20 741.25 L 196.30 747.95 L 196.10 754.75 L 196.80 768.15 L 197.70 774.75 L 199.60 784.55 L 202.10 793.75 L 207.80 810.35 L 213.60 823.65 L 219.80 835.65 L 186.10 835.65 L 180.90 826.45 L 173.10 810.95 L 168.60 800.95 L 164.30 790.15 L 160.00 778.15 L 155.10 761.35 L 153.10 752.55 L 151.50 743.65 L 150.40 734.65 L 149.80 725.65 L 149.90 719.85 L 150.40 714.45 L 151.30 709.55 L 152.60 705.05 L 154.30 700.65 L 156.40 696.55 L 158.70 692.75 L 161.40 689.35 L 165.40 684.95 L 169.80 681.15 L 174.60 677.65 L 179.70 674.55 L 185.10 671.85 L 190.80 669.45 L 202.30 665.65 L 217.00 662.35 L 225.40 661.15 L 240.70 659.65 L 262.30 659.65 L 265.80 659.95 L 283.90 662.35 L 293.60 664.35 L 303.50 666.95 L 310.10 669.05 L 316.40 671.65 L 322.50 674.55 L 326.90 677.05 L 331.10 679.85 L 338.60 686.25 L 341.90 689.85 L 344.90 693.85 L 347.40 698.15 L 349.60 702.95 L 351.20 707.85 L 352.40 713.15 L 353.10 719.05 L 353.20 725.65 Z" fill="#ff5050" fill-rule="nonzero" node-id="233" stroke="none" target-height="176" target-width="203.4" target-x="149.79999" target-y="659.65"></path><path d="M 305.50 528.50 L 305.20 532.20 L 304.50 535.70 L 303.40 539.00 L 301.80 542.10 L 299.90 545.00 L 297.60 547.60 L 295.00 549.90 L 292.10 551.80 L 289.00 553.40 L 285.70 554.50 L 282.20 555.20 L 278.50 555.50 L 274.80 555.20 L 271.30 554.50 L 268.00 553.40 L 264.90 551.80 L 262.00 549.90 L 259.40 547.60 L 257.10 545.00 L 255.20 542.10 L 253.60 539.00 L 252.50 535.70 L 251.80 532.20 L 251.50 528.50 L 251.80 524.80 L 252.50 521.30 L 253.60 518.00 L 255.20 514.90 L 257.10 512.00 L 259.40 509.40 L 262.00 507.10 L 264.90 505.20 L 268.00 503.60 L 271.30 502.50 L 274.80 501.80 L 278.50 501.50 L 282.20 501.80 L 285.70 502.50 L 289.00 503.60 L 292.10 505.20 L 295.00 507.10 L 297.60 509.40 L 299.90 512.00 L 301.80 514.90 L 303.40 518.00 L 304.50 521.30 L 305.20 524.80 L 305.50 528.50 Z" fill="#0e538c" fill-rule="nonzero" node-id="235" stroke="none" target-height="54" target-width="54" target-x="251.5" target-y="501.5"></path><path d="M 207.50 586.70 L 207.80 581.80 L 208.70 577.00 L 210.30 572.00 L 212.30 567.20 L 214.80 562.50 L 217.90 558.00 L 221.40 553.80 L 225.30 549.80 L 229.60 546.20 L 234.30 543.00 L 239.20 540.30 L 244.40 538.00 L 252.70 535.80 L 261.50 535.00 L 270.30 535.80 L 278.60 538.00 L 283.80 540.30 L 288.70 543.00 L 293.40 546.20 L 297.70 549.80 L 301.60 553.80 L 305.10 558.00 L 308.20 562.50 L 310.70 567.20 L 312.70 572.00 L 314.30 577.00 L 315.20 581.80 L 315.50 586.70 L 315.20 591.20 L 314.40 595.60 L 313.10 599.90 L 311.30 604.10 L 309.00 608.10 L 306.30 611.80 L 303.20 615.40 L 299.70 618.70 L 295.90 621.70 L 291.70 624.40 L 287.30 626.70 L 282.50 628.80 L 277.60 630.40 L 272.50 631.50 L 267.10 632.20 L 261.50 632.50 L 255.90 632.20 L 250.50 631.50 L 245.40 630.40 L 240.50 628.80 L 235.70 626.70 L 231.20 624.40 L 227.10 621.70 L 223.30 618.80 L 219.80 615.40 L 216.70 611.90 L 214.00 608.10 L 211.70 604.20 L 209.90 600.00 L 208.60 595.70 L 207.80 591.30 L 207.50 586.70 Z" fill="#0e538c" fill-rule="nonzero" node-id="237" stroke="none" target-height="97.5" target-width="108" target-x="207.5" target-y="535"></path><path d="M 244.70 638.90 L 249.50 668.50 L 261.50 694.00 L 271.50 668.50 L 275.50 638.50 Z" fill="#fcd2b1" fill-rule="nonzero" node-id="239" stroke="none" target-height="55.5" target-width="30.800003" target-x="244.7" target-y="638.5"></path><path d="M 295.00 601.00 L 294.20 609.30 L 292.00 617.70 L 288.50 625.70 L 283.90 632.90 L 278.40 638.90 L 275.30 641.30 L 272.10 643.30 L 268.70 644.80 L 265.10 645.70 L 261.50 646.00 L 257.90 645.70 L 254.30 644.80 L 250.90 643.30 L 247.70 641.30 L 244.60 638.90 L 239.10 632.90 L 234.50 625.70 L 231.00 617.70 L 228.80 609.30 L 228.20 605.10 L 228.00 601.00 L 228.30 595.90 L 229.20 591.10 L 230.60 586.60 L 232.60 582.30 L 235.00 578.40 L 237.80 574.90 L 241.10 571.70 L 244.60 569.10 L 248.50 566.90 L 251.50 565.70 L 258.00 564.20 L 261.50 564.00 L 265.00 564.20 L 271.50 565.70 L 274.50 566.90 L 278.40 569.10 L 281.90 571.70 L 285.20 574.90 L 288.00 578.40 L 290.40 582.30 L 292.40 586.60 L 293.80 591.10 L 294.70 595.90 L 295.00 601.00 Z" fill="#ffe3ca" fill-rule="nonzero" node-id="241" stroke="none" target-height="82" target-width="67" target-x="228" target-y="564"></path><path d="M 235.00 556.00 L 288.00 556.00 L 288.00 591.00 L 235.00 591.00 Z" fill="#0e538c" fill-rule="nonzero" node-id="243" stroke="none" target-height="35" target-width="53" target-x="235" target-y="556"></path><path d="M 313.50 768.90 L 317.00 758.10 L 319.20 749.90 L 320.60 742.30 L 321.20 736.80 L 321.10 733.40 L 320.40 729.00" fill="none" node-id="245" stroke="#a01133" stroke-linecap="round" stroke-width="4" target-height="39.900024" target-width="7.700012" target-x="313.5" target-y="729"></path><path d="M 203.20 768.90 L 199.70 758.10 L 197.50 749.90 L 196.10 742.30 L 195.50 736.80 L 195.60 733.40 L 196.30 729.00" fill="none" node-id="247" stroke="#b11b1e" stroke-linecap="round" stroke-width="4" target-height="39.900024" target-width="7.699997" target-x="195.5" target-y="729"></path><path d="M 331.30 872.00 L 189.20 872.00 L 187.10 871.70 L 185.20 870.90 L 183.60 869.70 L 182.40 868.10 L 181.60 866.20 L 181.30 864.10 L 177.30 767.90 L 177.60 765.80 L 178.40 763.90 L 179.60 762.30 L 181.20 761.10 L 183.10 760.30 L 185.20 760.00 L 335.40 760.00 L 337.50 760.30 L 339.40 761.10 L 341.00 762.30 L 342.20 763.90 L 343.00 765.80 L 343.30 767.90 L 339.30 864.10 L 339.00 866.20 L 338.20 868.10 L 337.00 869.70 L 335.30 870.90 L 333.40 871.70 L 331.30 872.00 Z" fill="#e4e4e4" fill-rule="nonzero" node-id="249" stroke="none" target-height="112" target-width="165.99998" target-x="177.3" target-y="760"></path><g node-id="320"><path d="M 397.40 872.00 L 386.80 880.40 L 371.10 891.80 L 352.00 905.00 L 309.80 933.40 L 252.40 971.00 L 196.40 996.00 L 195.20 996.30 L 193.20 996.00 L 192.00 995.10 L 191.20 993.70 L 191.00 992.70 L 191.70 990.60 L 193.90 987.60 L 200.80 980.30 L 209.90 972.60 L 214.90 969.00 L 220.20 965.70 L 225.40 963.10 L 227.90 957.50 L 230.20 953.60 L 233.50 949.50 L 237.00 947.20 L 239.10 946.50 L 245.00 945.40 L 248.50 944.20 L 254.70 941.10 L 260.50 937.40 L 264.40 934.40 L 274.40 925.10 L 296.50 893.30 L 310.90 874.20 L 318.90 864.60 L 327.40 855.20 L 333.30 849.20 L 345.80 838.10 L 352.30 833.00 L 359.00 828.50 L 365.80 824.40 L 376.50 819.50 L 387.40 816.10 L 398.10 814.30 L 405.60 814.30 L 409.20 814.90 L 412.10 815.80 L 414.40 816.90 L 416.30 818.30 L 418.00 820.00 L 419.20 821.90 L 420.20 824.00 L 420.70 826.50 L 421.00 829.80 L 420.70 833.40 L 419.90 837.40 L 417.10 845.40 L 415.00 849.60 L 411.40 855.70 L 407.10 861.70 L 404.00 865.40 L 397.40 872.00 Z" fill="#ffe3ca" fill-rule="nonzero" group-id="7" node-id="253" stroke="none" target-height="182" target-width="230" target-x="191" target-y="814.30005"></path><path d="M 397.20 871.15 L 386.60 879.55 L 370.90 890.95 L 351.80 904.15 L 309.60 932.55 L 272.50 956.95 L 260.30 936.45 L 267.50 930.65 L 274.20 924.15 L 296.30 892.35 L 310.70 873.25 L 318.70 863.65 L 327.20 854.25 L 333.10 848.25 L 345.60 837.15 L 352.10 832.05 L 358.80 827.55 L 365.60 823.45 L 376.30 818.55 L 387.20 815.15 L 397.90 813.35 L 405.40 813.35 L 409.00 813.95 L 411.90 814.85 L 414.20 815.95 L 416.10 817.35 L 417.80 819.05 L 419.00 820.95 L 420.00 823.15 L 420.50 825.55 L 420.80 828.85 L 420.50 832.45 L 419.70 836.55 L 416.90 844.55 L 414.80 848.75 L 411.20 854.85 L 406.90 860.85 L 403.80 864.55 L 397.20 871.15 Z" fill="#0a3e5b" fill-rule="nonzero" group-id="7" node-id="255" stroke="none" target-height="143.59998" target-width="160.5" target-x="260.3" target-y="813.35004"></path><path d="M 241.00 961.00 L 238.70 963.40 L 232.30 976.50 L 229.50 980.90 L 194.80 996.30 L 192.80 996.00 L 191.60 995.10 L 190.80 993.70 L 190.60 992.70 L 191.30 990.60 L 193.50 987.60 L 200.40 980.30 L 209.50 972.60 L 214.50 969.00 L 219.80 965.70 L 225.00 963.10 L 227.50 957.50 L 229.80 953.60 L 231.40 951.30 L 234.80 948.20 L 238.70 946.50 L 244.60 945.40 L 248.10 944.20 L 248.70 947.10 L 247.90 950.80 L 245.50 955.30 L 241.00 961.00 Z" fill="#2a2a2a" fill-rule="nonzero" group-id="7" node-id="257" stroke="none" target-height="52.099976" target-width="58.09999" target-x="190.6" target-y="944.2"></path></g><path d="M 275.00 816.00 L 274.70 818.70 L 274.10 821.20 L 273.00 823.60 L 271.50 825.70 L 269.70 827.50 L 267.60 829.00 L 265.20 830.10 L 262.70 830.70 L 260.00 831.00 L 257.30 830.70 L 254.80 830.10 L 252.40 829.00 L 250.30 827.50 L 248.50 825.70 L 247.00 823.60 L 245.90 821.20 L 245.30 818.70 L 245.00 816.00 L 245.30 813.30 L 245.90 810.80 L 247.00 808.40 L 248.50 806.30 L 250.30 804.50 L 252.40 803.00 L 254.80 801.90 L 257.30 801.30 L 260.00 801.00 L 262.70 801.30 L 265.20 801.90 L 267.60 803.00 L 269.70 804.50 L 271.50 806.30 L 273.00 808.40 L 274.10 810.80 L 274.70 813.30 L 275.00 816.00 Z" fill="#ffffff" fill-rule="nonzero" node-id="260" stroke="none" target-height="30" target-width="30" target-x="245" target-y="801"></path><path d="M 802.40 325.60 L 797.10 327.10 L 784.00 331.60 L 763.10 340.20 L 750.70 346.00 L 741.60 350.70 L 737.30 353.60 L 735.70 357.90 L 733.30 366.50 L 722.70 411.40 L 730.90 421.00 L 736.90 426.60 L 742.00 430.10 L 745.40 431.20 L 748.70 477.70 L 755.70 593.50 L 864.50 564.00 L 864.50 542.20 L 864.10 518.40 L 863.00 489.10 L 861.00 456.70 L 857.70 423.40 L 855.50 407.00 L 853.00 391.60 L 848.80 372.10 L 846.40 363.50 L 843.70 355.10 L 840.80 347.80 L 837.80 341.60 L 835.20 337.10 L 832.50 333.40 L 829.70 330.40 L 826.90 328.10 L 821.40 326.20 L 816.80 325.10 L 809.10 324.60 L 806.10 324.80 L 802.40 325.60 Z" fill="#102929" fill-rule="nonzero" node-id="262" stroke="none" target-height="268.9" target-width="141.79999" target-x="722.7" target-y="324.6"></path><path d="M 828.40 322.80 L 825.80 334.80 L 820.00 355.00 L 807.10 330.70 L 806.30 307.00 L 825.50 303.80 Z" fill="#fcd2b1" fill-rule="nonzero" node-id="264" stroke="none" target-height="51.200012" target-width="22.100037" target-x="806.3" target-y="303.8"></path><path d="M 937.40 490.40 L 864.50 511.30 L 862.60 509.00 L 861.60 506.90 L 861.00 504.70 L 861.00 502.30 L 873.40 371.00 L 945.00 355.30 L 947.60 355.10 L 950.00 355.40 L 952.40 356.30 L 954.40 357.80 L 937.40 490.40 Z" fill="#a4d7f7" fill-rule="nonzero" node-id="266" stroke="none" target-height="156.19998" target-width="93.400024" target-x="861" target-y="355.1"></path><path d="M 941.40 494.40 L 864.50 511.30 L 877.40 375.00 L 954.30 358.10 Z" fill="#555555" fill-rule="nonzero" node-id="268" stroke="none" target-height="153.19998" target-width="89.79999" target-x="864.5" target-y="358.1"></path><path d="M 723.30 412.80 L 722.00 422.60 L 721.80 428.30 L 722.70 439.80 L 723.70 445.90 L 726.80 457.90 L 728.90 463.80 L 731.40 469.50 L 734.30 474.90 L 737.60 480.00 L 741.30 484.70 L 745.40 488.90 L 749.80 492.60 L 753.40 495.00 L 757.30 497.00 L 761.30 498.60 L 765.70 499.90 L 770.10 500.60 L 774.80 500.90 L 779.80 500.60 L 785.20 499.80 L 790.40 498.50 L 796.00 496.60 L 802.10 493.90 L 808.60 490.50 L 848.60 467.30 L 857.70 461.80 L 863.30 458.00 L 873.60 454.00 L 880.60 450.10 L 883.90 447.60 L 886.90 444.80 L 889.30 441.70 L 888.90 415.80 L 859.60 434.20 L 851.50 445.70 L 848.20 447.40 L 839.30 451.60 L 826.60 456.90 L 811.50 461.90 L 803.60 463.80 L 795.80 465.20 L 790.60 465.70 L 785.70 465.80 L 781.10 465.50 L 774.50 464.00 L 768.90 461.30 L 766.50 459.50 L 764.30 457.30 L 762.50 454.60 L 760.90 451.40 L 759.80 448.10 L 759.10 444.20 L 758.70 439.60 L 758.80 434.20 L 723.30 412.80" fill="#ffe3ca" fill-rule="nonzero" node-id="270" stroke="none" target-height="88.100006" target-width="167.5" target-x="721.8" target-y="412.8"></path><path d="M 946.60 437.00 L 951.00 445.00 L 943.80 465.50 L 928.00 446.00 L 939.00 439.00 L 946.10 442.90 Z" fill="#ffe3ca" fill-rule="nonzero" node-id="272" stroke="none" target-height="28.5" target-width="23" target-x="928" target-y="437"></path><path d="M 722.00 406.00 L 718.60 412.00 L 718.20 414.60 L 719.00 416.00 L 760.00 439.00 L 764.00 431.00 L 722.00 406.00 Z" fill="#2390e2" fill-rule="nonzero" node-id="274" stroke="none" target-height="33" target-width="45.799988" target-x="718.2" target-y="406"></path><g node-id="321"><path d="M 921.20 418.40 L 922.60 419.20 L 923.80 420.30 L 924.70 421.90 L 925.80 425.70 L 925.90 430.50 L 924.70 435.80 L 922.40 440.80 L 919.50 444.70 L 916.30 447.10 L 914.60 447.70 L 913.00 447.90 L 911.40 447.70 L 910.00 446.90 L 908.90 445.80 L 907.20 442.50 L 906.80 440.40 L 906.80 435.60 L 908.00 430.30 L 910.20 425.30 L 913.20 421.40 L 916.30 419.00 L 918.00 418.40 L 919.60 418.20 L 921.20 418.40 Z" fill="#a4d7f7" fill-rule="nonzero" group-id="8" node-id="278" stroke="none" target-height="29.699982" target-width="19.100037" target-x="906.8" target-y="418.2"></path></g><path d="M 857.30 271.30 L 857.40 278.70 L 856.80 292.90 L 855.50 305.10 L 853.80 314.20 L 853.00 316.80 L 852.40 317.70 L 849.40 319.80 L 846.30 321.20 L 837.50 323.50 L 827.40 324.60 L 819.00 324.20 L 813.30 322.80 L 810.70 321.70 L 808.60 320.20 L 806.90 318.50 L 804.20 313.90 L 801.30 306.00 L 798.70 294.90 L 797.10 283.70 L 796.50 274.10 L 796.90 267.80 L 797.30 266.70 L 798.30 266.20 L 801.40 265.30 L 810.20 263.70 L 821.80 262.50 L 834.30 262.20 L 840.30 262.50 L 849.00 264.00 L 854.00 266.10 L 856.40 268.40 L 857.30 271.30 Z" fill="#ffe3ca" fill-rule="nonzero" node-id="281" stroke="none" target-height="62.399994" target-width="60.900024" target-x="796.5" target-y="262.2"></path><path d="M 808.60 259.00 L 817.50 264.60 L 824.30 268.10 L 827.40 269.10 L 830.40 269.60 L 833.50 269.60 L 839.70 268.80 L 842.10 269.00 L 847.40 270.90 L 856.60 275.70 L 860.80 276.70 L 863.10 276.70 L 864.60 276.20 L 866.20 275.20 L 868.00 273.60 L 870.40 270.50 L 872.60 266.60 L 874.30 262.30 L 875.50 257.80 L 875.90 254.60 L 875.60 248.90 L 874.70 246.30 L 873.30 244.10 L 871.40 242.10 L 869.70 241.00 L 864.90 239.40 L 861.70 239.10 L 853.10 239.00 L 840.20 239.80 L 832.00 241.10 L 826.60 242.40 L 820.00 244.90 L 818.60 244.20 L 817.30 244.10 L 816.10 244.50 L 814.50 245.70 L 813.00 247.70 L 811.70 250.10 L 808.60 259.00 Z" fill="#0e538c" fill-rule="nonzero" node-id="283" stroke="none" target-height="37.700012" target-width="67.30005" target-x="808.6" target-y="239"></path><path d="M 816.10 244.50 L 814.70 243.40 L 813.00 242.50 L 810.70 241.80 L 805.90 241.60 L 803.30 242.00 L 798.30 243.80 L 796.10 245.30 L 794.10 247.10 L 792.50 249.30 L 791.20 251.90 L 790.30 255.00 L 787.80 268.60 L 786.80 278.90 L 786.50 288.50 L 786.70 292.80 L 787.60 298.00 L 788.70 299.90 L 802.90 310.80 L 805.40 282.90 L 815.10 263.10 L 820.40 256.80 L 816.10 244.50 Z" fill="#0e538c" fill-rule="nonzero" node-id="285" stroke="none" target-height="69.19998" target-width="33.900024" target-x="786.5" target-y="241.6"></path><path d="M 810.60 288.90 L 810.30 291.40 L 809.60 293.60 L 808.40 295.60 L 807.00 297.00 L 805.20 298.00 L 803.30 298.30 L 801.40 298.00 L 799.60 297.00 L 798.20 295.60 L 797.00 293.60 L 796.30 291.40 L 796.00 288.90 L 796.30 286.40 L 797.00 284.20 L 798.20 282.20 L 799.60 280.80 L 801.40 279.80 L 803.30 279.50 L 805.20 279.80 L 807.00 280.80 L 808.40 282.20 L 809.60 284.20 L 810.30 286.40 L 810.60 288.90 Z" fill="#ffe3ca" fill-rule="nonzero" node-id="287" stroke="none" target-height="18.799988" target-width="14.599976" target-x="796" target-y="279.5"></path><g node-id="322"><path d="M 706.20 465.60 L 352.40 465.60 L 348.20 466.40 L 344.70 468.40 L 342.00 471.60 L 340.60 475.40 L 340.40 477.60 L 340.40 581.00 L 340.60 583.30 L 341.20 585.40 L 342.30 587.40 L 343.60 589.10 L 345.20 590.60 L 347.10 591.70 L 346.00 602.30 L 343.70 610.30 L 344.40 611.60 L 345.70 612.10 L 346.50 611.80 L 349.80 609.40 L 353.20 606.30 L 359.30 599.40 L 363.90 593.10 L 706.30 593.10 L 710.50 592.30 L 714.00 590.30 L 716.70 587.10 L 718.10 583.30 L 718.30 581.10 L 718.30 477.60 L 717.50 473.40 L 716.60 471.60 L 713.90 468.40 L 710.40 466.40 L 706.20 465.60 Z" fill="#b6b6b6" fill-rule="nonzero" group-id="9" node-id="291" stroke="none" target-height="146.49997" target-width="377.9" target-x="340.4" target-y="465.6"></path><path d="M 428.20 520.00 L 427.90 524.90 L 426.90 529.50 L 425.40 533.80 L 423.30 537.90 L 420.80 541.70 L 417.80 545.10 L 414.40 548.10 L 410.60 550.60 L 406.50 552.70 L 402.20 554.20 L 397.60 555.20 L 392.70 555.50 L 387.80 555.20 L 383.20 554.20 L 378.90 552.70 L 374.80 550.60 L 371.00 548.10 L 367.60 545.10 L 364.60 541.70 L 362.10 537.90 L 360.00 533.80 L 358.50 529.50 L 357.50 524.90 L 357.20 520.00 L 357.50 515.10 L 358.50 510.50 L 360.00 506.20 L 362.10 502.10 L 364.60 498.30 L 367.60 494.90 L 371.00 491.90 L 374.80 489.40 L 378.90 487.30 L 383.20 485.80 L 387.80 484.80 L 392.70 484.50 L 397.60 484.80 L 402.20 485.80 L 406.50 487.30 L 410.60 489.40 L 414.40 491.90 L 417.80 494.90 L 420.80 498.30 L 423.30 502.10 L 425.40 506.20 L 426.90 510.50 L 427.90 515.10 L 428.20 520.00 Z" fill="#ffe9cc" fill-rule="nonzero" group-id="9" node-id="293" stroke="none" target-height="71" target-width="71" target-x="357.2" target-y="484.5"></path><path d="M 695.30 501.50 L 451.50 501.50 L 450.10 501.20 L 449.00 500.50 L 448.30 499.40 L 448.00 498.00 L 448.00 488.00 L 448.30 486.60 L 449.00 485.50 L 450.10 484.80 L 451.50 484.50 L 695.30 484.50 L 696.70 484.80 L 697.80 485.50 L 698.50 486.60 L 698.80 488.00 L 698.80 498.00 L 698.50 499.40 L 697.80 500.50 L 696.70 501.20 L 695.30 501.50 Z" fill="#ffe9cc" fill-rule="nonzero" group-id="9" node-id="295" stroke="none" target-height="17" target-width="250.79999" target-x="448" target-y="484.5"></path><path d="M 636.90 528.30 L 451.00 528.30 L 449.80 528.10 L 448.80 527.40 L 448.10 526.40 L 447.90 525.20 L 447.90 514.30 L 448.10 513.10 L 448.80 512.10 L 449.80 511.40 L 451.00 511.20 L 636.90 511.20 L 638.10 511.40 L 639.10 512.10 L 639.80 513.10 L 640.00 514.30 L 640.00 525.20 L 639.80 526.40 L 639.10 527.40 L 638.10 528.10 L 636.90 528.30 Z" fill="#ffe9cc" fill-rule="nonzero" group-id="9" node-id="297" stroke="none" target-height="17.099976" target-width="192.1" target-x="447.9" target-y="511.2"></path><path d="M 655.50 555.20 L 451.20 555.20 L 449.90 554.90 L 448.90 554.30 L 448.30 553.30 L 448.00 552.00 L 448.00 541.40 L 448.30 540.10 L 448.90 539.10 L 449.90 538.50 L 451.20 538.20 L 655.50 538.20 L 656.80 538.50 L 657.80 539.10 L 658.40 540.10 L 658.70 541.40 L 658.70 552.00 L 658.50 553.20 L 657.80 554.20 L 656.80 554.90 L 655.50 555.20 Z" fill="#ffe9cc" fill-rule="nonzero" group-id="9" node-id="299" stroke="none" target-height="17" target-width="210.70001" target-x="448" target-y="538.2"></path></g><g node-id="323"><path d="M 363.15 194.55 L 716.95 194.55 L 721.15 195.35 L 724.65 197.35 L 727.35 200.55 L 728.75 204.35 L 728.95 206.55 L 728.95 309.95 L 728.75 312.25 L 728.15 314.35 L 727.15 316.35 L 725.75 318.05 L 724.15 319.55 L 722.25 320.65 L 723.35 331.25 L 725.65 339.25 L 724.95 340.55 L 723.65 341.05 L 722.85 340.75 L 719.55 338.35 L 716.15 335.25 L 710.05 328.35 L 705.45 322.05 L 363.15 322.05 L 358.95 321.25 L 355.45 319.25 L 352.75 316.05 L 351.35 312.25 L 351.15 310.05 L 351.15 206.55 L 351.95 202.35 L 353.95 198.85 L 357.15 196.15 L 358.95 195.35 L 363.15 194.55 Z" fill="#5d5d5d" fill-rule="nonzero" group-id="10" node-id="304" stroke="none" target-height="146.49998" target-width="377.80002" target-x="351.15" target-y="194.55"></path><path d="M 441.40 249.60 L 441.10 254.50 L 440.10 259.10 L 438.60 263.40 L 436.50 267.50 L 434.00 271.30 L 431.00 274.70 L 427.60 277.70 L 423.80 280.20 L 419.70 282.30 L 415.40 283.80 L 410.80 284.80 L 405.90 285.10 L 401.00 284.80 L 396.40 283.80 L 392.10 282.30 L 388.00 280.20 L 384.20 277.70 L 380.80 274.70 L 377.80 271.30 L 375.30 267.50 L 373.20 263.40 L 371.70 259.10 L 370.70 254.50 L 370.40 249.60 L 370.70 244.70 L 371.70 240.10 L 373.20 235.80 L 375.30 231.70 L 377.80 227.90 L 380.80 224.50 L 384.20 221.50 L 388.00 219.00 L 392.10 216.90 L 396.40 215.40 L 401.00 214.40 L 405.90 214.10 L 410.80 214.40 L 415.40 215.40 L 419.70 216.90 L 423.80 219.00 L 427.60 221.50 L 431.00 224.50 L 434.00 227.90 L 436.50 231.70 L 438.60 235.80 L 440.10 240.10 L 441.10 244.70 L 441.40 249.60 Z" fill="#ffe9cc" fill-rule="nonzero" group-id="10" node-id="306" stroke="none" target-height="71" target-width="71" target-x="370.4" target-y="214.1"></path><path d="M 708.50 231.10 L 464.70 231.10 L 463.30 230.80 L 462.20 230.10 L 461.50 229.00 L 461.20 227.60 L 461.20 217.60 L 461.50 216.20 L 462.20 215.10 L 463.30 214.40 L 464.70 214.10 L 708.50 214.10 L 709.90 214.40 L 711.00 215.10 L 711.70 216.20 L 712.00 217.60 L 712.00 227.60 L 711.70 229.00 L 711.00 230.10 L 709.90 230.80 L 708.50 231.10 Z" fill="#ffe9cc" fill-rule="nonzero" group-id="10" node-id="308" stroke="none" target-height="17" target-width="250.79999" target-x="461.2" target-y="214.1"></path><path d="M 650.10 257.90 L 464.20 257.90 L 463.00 257.70 L 462.00 257.00 L 461.30 256.00 L 461.10 254.80 L 461.10 244.00 L 461.30 242.80 L 462.00 241.80 L 463.00 241.10 L 464.20 240.90 L 650.10 240.90 L 651.30 241.10 L 652.30 241.80 L 653.00 242.80 L 653.20 244.00 L 653.20 254.90 L 653.00 256.10 L 652.30 257.00 L 651.30 257.70 L 650.10 257.90 Z" fill="#ffe9cc" fill-rule="nonzero" group-id="10" node-id="310" stroke="none" target-height="17" target-width="192.1" target-x="461.1" target-y="240.9"></path><path d="M 668.70 284.80 L 464.40 284.80 L 463.10 284.50 L 462.10 283.90 L 461.50 282.90 L 461.20 281.60 L 461.20 271.00 L 461.50 269.70 L 462.10 268.70 L 463.10 268.10 L 464.40 267.80 L 668.70 267.80 L 670.00 268.10 L 671.00 268.70 L 671.60 269.70 L 671.90 271.00 L 671.90 281.60 L 671.70 282.80 L 671.00 283.80 L 670.00 284.50 L 668.70 284.80 Z" fill="#ffe9cc" fill-rule="nonzero" group-id="10" node-id="312" stroke="none" target-height="17" target-width="210.70001" target-x="461.2" target-y="267.8"></path></g></svg>