<?xml version="1.0" standalone="no"?><!DOCTYPE svg PUBLIC "-//W3C//DTD SVG 1.1//EN" "http://www.w3.org/Graphics/SVG/1.1/DTD/svg11.dtd"><svg height="1000" node-id="1" sillyvg="true" template-height="1000" template-width="1287" version="1.1" viewBox="0 0 1287 1000" width="1287" xmlns="http://www.w3.org/2000/svg" xmlns:xlink="http://www.w3.org/1999/xlink"><defs node-id="32"></defs><path d="M 861.60 514.50 L 861.10 454.40 L 860.40 429.20 L 859.50 408.60 L 858.10 389.50 L 856.50 374.20 L 853.50 356.00 L 849.70 341.60 L 847.50 335.30 L 845.10 329.70 L 839.40 319.40 L 836.20 314.80 L 830.90 308.10 L 824.70 301.40 L 818.70 295.50 L 812.40 290.10 L 805.80 285.20 L 798.90 280.80 L 791.70 276.80 L 784.20 273.40 L 776.60 270.40 L 768.70 267.90 L 760.70 266.00 L 752.60 264.60 L 744.40 263.80 L 736.00 263.50 L 728.20 263.70 L 720.50 264.50 L 713.00 265.70 L 705.70 267.30 L 698.50 269.40 L 691.50 271.90 L 684.70 274.90 L 678.20 278.20 L 671.90 281.90 L 665.90 286.00 L 660.20 290.50 L 654.70 295.30 L 649.60 300.50 L 644.90 305.90 L 640.50 311.70 L 636.50 317.80 L 632.90 324.20 L 629.70 330.80 L 627.00 337.70 L 624.70 344.90 L 622.90 352.20 L 621.50 359.70 L 620.70 367.50 L 620.50 380.70 L 620.20 382.60 L 614.90 395.80 L 613.00 401.90 L 611.10 409.40 L 609.60 420.50 L 609.40 427.00 L 609.60 434.90 L 610.20 440.00 L 611.60 445.20 L 612.40 446.70 L 614.60 449.00 L 620.10 451.30 L 620.80 507.70 L 614.00 502.60 L 606.20 497.90 L 601.80 496.00 L 596.80 494.40 L 589.60 493.20 L 585.40 493.00 L 579.20 493.40 L 572.90 494.30 L 566.50 495.90 L 554.10 500.40 L 548.00 503.20 L 539.20 507.80 L 523.20 517.70 L 505.70 529.90 L 492.00 512.40 L 478.80 495.10 L 476.10 492.30 L 473.80 491.70 L 471.10 480.70 L 483.00 487.70 L 484.60 488.00 L 486.40 487.70 L 488.80 486.80 L 490.90 485.40 L 492.80 483.40 L 493.80 481.80 L 494.40 479.80 L 494.70 477.60 L 494.50 475.20 L 493.90 473.40 L 492.20 471.20 L 487.80 468.30 L 467.30 457.70 L 465.00 455.90 L 460.30 438.20 L 456.00 426.60 L 453.30 421.20 L 451.30 417.80 L 446.80 412.50 L 444.90 411.00 L 441.00 409.10 L 438.80 408.70 L 430.20 408.50 L 421.20 408.90 L 405.00 411.90 L 403.10 413.10 L 402.20 414.30 L 401.70 415.60 L 401.40 417.90 L 401.80 422.40 L 395.30 419.30 L 388.70 415.50 L 384.70 413.90 L 377.60 411.90 L 375.40 412.00 L 374.40 412.60 L 373.80 413.50 L 373.50 414.60 L 373.80 415.90 L 378.80 422.00 L 382.00 425.00 L 393.30 432.90 L 391.30 434.90 L 390.30 437.90 L 390.10 439.90 L 391.40 448.10 L 394.60 459.30 L 397.20 466.30 L 401.70 475.90 L 404.70 481.20 L 411.70 491.60 L 416.10 497.00 L 420.70 502.10 L 426.00 507.20 L 432.00 512.30 L 419.30 518.70 L 417.40 520.10 L 417.00 521.50 L 436.50 594.30 L 435.40 596.20 L 429.00 604.30 L 400.70 549.40 L 380.40 507.00 L 372.50 489.40 L 361.50 463.00 L 354.90 445.20 L 349.60 428.60 L 348.90 427.40 L 348.10 426.70 L 345.80 426.70 L 344.90 427.30 L 344.30 428.20 L 344.10 429.30 L 344.60 432.00 L 348.70 445.80 L 355.70 464.10 L 367.30 491.30 L 384.90 529.10 L 396.60 553.20 L 425.30 609.60 L 418.40 620.50 L 413.00 630.40 L 408.40 641.60 L 406.70 647.30 L 405.40 655.00 L 405.20 658.80 L 405.40 662.40 L 406.00 665.40 L 406.90 667.70 L 408.20 669.90 L 409.70 671.50 L 413.00 673.60 L 416.70 674.20 L 419.30 674.00 L 422.00 673.20 L 424.80 671.90 L 427.40 670.20 L 430.00 668.10 L 432.50 665.40 L 434.70 662.50 L 436.70 659.20 L 438.30 655.50 L 439.50 651.70 L 440.30 647.50 L 440.60 642.90 L 439.80 634.00 L 437.20 623.70 L 431.90 610.10 L 438.60 601.30 L 445.00 623.80 L 456.10 660.50 L 465.50 688.20 L 470.60 701.80 L 476.00 714.60 L 481.40 726.70 L 485.90 735.70 L 495.30 752.10 L 500.20 759.50 L 505.50 766.80 L 511.00 773.50 L 516.70 779.50 L 522.60 785.10 L 527.70 789.20 L 532.90 792.90 L 538.30 796.20 L 543.90 799.10 L 549.70 801.60 L 555.60 803.70 L 561.80 805.30 L 568.30 806.50 L 575.10 807.30 L 582.30 807.50 L 591.40 807.20 L 601.60 806.30 L 602.50 805.70 L 603.10 804.80 L 603.40 803.80 L 603.00 802.30 L 601.60 801.20 L 600.20 801.00 L 584.10 801.80 L 576.60 801.60 L 569.50 800.80 L 562.70 799.50 L 556.30 797.80 L 550.30 795.60 L 544.30 792.90 L 538.60 789.80 L 533.00 786.20 L 527.70 782.00 L 522.50 777.40 L 513.00 767.20 L 503.80 754.90 L 499.30 747.80 L 494.30 739.10 L 489.30 729.50 L 484.30 719.00 L 479.40 707.50 L 473.40 692.30 L 467.30 675.60 L 461.20 657.20 L 452.50 628.90 L 443.30 597.40 L 443.20 596.50 L 443.70 595.30 L 448.80 589.10 L 463.00 574.60 L 474.60 563.60 L 486.40 552.90 L 497.00 543.90 L 504.90 537.90 L 518.60 556.50 L 531.10 575.90 L 524.80 584.80 L 519.30 595.20 L 514.70 606.40 L 511.30 618.30 L 509.10 630.40 L 508.30 642.50 L 508.50 648.90 L 509.10 654.60 L 510.10 659.70 L 511.30 664.20 L 514.80 672.80 L 516.90 676.30 L 519.10 679.30 L 524.40 684.60 L 529.90 688.20 L 533.90 689.80 L 537.90 690.70 L 541.90 691.00 L 544.60 690.80 L 547.10 690.10 L 549.30 689.20 L 551.30 687.80 L 553.60 685.50 L 555.70 682.90 L 558.90 676.30 L 561.10 669.00 L 562.80 658.20 L 563.30 649.50 L 563.00 643.30 L 562.30 637.10 L 561.10 630.90 L 559.60 624.80 L 555.90 613.20 L 549.20 597.50 L 538.10 576.30 L 543.30 570.40 L 548.90 564.90 L 554.70 559.70 L 567.10 550.60 L 573.30 546.60 L 582.80 541.20 L 591.80 536.70 L 608.20 529.80 L 620.70 525.90 L 625.30 524.80 L 628.10 524.60 L 629.70 525.40 L 630.30 526.10 L 635.60 533.90 L 646.10 551.40 L 647.10 552.20 L 648.10 552.40 L 649.00 552.20 L 650.30 550.90 L 650.50 550.00 L 649.10 546.00 L 645.60 539.50 L 636.30 524.30 L 655.40 523.60 L 656.70 527.30 L 660.20 533.80 L 662.40 536.70 L 665.70 540.20 L 669.40 543.40 L 673.40 546.10 L 682.10 550.60 L 693.50 554.70 L 706.60 557.50 L 721.10 559.00 L 733.30 558.80 L 740.80 558.10 L 747.50 557.00 L 754.20 555.40 L 760.10 553.50 L 765.20 551.50 L 774.50 546.80 L 781.30 541.80 L 785.70 537.20 L 787.30 534.80 L 788.10 533.00 L 788.30 531.50 L 787.90 522.50 L 855.60 521.90 L 858.10 521.60 L 859.40 521.90 L 861.80 523.10 L 865.90 525.60 L 872.00 530.10 L 880.40 536.90 L 889.20 544.70 L 899.50 554.60 L 910.00 565.40 L 921.30 577.90 L 928.70 586.60 L 943.60 605.80 L 950.80 615.90 L 957.80 626.40 L 964.50 637.40 L 970.80 648.60 L 976.60 660.00 L 981.90 671.80 L 985.50 680.80 L 988.70 689.80 L 991.50 698.90 L 993.90 708.10 L 995.80 717.40 L 997.20 726.70 L 998.00 736.10 L 998.30 745.40 L 998.10 752.70 L 997.50 759.30 L 996.50 765.40 L 995.30 770.90 L 993.70 776.00 L 991.70 781.10 L 989.40 785.80 L 986.80 790.00 L 984.00 793.80 L 981.00 797.20 L 976.70 801.10 L 972.10 804.50 L 967.20 807.30 L 961.90 809.60 L 956.40 811.30 L 950.60 812.60 L 944.50 813.30 L 938.10 813.60 L 931.40 813.30 L 924.70 812.70 L 918.00 811.60 L 911.20 810.00 L 902.30 807.40 L 893.60 804.20 L 884.80 800.50 L 868.00 791.80 L 859.90 787.00 L 844.40 776.60 L 827.10 763.30 L 818.10 755.70 L 809.80 748.10 L 797.40 735.70 L 793.60 731.50 L 790.10 726.90 L 793.90 708.10 L 794.40 705.30 L 793.80 703.50 L 793.10 702.90 L 791.60 702.40 L 790.60 702.60 L 789.80 703.10 L 789.20 704.10 L 788.60 705.90 L 785.20 722.10 L 778.10 713.90 L 777.40 712.90 L 777.20 711.70 L 786.10 659.20 L 794.80 659.20 L 794.20 678.10 L 794.80 680.80 L 795.50 681.50 L 797.00 681.90 L 798.30 681.70 L 799.10 680.90 L 799.70 679.50 L 800.60 659.20 L 815.70 659.90 L 837.50 661.60 L 851.30 663.30 L 855.40 664.10 L 860.80 665.60 L 862.70 666.70 L 869.30 679.10 L 876.60 690.20 L 884.50 700.10 L 888.70 704.60 L 896.90 712.20 L 901.20 715.50 L 909.10 720.30 L 913.20 721.90 L 916.80 722.90 L 921.70 723.10 L 925.80 722.10 L 927.90 721.10 L 929.70 719.70 L 931.30 717.60 L 932.50 714.00 L 932.70 711.60 L 932.40 707.50 L 931.40 703.50 L 929.90 699.60 L 927.70 695.60 L 925.10 692.00 L 921.90 688.40 L 918.20 684.90 L 913.90 681.40 L 907.90 677.30 L 901.10 673.40 L 893.50 669.70 L 885.60 666.60 L 877.20 663.90 L 867.50 661.30 L 866.30 660.40 L 863.10 653.40 L 859.10 642.50 L 854.80 629.90 L 851.50 617.90 L 851.10 616.70 L 850.20 616.00 L 848.20 616.10 L 847.20 617.00 L 846.70 619.10 L 847.00 621.80 L 847.90 625.80 L 850.80 635.50 L 859.30 659.40 L 851.10 657.80 L 834.50 655.60 L 809.70 653.90 L 784.90 653.10 L 781.40 641.90 L 777.80 632.50 L 775.70 628.10 L 772.40 623.00 L 770.70 621.10 L 768.80 619.60 L 766.90 618.70 L 765.00 618.30 L 763.50 618.60 L 762.30 619.20 L 760.10 621.00 L 759.10 613.40 L 755.10 571.60 L 753.50 564.00 L 752.80 562.70 L 751.40 561.90 L 749.80 561.70 L 643.90 567.90 L 627.90 569.00 L 626.40 570.00 L 625.90 571.70 L 630.60 702.00 L 631.70 722.90 L 633.10 724.20 L 634.20 724.40 L 661.00 723.20 L 761.20 720.00 L 763.20 719.70 L 765.40 718.60 L 766.30 717.30 L 767.30 713.90 L 769.50 715.20 L 772.10 717.60 L 803.30 749.30 L 822.30 766.60 L 833.10 775.40 L 848.30 786.70 L 864.70 797.10 L 873.20 801.70 L 882.00 806.00 L 891.00 809.80 L 900.10 813.00 L 909.40 815.70 L 916.50 817.20 L 923.60 818.40 L 930.80 819.00 L 941.00 819.20 L 950.50 818.30 L 960.40 816.00 L 969.10 812.70 L 973.40 810.40 L 977.60 807.70 L 981.90 804.40 L 985.80 800.70 L 989.50 796.30 L 993.10 791.20 L 995.30 787.10 L 999.30 777.50 L 1001.00 771.80 L 1002.30 766.20 L 1003.20 760.00 L 1003.80 753.00 L 1004.00 745.20 L 1003.70 734.70 L 1002.80 724.40 L 1001.30 714.20 L 999.20 704.20 L 996.50 694.30 L 993.50 684.50 L 990.00 675.00 L 986.10 665.60 L 980.20 653.30 L 973.90 641.40 L 967.10 629.90 L 959.80 618.70 L 952.30 608.10 L 944.60 597.90 L 928.70 578.70 L 909.20 557.80 L 888.10 537.60 L 861.60 514.50 Z M 434.90 642.90 L 434.70 646.80 L 434.10 650.20 L 431.80 656.50 L 428.50 661.50 L 426.50 663.70 L 422.60 666.70 L 420.40 667.80 L 416.60 668.60 L 415.20 668.40 L 413.90 667.60 L 412.60 666.20 L 411.70 664.50 L 411.10 662.10 L 410.80 658.70 L 411.50 652.00 L 412.30 648.50 L 415.80 638.00 L 420.40 628.30 L 424.90 620.50 L 428.10 615.70 L 431.10 623.40 L 433.80 632.80 L 434.60 637.90 L 434.90 642.90 Z M 435.30 414.10 L 439.60 414.70 L 441.30 415.50 L 443.20 417.10 L 445.00 419.20 L 447.30 422.70 L 431.50 419.40 L 427.80 418.20 L 421.10 414.50 L 423.40 414.20 L 435.30 414.10 Z M 407.10 419.30 L 407.10 418.20 L 407.10 417.60 L 408.60 417.20 L 414.10 418.50 L 418.40 420.00 L 424.90 423.20 L 428.30 424.30 L 443.00 427.60 L 446.30 428.70 L 449.00 430.00 L 450.60 431.00 L 451.70 432.30 L 452.40 433.70 L 456.80 446.30 L 458.00 452.50 L 422.70 434.00 L 413.90 429.10 L 410.90 427.10 L 408.00 424.10 L 407.40 422.70 L 407.10 419.30 Z M 436.10 459.40 L 434.90 462.70 L 433.80 465.10 L 432.90 466.40 L 432.00 467.10 L 431.10 467.40 L 429.40 467.10 L 425.70 465.60 L 423.00 463.60 L 417.80 458.10 L 411.10 448.70 L 407.80 443.50 L 407.70 442.80 L 417.30 448.00 L 436.10 459.40 Z M 406.90 474.90 L 400.80 461.20 L 397.50 453.20 L 395.10 446.10 L 394.10 440.90 L 394.30 438.70 L 394.80 437.90 L 395.70 437.50 L 397.00 437.80 L 398.30 438.60 L 399.80 440.20 L 401.80 442.90 L 409.00 455.30 L 415.00 463.90 L 417.30 466.50 L 422.50 470.50 L 425.30 471.90 L 428.40 472.80 L 431.70 473.20 L 434.20 472.60 L 435.60 471.70 L 437.40 469.70 L 439.10 467.10 L 441.10 462.50 L 462.60 475.40 L 464.20 476.90 L 468.50 494.10 L 446.30 505.30 L 437.60 509.20 L 435.20 507.80 L 429.50 503.60 L 422.00 496.80 L 418.10 492.40 L 411.50 483.40 L 406.90 474.90 Z M 441.30 589.10 L 439.80 584.70 L 434.30 564.80 L 427.60 536.90 L 438.70 531.50 L 439.30 530.80 L 439.30 529.60 L 438.50 528.70 L 436.80 528.90 L 426.60 533.40 L 423.10 523.10 L 473.70 497.90 L 478.40 504.10 L 465.40 512.90 L 465.20 513.80 L 465.60 514.90 L 466.70 515.40 L 467.50 515.30 L 480.50 506.70 L 501.20 533.40 L 490.60 542.00 L 470.10 560.00 L 460.20 569.30 L 450.60 579.00 L 441.30 589.10 Z M 557.70 649.40 L 557.40 655.60 L 556.00 666.10 L 553.90 673.50 L 552.50 677.00 L 550.80 679.80 L 549.00 682.00 L 547.40 683.50 L 545.60 684.50 L 543.70 685.10 L 541.70 685.30 L 537.20 684.60 L 534.20 683.60 L 531.10 682.10 L 527.50 679.70 L 523.20 675.50 L 521.00 672.50 L 519.10 669.40 L 517.40 665.50 L 515.90 660.90 L 514.90 656.10 L 514.20 650.40 L 513.90 643.70 L 514.20 636.70 L 514.80 630.20 L 515.70 624.20 L 518.60 612.70 L 523.00 600.70 L 525.80 594.90 L 528.60 589.60 L 534.10 580.90 L 541.40 594.50 L 545.30 602.50 L 551.40 617.40 L 555.20 630.10 L 556.50 636.50 L 557.30 643.00 L 557.70 649.40 Z M 620.80 519.90 L 608.10 524.20 L 597.20 528.40 L 587.80 532.50 L 578.70 537.00 L 570.80 541.40 L 564.10 545.60 L 552.00 554.60 L 540.50 565.20 L 534.90 571.10 L 522.50 552.30 L 509.40 534.40 L 523.80 524.00 L 537.30 515.60 L 544.90 511.40 L 553.00 507.40 L 564.00 502.90 L 575.10 499.80 L 580.40 499.00 L 585.40 498.70 L 593.10 499.40 L 596.30 500.10 L 601.00 501.80 L 605.10 503.80 L 612.50 508.70 L 620.20 514.70 L 620.90 516.70 L 620.80 519.90 Z M 804.30 434.40 L 803.80 434.30 L 803.10 430.40 L 802.10 427.70 L 801.20 426.90 L 800.00 426.70 L 798.90 426.90 L 798.00 427.40 L 797.40 428.30 L 797.20 429.40 L 798.30 436.40 L 784.10 438.00 L 782.20 438.60 L 781.10 439.40 L 780.20 441.10 L 782.40 529.70 L 782.20 531.00 L 781.50 532.70 L 780.10 534.70 L 776.10 538.70 L 769.90 542.90 L 766.00 545.00 L 756.80 548.70 L 751.50 550.20 L 739.40 552.50 L 732.70 553.20 L 725.20 553.40 L 717.80 553.20 L 710.80 552.50 L 704.30 551.40 L 692.10 548.30 L 681.60 544.00 L 677.20 541.60 L 669.70 536.40 L 666.80 533.70 L 664.70 531.20 L 662.90 528.30 L 661.90 525.80 L 661.60 523.40 L 661.60 466.40 L 660.80 456.90 L 659.40 452.50 L 658.30 450.90 L 656.90 449.70 L 655.30 448.90 L 652.40 448.20 L 630.50 446.80 L 621.90 445.50 L 619.00 444.50 L 617.90 443.50 L 616.80 441.80 L 616.10 439.70 L 615.20 432.50 L 615.00 426.80 L 615.30 420.50 L 616.00 414.40 L 617.10 408.50 L 618.50 402.70 L 621.10 395.10 L 624.10 387.90 L 627.60 381.00 L 631.50 374.30 L 635.60 368.00 L 639.90 362.20 L 649.00 351.50 L 659.90 340.70 L 665.50 335.90 L 674.20 329.70 L 678.70 335.60 L 682.90 340.50 L 686.70 344.30 L 694.80 350.60 L 698.50 352.90 L 704.20 355.70 L 723.10 363.50 L 729.30 367.50 L 732.20 370.00 L 735.10 373.10 L 738.00 377.00 L 748.00 392.10 L 756.70 404.10 L 759.70 407.40 L 765.40 412.10 L 768.40 413.70 L 771.50 414.60 L 774.80 414.90 L 777.30 414.70 L 778.00 414.20 L 778.70 413.00 L 779.20 411.40 L 781.10 399.80 L 786.00 364.40 L 786.80 360.60 L 787.80 357.90 L 788.90 355.90 L 791.90 352.90 L 795.70 351.40 L 797.80 351.20 L 800.20 351.50 L 802.40 352.30 L 804.30 353.50 L 806.00 355.10 L 807.30 357.00 L 808.30 359.20 L 810.90 372.10 L 812.10 380.90 L 812.90 390.70 L 813.20 403.50 L 812.60 415.80 L 811.20 424.10 L 809.50 429.20 L 807.80 432.00 L 806.50 433.40 L 804.30 434.40 Z M 927.00 711.70 L 926.60 714.10 L 926.00 715.30 L 924.80 716.40 L 922.20 717.30 L 920.10 717.50 L 917.70 717.20 L 914.70 716.30 L 910.70 714.60 L 906.90 712.40 L 902.70 709.50 L 897.80 705.60 L 893.30 701.40 L 888.50 696.20 L 883.40 690.10 L 878.80 683.60 L 874.10 676.20 L 869.50 667.60 L 878.80 670.40 L 886.70 673.10 L 893.30 675.90 L 899.80 679.00 L 905.20 682.10 L 909.50 685.00 L 916.90 691.20 L 921.70 697.00 L 924.60 702.00 L 926.00 705.60 L 926.60 708.20 L 927.00 711.70 Z M 632.10 582.20 L 632.10 574.30 L 749.00 567.40 L 749.70 574.30 L 632.10 582.20 Z M 632.40 589.30 L 632.40 587.60 L 750.20 579.70 L 757.40 653.00 L 729.50 634.90 L 726.00 633.10 L 723.20 632.10 L 720.80 631.80 L 718.30 632.50 L 717.10 633.30 L 716.10 634.70 L 715.50 636.50 L 715.20 639.10 L 715.50 642.30 L 716.30 645.30 L 717.50 648.30 L 719.90 652.40 L 722.80 656.20 L 728.80 662.80 L 706.70 654.70 L 703.30 653.80 L 701.00 653.50 L 698.40 654.10 L 696.80 655.70 L 696.30 656.80 L 696.20 658.10 L 696.90 661.80 L 699.30 666.30 L 703.40 671.20 L 710.80 678.00 L 699.90 675.60 L 696.30 675.70 L 695.00 676.20 L 693.50 677.90 L 693.10 679.60 L 693.40 681.70 L 694.10 683.70 L 695.30 685.70 L 697.70 688.60 L 700.80 691.30 L 704.30 693.90 L 712.10 698.30 L 725.60 704.20 L 725.50 704.70 L 636.70 707.20 L 632.40 589.30 Z M 758.70 714.40 L 637.00 718.10 L 637.00 712.90 L 727.30 710.40 L 738.20 710.50 L 743.10 710.10 L 747.20 710.60 L 757.60 712.40 L 758.80 713.00 L 758.70 714.40 Z M 771.80 708.20 L 768.50 708.20 L 759.40 706.70 L 746.70 703.90 L 739.50 702.00 L 725.10 697.20 L 718.20 694.30 L 712.10 691.20 L 708.20 688.80 L 702.20 683.90 L 703.00 683.20 L 704.00 682.90 L 715.40 685.80 L 728.00 688.00 L 735.00 689.80 L 736.20 689.60 L 738.50 688.50 L 740.10 686.60 L 740.30 685.60 L 740.00 684.70 L 739.30 683.80 L 737.90 682.90 L 723.30 677.10 L 718.70 674.90 L 714.00 672.00 L 708.10 667.10 L 705.40 664.10 L 704.60 662.30 L 705.20 660.80 L 740.30 673.70 L 746.40 673.80 L 747.30 673.30 L 747.90 672.40 L 748.10 671.30 L 747.80 670.70 L 731.50 656.60 L 725.70 649.90 L 723.50 646.60 L 722.40 644.20 L 721.80 642.00 L 721.70 638.50 L 724.90 639.50 L 727.50 640.90 L 745.00 652.70 L 753.80 658.00 L 758.80 659.90 L 761.80 660.00 L 763.00 659.50 L 763.90 658.60 L 764.70 656.70 L 765.20 654.40 L 765.40 650.40 L 764.50 630.90 L 764.70 627.90 L 765.40 625.10 L 768.10 628.20 L 770.60 632.10 L 774.60 640.80 L 777.50 649.70 L 779.70 660.40 L 779.90 662.20 L 771.80 708.20 Z" fill="#000000" fill-rule="nonzero" node-id="34" stroke="none" target-height="555.7" target-width="659.9" target-x="344.1" target-y="263.5"></path><path d="M 550.10 415.00 L 577.00 414.80 L 582.70 414.30 L 584.40 414.00 L 585.50 413.10 L 585.40 312.90 L 585.00 284.20 L 584.30 265.90 L 583.80 259.60 L 583.30 255.80 L 582.50 252.90 L 581.80 251.50 L 580.80 250.80 L 579.70 250.60 L 540.30 251.00 L 540.40 245.40 L 540.20 239.50 L 539.30 233.40 L 537.80 227.30 L 535.80 221.30 L 533.10 215.50 L 529.90 209.80 L 524.10 202.00 L 517.00 194.90 L 513.00 191.90 L 508.70 189.10 L 504.00 186.70 L 499.00 184.60 L 493.90 183.00 L 488.40 181.80 L 482.50 181.00 L 476.20 180.70 L 470.50 181.00 L 465.00 181.70 L 459.50 182.90 L 454.10 184.60 L 449.00 186.80 L 444.00 189.40 L 439.30 192.40 L 434.90 195.80 L 430.70 199.70 L 426.90 203.90 L 423.50 208.40 L 420.50 213.10 L 417.90 218.10 L 415.80 223.30 L 414.20 228.70 L 413.00 234.10 L 412.30 239.70 L 412.10 245.40 L 412.40 251.20 L 413.30 257.00 L 414.70 262.80 L 416.60 268.50 L 419.10 273.90 L 422.20 279.30 L 425.80 284.30 L 429.80 288.90 L 434.50 293.30 L 442.20 299.00 L 451.20 303.70 L 456.00 305.50 L 461.10 307.00 L 466.50 308.10 L 472.30 308.90 L 473.80 343.40 L 474.50 369.50 L 474.60 407.40 L 475.10 412.50 L 476.00 414.30 L 477.10 414.80 L 478.70 415.00 L 550.10 415.00 Z M 484.50 409.30 L 480.50 408.80 L 476.60 257.50 L 504.30 256.90 L 566.80 256.50 L 578.40 256.60 L 579.90 409.00 L 484.50 409.30 Z" fill="#000000" fill-rule="nonzero" node-id="36" stroke="none" target-height="234.3" target-width="173.4" target-x="412.1" target-y="180.7"></path><path d="M 1023.30 251.80 L 1023.00 249.60 L 1022.40 248.50 L 1020.80 247.80 L 1019.40 247.70 L 873.90 249.30 L 872.40 249.40 L 870.80 250.30 L 870.20 251.40 L 870.00 253.20 L 872.30 316.30 L 873.10 318.30 L 875.00 319.00 L 889.90 319.10 L 885.70 334.00 L 884.80 338.20 L 885.00 339.90 L 885.70 341.60 L 886.50 342.20 L 887.90 342.50 L 888.90 342.00 L 891.60 339.40 L 909.60 320.00 L 911.20 319.50 L 924.70 318.90 L 1020.40 318.80 L 1022.50 318.70 L 1023.70 318.20 L 1024.60 316.80 L 1024.80 315.20 L 1023.30 251.80 Z M 1017.70 313.10 L 908.10 313.40 L 906.50 314.50 L 905.10 317.10 L 892.40 330.40 L 896.20 315.90 L 896.10 314.80 L 895.50 313.90 L 894.50 313.30 L 893.50 313.00 L 889.70 313.30 L 877.30 313.30 L 875.20 255.10 L 1018.10 253.40 L 1019.70 313.10 L 1017.70 313.10 Z" fill="#000000" fill-rule="nonzero" node-id="38" stroke="none" target-height="94.8" target-width="154.80005" target-x="870" target-y="247.7"></path><path d="M 341.10 315.80 L 335.00 316.10 L 328.80 316.80 L 322.50 318.00 L 316.40 319.70 L 310.30 321.80 L 304.40 324.20 L 298.60 327.10 L 287.90 333.60 L 283.00 337.30 L 278.50 341.20 L 274.50 345.30 L 270.90 349.70 L 267.90 354.10 L 265.50 358.60 L 263.10 365.70 L 262.50 369.20 L 262.20 372.70 L 262.40 375.80 L 263.70 381.10 L 265.00 384.10 L 267.10 387.40 L 268.90 389.50 L 273.90 393.50 L 276.80 395.20 L 280.50 396.70 L 284.90 398.10 L 289.40 399.10 L 294.90 399.80 L 301.40 400.10 L 309.60 398.90 L 317.20 397.50 L 324.00 395.70 L 330.30 393.70 L 336.60 391.20 L 347.30 385.70 L 356.40 379.50 L 363.70 372.80 L 366.70 369.40 L 370.40 364.50 L 373.20 359.90 L 375.20 355.50 L 376.80 350.90 L 377.70 346.80 L 378.00 343.20 L 377.60 339.00 L 376.70 335.20 L 375.20 331.80 L 373.10 328.60 L 370.60 325.80 L 367.60 323.30 L 364.10 321.10 L 360.10 319.20 L 355.90 317.70 L 351.40 316.70 L 346.50 316.00 L 341.10 315.80 Z M 299.60 394.50 L 293.60 394.10 L 288.60 393.30 L 284.60 392.30 L 280.70 390.90 L 277.70 389.30 L 273.10 385.60 L 270.30 381.90 L 268.90 378.90 L 267.90 374.40 L 268.20 369.30 L 268.90 365.90 L 270.20 362.30 L 272.00 358.60 L 274.90 354.00 L 278.60 349.40 L 283.00 344.80 L 287.90 340.60 L 293.40 336.70 L 299.40 333.00 L 305.80 329.70 L 312.40 326.90 L 319.40 324.60 L 330.30 322.30 L 341.40 321.50 L 349.20 322.10 L 353.30 323.00 L 357.40 324.30 L 361.30 326.10 L 364.90 328.30 L 367.00 330.10 L 370.30 334.50 L 371.40 337.00 L 372.10 339.80 L 372.20 345.30 L 370.70 351.10 L 369.50 354.20 L 365.60 361.20 L 360.10 368.20 L 352.50 375.30 L 347.90 378.70 L 342.70 382.00 L 337.20 384.80 L 331.00 387.50 L 323.90 389.90 L 316.70 391.90 L 308.70 393.40 L 299.60 394.50 Z" fill="#000000" fill-rule="nonzero" node-id="40" stroke="none" target-height="84.30002" target-width="115.79999" target-x="262.2" target-y="315.8"></path><path d="M 339.10 408.70 L 337.00 433.00 L 336.50 435.10 L 335.90 436.20 L 335.10 436.80 L 334.20 437.00 L 333.10 436.80 L 332.40 436.20 L 331.70 434.60 L 331.50 433.30 L 333.60 405.60 L 334.10 402.90 L 334.80 401.70 L 335.70 400.90 L 337.00 400.70 L 338.10 401.00 L 340.00 402.20 L 344.60 406.10 L 354.80 416.20 L 359.80 422.40 L 359.60 423.50 L 358.00 425.00 L 356.90 425.30 L 356.00 425.00 L 350.60 420.30 L 342.20 411.60 L 339.10 408.70 Z" fill="#000000" fill-rule="nonzero" node-id="42" stroke="none" target-height="36.299988" target-width="28.299988" target-x="331.5" target-y="400.7"></path><path d="M 801.60 400.70 L 801.20 398.40 L 794.60 397.60 L 793.60 397.00 L 793.10 396.10 L 792.30 366.90 L 792.60 365.20 L 793.20 364.20 L 794.10 363.50 L 795.10 363.30 L 796.10 363.50 L 796.90 364.00 L 797.40 364.80 L 797.90 366.60 L 798.60 392.80 L 804.40 393.40 L 805.40 394.00 L 806.10 394.90 L 806.60 396.40 L 807.30 401.30 L 807.50 406.20 L 807.30 414.50 L 806.60 419.00 L 805.60 420.80 L 804.10 421.20 L 803.00 420.90 L 801.60 419.50 L 801.30 418.50 L 801.60 400.70 Z" fill="#000000" fill-rule="nonzero" node-id="44" stroke="none" target-height="57.900024" target-width="15.200012" target-x="792.3" target-y="363.3"></path><path d="M 720.80 423.60 L 721.70 423.80 L 722.90 424.80 L 723.70 427.50 L 722.10 432.40 L 720.40 436.40 L 718.50 439.50 L 716.30 442.40 L 712.20 446.20 L 709.00 448.10 L 706.50 449.20 L 703.30 449.80 L 702.30 449.60 L 701.30 449.00 L 700.70 448.10 L 700.50 447.00 L 700.80 446.00 L 702.20 444.50 L 705.40 443.60 L 707.90 442.30 L 712.50 438.20 L 714.50 435.60 L 716.10 432.80 L 717.30 429.90 L 718.30 425.40 L 718.80 424.40 L 719.60 423.80 L 720.80 423.60 Z" fill="#000000" fill-rule="nonzero" node-id="46" stroke="none" target-height="26.199982" target-width="23.200012" target-x="700.5" target-y="423.6"></path><path d="M 670.10 361.60 L 671.90 362.00 L 673.40 363.20 L 673.60 364.50 L 673.00 366.30 L 672.30 366.90 L 668.70 367.70 L 664.70 369.30 L 662.40 371.10 L 656.70 377.20 L 655.50 377.50 L 654.50 377.30 L 653.10 375.90 L 652.90 374.20 L 654.20 371.30 L 655.80 369.30 L 657.80 367.30 L 663.30 363.90 L 670.00 361.50 Z" fill="#000000" fill-rule="nonzero" node-id="48" stroke="none" target-height="16" target-width="20.699951" target-x="652.9" target-y="361.5"></path><path d="M 721.70 401.10 L 720.30 403.40 L 713.20 408.80 L 712.10 409.10 L 710.20 408.20 L 709.40 406.30 L 709.70 405.00 L 710.60 404.00 L 715.40 400.10 L 717.60 398.60 L 718.70 398.40 L 719.70 398.60 L 721.70 401.10 Z" fill="#000000" fill-rule="nonzero" node-id="50" stroke="none" target-height="10.700012" target-width="12.299988" target-x="709.4" target-y="398.4"></path><path d="M 671.50 405.30 L 671.30 406.60 L 670.80 407.60 L 669.90 408.20 L 668.80 408.50 L 667.60 408.30 L 662.40 403.70 L 660.80 401.80 L 660.50 400.60 L 660.70 399.60 L 661.30 398.70 L 663.20 397.90 L 664.40 398.10 L 669.60 402.70 L 671.50 405.30 Z" fill="#000000" fill-rule="nonzero" node-id="52" stroke="none" target-height="10.600006" target-width="11" target-x="660.5" target-y="397.9"></path><path d="M 681.50 393.20 L 681.30 397.20 L 680.50 398.70 L 679.80 399.20 L 678.60 399.40 L 677.40 399.10 L 676.50 398.50 L 676.10 397.40 L 675.70 395.40 L 675.70 390.10 L 676.00 389.10 L 677.40 387.70 L 679.50 387.70 L 680.70 388.60 L 681.10 389.70 L 681.50 393.20 Z" fill="#000000" fill-rule="nonzero" node-id="54" stroke="none" target-height="11.699982" target-width="5.799988" target-x="675.7" target-y="387.7"></path><path d="M 706.70 392.40 L 706.60 394.80 L 705.90 397.20 L 704.70 398.10 L 703.70 398.30 L 701.80 397.60 L 701.00 396.10 L 701.00 390.50 L 701.80 388.00 L 702.60 387.30 L 703.90 387.00 L 705.40 387.40 L 706.50 388.90 L 706.70 392.40 Z" fill="#000000" fill-rule="nonzero" node-id="56" stroke="none" target-height="11.299988" target-width="5.700012" target-x="701" target-y="387"></path><path d="M 690.50 629.50 L 692.70 626.80 L 694.00 625.70 L 695.60 624.90 L 697.40 624.50 L 699.00 624.70 L 701.30 625.70 L 702.40 626.80 L 703.50 628.40 L 704.20 630.40 L 704.40 633.40 L 703.60 638.00 L 701.50 644.30 L 698.70 650.60 L 697.00 653.50 L 695.50 655.60 L 693.40 657.40 L 692.50 657.60 L 691.00 657.20 L 689.00 655.90 L 684.80 651.70 L 680.70 645.90 L 677.60 639.60 L 676.70 636.50 L 676.40 633.90 L 677.10 630.00 L 677.90 628.20 L 679.10 626.80 L 681.10 625.70 L 684.00 625.70 L 685.60 626.20 L 688.50 627.90 L 690.50 629.50 Z" fill="#000000" fill-rule="nonzero" node-id="58" stroke="none" target-height="33.099976" target-width="28" target-x="676.4" target-y="624.5"></path><path d="M 511.70 378.80 L 511.90 381.40 L 518.60 377.60 L 528.10 370.40 L 539.50 360.00 L 562.20 337.30 L 565.00 335.00 L 566.10 334.50 L 567.10 334.70 L 568.50 336.10 L 568.80 337.10 L 566.30 340.80 L 559.60 348.20 L 550.20 357.80 L 539.30 368.10 L 528.50 377.30 L 523.30 381.20 L 516.00 385.60 L 512.10 386.60 L 510.30 386.40 L 509.00 385.90 L 508.00 385.00 L 507.00 383.40 L 506.40 381.60 L 506.20 378.40 L 506.40 374.90 L 507.90 366.50 L 509.90 359.80 L 515.40 344.70 L 534.30 300.70 L 537.30 291.80 L 538.00 286.90 L 537.80 284.90 L 537.10 283.70 L 536.10 283.70 L 532.30 285.40 L 526.40 289.60 L 520.40 295.90 L 515.30 303.30 L 512.10 309.30 L 510.20 313.70 L 507.60 322.60 L 506.70 324.50 L 505.20 324.90 L 504.20 324.80 L 503.40 324.20 L 502.90 323.30 L 502.70 322.30 L 503.00 318.80 L 503.80 315.00 L 505.10 310.90 L 508.80 303.10 L 511.20 299.10 L 515.30 293.50 L 519.60 288.60 L 525.70 283.00 L 528.60 281.00 L 531.70 279.30 L 534.40 278.40 L 536.90 278.00 L 539.30 278.50 L 541.60 280.10 L 542.60 281.60 L 543.30 283.50 L 543.60 286.30 L 543.30 289.50 L 541.20 298.00 L 538.70 305.10 L 523.60 339.60 L 516.60 357.10 L 514.00 365.00 L 512.70 370.20 L 511.90 374.80 L 511.70 378.80 Z" fill="#000000" fill-rule="nonzero" node-id="60" stroke="none" target-height="108.600006" target-width="66.099976" target-x="502.7" target-y="278"></path><path d="M 918.60 286.50 L 918.70 290.10 L 924.00 287.70 L 927.90 285.40 L 931.30 282.90 L 933.70 280.60 L 940.00 273.30 L 941.40 272.40 L 943.00 272.10 L 944.30 272.40 L 945.40 273.10 L 946.10 274.20 L 946.40 275.50 L 946.10 277.10 L 945.10 278.70 L 940.40 283.60 L 938.20 286.90 L 937.60 290.00 L 937.80 290.90 L 938.40 291.50 L 939.40 291.80 L 943.60 291.70 L 949.00 290.40 L 967.00 282.60 L 968.80 282.30 L 972.10 283.10 L 984.10 280.10 L 987.70 279.60 L 989.80 279.90 L 991.20 280.60 L 993.00 283.00 L 994.10 285.90 L 998.40 285.80 L 999.50 286.50 L 1000.20 287.50 L 1000.50 288.80 L 999.90 290.60 L 998.10 291.90 L 994.10 292.40 L 992.30 292.20 L 989.90 291.00 L 988.70 289.60 L 987.30 286.20 L 973.40 289.50 L 971.50 289.70 L 968.50 289.20 L 967.20 289.50 L 958.00 293.80 L 949.90 296.90 L 945.60 297.90 L 941.50 298.30 L 938.60 298.10 L 935.30 297.20 L 933.50 296.00 L 932.50 294.60 L 930.90 291.30 L 924.70 294.60 L 920.90 295.90 L 919.10 296.20 L 916.70 295.90 L 915.10 295.10 L 913.90 294.00 L 913.10 292.70 L 912.30 289.90 L 912.20 280.60 L 906.90 282.30 L 903.40 283.90 L 900.50 285.80 L 897.50 289.10 L 895.70 292.70 L 895.00 293.30 L 893.70 293.50 L 892.70 293.30 L 891.70 292.70 L 891.10 291.80 L 890.90 290.80 L 891.10 288.80 L 891.90 286.90 L 893.10 284.80 L 895.50 282.10 L 898.60 279.60 L 902.10 277.50 L 905.70 275.80 L 908.10 275.00 L 912.50 274.40 L 914.00 274.50 L 916.10 275.40 L 917.10 276.20 L 917.90 277.60 L 918.50 279.30 L 918.70 281.90 L 918.60 286.50 Z" fill="#000000" fill-rule="nonzero" node-id="62" stroke="none" target-height="26.199982" target-width="109.599976" target-x="890.9" target-y="272.1"></path><path d="M 317.70 363.00 L 318.00 365.50 L 317.70 367.60 L 317.00 369.90 L 315.90 372.00 L 314.40 373.70 L 311.80 375.20 L 310.20 375.40 L 308.40 375.10 L 306.80 374.40 L 305.40 373.30 L 302.80 369.30 L 302.10 367.00 L 301.00 361.60 L 299.30 359.60 L 299.30 357.70 L 300.50 356.10 L 302.00 355.30 L 304.10 355.00 L 306.00 355.20 L 311.90 357.20 L 315.90 359.40 L 315.80 353.20 L 316.60 351.10 L 317.60 350.10 L 318.60 349.60 L 320.40 349.30 L 323.10 349.70 L 325.90 350.60 L 327.60 351.60 L 330.30 354.20 L 331.30 355.80 L 331.90 357.50 L 332.10 359.40 L 331.90 361.20 L 331.30 363.00 L 330.30 364.70 L 328.90 366.00 L 327.30 366.90 L 325.30 367.30 L 322.10 366.50 L 317.70 363.00 Z M 306.70 361.40 L 306.90 363.30 L 307.90 366.90 L 309.40 369.20 L 310.20 369.40 L 311.40 368.70 L 312.00 367.20 L 312.00 364.60 L 310.90 363.00 L 309.70 362.20 L 306.70 361.40 Z M 320.80 355.10 L 321.20 357.30 L 321.80 358.90 L 323.60 360.90 L 325.00 361.50 L 326.10 360.80 L 326.10 358.70 L 324.90 356.70 L 322.50 355.50 L 320.80 355.10 Z" fill="#000000" fill-rule="nonzero" node-id="64" stroke="none" target-height="26.100006" target-width="32.80002" target-x="299.3" target-y="349.3"></path><path d="M 339.70 348.10 L 341.00 344.30 L 341.10 337.00 L 342.30 335.60 L 343.60 335.20 L 344.60 335.40 L 346.30 336.80 L 347.30 338.40 L 350.70 345.20 L 352.40 347.80 L 355.10 350.50 L 357.60 352.10 L 358.00 352.60 L 358.10 353.60 L 357.80 354.80 L 357.20 355.80 L 356.20 356.50 L 355.00 356.80 L 353.50 356.50 L 350.60 354.30 L 346.00 348.70 L 345.00 351.00 L 343.80 352.80 L 342.70 353.70 L 341.30 354.20 L 339.40 354.50 L 341.70 360.00 L 341.80 361.20 L 341.10 363.00 L 340.30 363.60 L 338.40 363.60 L 337.00 362.60 L 336.50 361.80 L 333.40 354.10 L 330.70 346.10 L 331.20 344.10 L 332.30 342.10 L 333.20 341.40 L 335.00 341.30 L 336.20 342.40 L 339.70 348.10 Z" fill="#000000" fill-rule="nonzero" node-id="66" stroke="none" target-height="28.399994" target-width="27.399994" target-x="330.7" target-y="335.2"></path><path d="M 300.20 377.80 L 300.00 379.00 L 299.50 379.90 L 298.70 380.50 L 297.70 380.80 L 295.60 379.90 L 293.10 376.80 L 291.60 374.10 L 289.30 368.50 L 287.10 361.60 L 287.30 360.50 L 287.90 359.60 L 288.70 359.00 L 289.80 358.70 L 290.90 359.00 L 291.70 359.80 L 294.00 366.30 L 296.60 371.50 L 300.20 377.80 Z" fill="#000000" fill-rule="nonzero" node-id="68" stroke="none" target-height="22.099976" target-width="13.100006" target-x="287.1" target-y="358.7"></path><path d="M 401.80 422.40 L 401.40 417.90 L 401.70 415.60 L 402.20 414.30 L 403.10 413.10 L 405.00 411.90 L 421.20 408.90 L 430.20 408.50 L 438.80 408.70 L 441.00 409.10 L 444.90 411.00 L 446.80 412.50 L 451.30 417.80 L 453.30 421.20 L 456.00 426.60 L 460.30 438.20 L 465.00 455.90 L 467.30 457.70 L 487.80 468.30 L 492.20 471.20 L 493.90 473.40 L 494.50 475.20 L 494.70 477.60 L 494.40 479.80 L 493.80 481.80 L 492.80 483.40 L 490.90 485.40 L 488.80 486.80 L 486.40 487.70 L 484.60 488.00 L 483.00 487.70 L 471.10 480.70 L 473.80 491.70 L 476.10 492.30 L 478.80 495.10 L 492.00 512.40 L 505.70 529.90 L 523.20 517.70 L 539.20 507.80 L 548.00 503.20 L 554.10 500.40 L 566.50 495.90 L 572.90 494.30 L 579.20 493.40 L 585.40 493.00 L 589.60 493.20 L 596.80 494.40 L 601.80 496.00 L 606.20 497.90 L 614.00 502.60 L 620.80 507.70 L 620.10 451.30 L 614.60 449.00 L 612.40 446.70 L 611.60 445.20 L 610.20 440.00 L 609.60 434.90 L 609.40 427.00 L 609.60 420.50 L 611.10 409.40 L 613.00 401.90 L 614.90 395.80 L 620.20 382.60 L 620.50 380.70 L 620.70 367.30 L 621.60 359.10 L 623.10 351.10 L 625.10 343.20 L 627.80 335.50 L 631.00 328.10 L 634.70 320.90 L 639.00 313.90 L 643.70 307.30 L 649.00 301.10 L 654.80 295.30 L 664.60 286.90 L 674.70 280.20 L 672.20 275.10 L 669.90 271.70 L 664.30 264.80 L 660.40 260.90 L 651.40 253.40 L 645.80 249.50 L 640.10 246.00 L 633.50 242.60 L 626.20 239.40 L 618.70 236.60 L 610.40 234.10 L 601.20 232.00 L 587.00 229.90 L 570.70 229.20 L 560.10 229.60 L 549.50 230.70 L 539.00 232.30 L 540.30 241.00 L 540.30 251.00 L 573.30 250.80 L 574.50 250.10 L 575.80 249.90 L 578.30 250.70 L 580.80 250.80 L 581.80 251.50 L 582.50 252.90 L 583.30 255.80 L 584.30 265.90 L 584.70 273.30 L 585.40 312.90 L 585.60 412.50 L 585.10 413.60 L 582.70 414.30 L 577.00 414.80 L 566.60 415.00 L 478.70 415.00 L 477.10 414.80 L 476.00 414.30 L 475.10 412.50 L 474.60 407.40 L 474.50 369.50 L 473.80 343.40 L 472.30 308.90 L 466.30 308.10 L 460.70 306.90 L 455.40 305.30 L 450.50 303.40 L 441.30 298.40 L 437.20 295.50 L 433.40 292.40 L 427.80 303.30 L 425.10 309.70 L 421.70 319.70 L 415.40 341.60 L 406.60 376.10 L 403.40 387.30 L 397.50 404.70 L 391.80 417.30 L 396.70 420.10 L 401.80 422.40 Z" fill="#5fc690" fill-rule="nonzero" node-id="70" stroke="none" target-height="300.7" target-width="282.90002" target-x="391.8" target-y="229.2"></path><path d="M 431.10 467.40 L 432.00 467.10 L 432.90 466.40 L 433.80 465.10 L 436.10 459.40 L 417.30 448.00 L 407.70 442.80 L 413.00 451.60 L 415.50 455.20 L 421.60 462.20 L 424.70 464.90 L 427.00 466.30 L 429.10 467.10 L 431.10 467.40 Z" fill="#5fc690" fill-rule="nonzero" node-id="72" stroke="none" target-height="24.600006" target-width="28.399994" target-x="407.7" target-y="442.8"></path><path d="M 436.50 594.50 L 417.00 521.50 L 417.10 520.60 L 418.50 519.20 L 431.90 512.30 L 426.00 507.20 L 420.70 502.10 L 416.00 497.00 L 411.70 491.60 L 404.70 481.20 L 399.20 470.90 L 394.60 459.30 L 392.80 453.50 L 390.70 444.30 L 390.10 439.90 L 390.30 437.90 L 390.70 436.00 L 391.70 434.40 L 393.30 432.90 L 386.00 427.80 L 378.40 440.10 L 370.30 452.20 L 361.90 463.90 L 371.30 486.60 L 385.00 516.80 L 403.90 555.70 L 429.00 604.30 L 435.40 596.20 L 436.50 594.50 Z" fill="#5fc690" fill-rule="nonzero" node-id="74" stroke="none" target-height="176.5" target-width="74.600006" target-x="361.9" target-y="427.8"></path><path d="M 438.60 601.30 L 431.90 610.10 L 437.20 623.70 L 439.80 634.00 L 440.60 642.90 L 440.30 647.50 L 439.50 651.70 L 438.30 655.50 L 436.70 659.20 L 434.70 662.50 L 432.50 665.40 L 430.00 668.10 L 424.80 671.90 L 422.00 673.20 L 419.30 674.00 L 414.90 674.10 L 411.20 672.70 L 409.70 671.50 L 408.20 669.90 L 406.90 667.70 L 406.00 665.40 L 405.40 662.40 L 405.20 658.80 L 405.90 651.20 L 406.70 647.30 L 408.40 641.60 L 413.00 630.40 L 418.40 620.50 L 425.30 609.60 L 401.00 562.10 L 382.20 523.40 L 368.00 492.80 L 357.80 469.40 L 341.30 491.70 L 331.20 507.00 L 323.90 520.20 L 320.60 527.10 L 317.90 534.10 L 315.50 541.20 L 314.10 546.70 L 313.10 552.10 L 312.30 563.00 L 312.50 569.70 L 313.20 576.30 L 314.40 582.80 L 316.00 589.20 L 318.00 595.50 L 321.10 603.10 L 324.80 610.70 L 329.10 618.00 L 334.10 625.20 L 339.50 632.10 L 345.40 638.70 L 351.90 645.20 L 359.00 651.50 L 366.30 657.30 L 374.10 662.90 L 382.30 668.20 L 391.00 673.20 L 399.80 677.90 L 409.00 682.20 L 418.60 686.10 L 428.50 689.70 L 438.50 692.90 L 448.80 695.70 L 459.20 698.10 L 470.00 700.00 L 464.30 684.80 L 453.50 652.40 L 438.60 601.30 Z" fill="#5fc690" fill-rule="nonzero" node-id="76" stroke="none" target-height="230.6" target-width="157.70001" target-x="312.3" target-y="469.4"></path><path d="M 858.90 399.30 L 859.70 413.50 L 860.90 447.80 L 861.60 514.50 L 885.30 535.10 L 894.70 543.70 L 915.40 564.20 L 929.90 580.20 L 937.50 589.10 L 952.10 607.80 L 959.30 617.90 L 964.70 611.10 L 969.30 604.60 L 973.20 598.60 L 979.60 586.40 L 981.90 581.00 L 985.40 570.40 L 987.80 559.00 L 988.50 553.40 L 988.90 544.20 L 988.50 535.10 L 987.60 526.40 L 986.00 518.10 L 983.90 510.00 L 981.20 502.10 L 978.00 494.40 L 974.40 487.00 L 970.40 479.90 L 965.90 473.10 L 961.20 466.50 L 956.20 460.20 L 950.80 454.20 L 943.30 446.60 L 935.50 439.50 L 927.50 433.10 L 919.20 427.00 L 911.00 421.50 L 902.80 416.70 L 894.50 412.20 L 886.60 408.50 L 879.20 405.40 L 871.60 402.60 L 864.80 400.70 L 858.90 399.30 Z" fill="#5fc690" fill-rule="nonzero" node-id="78" stroke="none" target-height="218.60004" target-width="130" target-x="858.9" target-y="399.3"></path><path d="M 693.10 679.60 L 693.50 677.90 L 695.00 676.20 L 696.30 675.70 L 698.30 675.50 L 703.40 676.20 L 710.80 678.00 L 705.50 673.30 L 701.20 668.80 L 697.70 663.70 L 696.90 661.80 L 696.20 658.10 L 696.80 655.70 L 698.40 654.10 L 701.00 653.50 L 706.70 654.70 L 728.80 662.80 L 722.80 656.20 L 719.90 652.40 L 717.50 648.30 L 716.30 645.30 L 715.50 642.30 L 715.20 639.10 L 715.50 636.50 L 716.10 634.70 L 717.10 633.30 L 718.30 632.50 L 720.80 631.80 L 723.20 632.10 L 726.00 633.10 L 729.50 634.90 L 757.40 653.00 L 750.20 579.70 L 632.40 587.60 L 636.70 707.20 L 725.50 704.70 L 725.60 704.20 L 715.80 700.10 L 708.20 696.20 L 700.80 691.30 L 697.70 688.60 L 695.30 685.70 L 694.10 683.70 L 693.40 681.70 L 693.10 679.60 Z M 676.40 633.90 L 677.10 630.00 L 677.90 628.20 L 680.00 626.10 L 682.40 625.50 L 685.60 626.20 L 688.50 627.90 L 690.50 629.50 L 692.70 626.80 L 694.00 625.70 L 695.60 624.90 L 697.40 624.50 L 699.00 624.70 L 701.30 625.70 L 702.40 626.80 L 703.50 628.40 L 704.20 630.40 L 704.40 633.40 L 703.60 638.00 L 700.20 647.50 L 697.00 653.50 L 695.50 655.60 L 694.30 656.70 L 692.50 657.60 L 691.00 657.20 L 689.00 655.90 L 684.80 651.70 L 682.70 648.90 L 678.90 642.70 L 677.60 639.60 L 676.70 636.50 L 676.40 633.90 Z" fill="#5fc690" fill-rule="nonzero" node-id="80" stroke="none" target-height="127.5" target-width="125" target-x="632.4" target-y="579.7"></path></svg>