<?xml version="1.0" standalone="no"?><!DOCTYPE svg PUBLIC "-//W3C//DTD SVG 1.1//EN" "http://www.w3.org/Graphics/SVG/1.1/DTD/svg11.dtd"><svg t="1744559423913" class="icon" viewBox="0 0 1024 1024" version="1.1" xmlns="http://www.w3.org/2000/svg" p-id="14931" xmlns:xlink="http://www.w3.org/1999/xlink" width="256" height="256"><path d="M453.818182 700.509091c0-6.981818 0-13.963636 1.163636-20.945455H272.290909c-12.8 0-23.272727-10.472727-23.272727-23.272727s10.472727-23.272727 23.272727-23.272727h190.836364c9.309091-37.236364 26.763636-70.981818 51.2-100.072727H272.290909c-12.8 0-23.272727-10.472727-23.272727-23.272728s10.472727-23.272727 23.272727-23.272727h289.745455c68.654545-51.2 157.090909-66.327273 238.545454-40.727273v-244.363636c0-52.363636-43.054545-95.418182-95.418182-95.418182H186.181818c-52.363636 0-95.418182 43.054545-95.418182 95.418182v623.709091c0 52.363636 43.054545 95.418182 95.418182 95.418182h382.836364C496.872727 870.4 453.818182 787.781818 453.818182 700.509091zM272.290909 346.763636h347.927273c12.8 0 23.272727 10.472727 23.272727 23.272728s-10.472727 23.272727-23.272727 23.272727H272.290909c-12.8 0-23.272727-10.472727-23.272727-23.272727s10.472727-23.272727 23.272727-23.272728z" fill="#5a96db" p-id="14932"></path><path d="M721.454545 473.6c-123.345455 0-223.418182 100.072727-223.418181 223.418182S598.109091 920.436364 721.454545 920.436364s223.418182-100.072727 223.418182-223.418182S844.8 473.6 721.454545 473.6z m115.2 162.909091L705.163636 769.163636c-4.654545 4.654545-10.472727 6.981818-16.290909 6.981819s-11.636364-2.327273-16.290909-6.981819V768h-1.163636l-76.8-76.8c-9.309091-9.309091-9.309091-23.272727 0-32.581818 9.309091-9.309091 23.272727-9.309091 32.581818 0l60.509091 60.509091 115.2-115.2c9.309091-9.309091 23.272727-9.309091 32.581818 0s10.472727 24.436364 1.163636 32.581818z" fill="#5a96db" p-id="14933"></path></svg>