<?xml version="1.0" standalone="no"?><!DOCTYPE svg PUBLIC "-//W3C//DTD SVG 1.1//EN" "http://www.w3.org/Graphics/SVG/1.1/DTD/svg11.dtd"><svg t="1744638155696" class="icon" viewBox="0 0 1024 1024" version="1.1" xmlns="http://www.w3.org/2000/svg" p-id="1948" xmlns:xlink="http://www.w3.org/1999/xlink" width="256" height="256"><path d="M357.2 658.4h316.4V897H357.2z" fill="#E74B26" p-id="1949"></path><path d="M357.2 658.4h257.4V926H357.2z" fill="#FB6F22" p-id="1950"></path><path d="M831 871.1v51.8c0 1.7-1.4 3-3 3H202.8c-1.7 0-3-1.4-3-3v-51.8c0-1.7 1.4-3 3-3H828c1.6 0 3 1.3 3 3z" fill="#100515" p-id="1951"></path><path d="M357.2 658.4h257.4v133.8H357.2z" fill="#FE5E21" p-id="1952"></path><path d="M937 698.1H93.7c-7.3 0-13.3-5.9-13.3-13.3V111.5c0-7.3 5.9-13.3 13.3-13.3H937c7.3 0 13.3 5.9 13.3 13.3v573.4c0 7.3-5.9 13.2-13.3 13.2z" fill="#263FEC" p-id="1953"></path><path d="M832.2 578.8V217.6c0-65.9-53.4-119.3-119.3-119.3H199.8c-65.9 0-119.3 53.4-119.3 119.3v361.3c0 65.9 53.4 119.3 119.3 119.3h513.1c65.9-0.1 119.3-53.5 119.3-119.4z" fill="#3FABFB" p-id="1954"></path><path d="M832.2 269v-51.5c0-65.9-53.4-119.3-119.3-119.3H199.8c-65.9 0-119.3 53.4-119.3 119.3V269h751.7z" fill="#2784FA" p-id="1955"></path><path d="M676.9 394.7L390.5 229.3c-2.7-1.6-6.1 0.4-6.1 3.5v330.8c0 3.1 3.4 5.1 6.1 3.5l286.4-165.4c2.8-1.6 2.8-5.5 0-7z" fill="#C0E3F4" p-id="1956"></path></svg>