<?xml version="1.0" standalone="no"?><!DOCTYPE svg PUBLIC "-//W3C//DTD SVG 1.1//EN" "http://www.w3.org/Graphics/SVG/1.1/DTD/svg11.dtd"><svg height="1035" node-id="1" sillyvg="true" template-height="1035" template-width="906" version="1.1" viewBox="0 0 906 1035" width="906" xmlns="http://www.w3.org/2000/svg" xmlns:xlink="http://www.w3.org/1999/xlink"><defs node-id="58"></defs><g node-id="164"><path d="M 731.90 86.70 L 744.20 94.60 L 756.20 103.00 L 768.10 111.80 L 779.70 121.10 L 791.00 130.80 L 801.90 140.90 L 812.50 151.30 L 822.70 162.10 L 832.50 173.30 L 841.70 184.80 L 850.50 196.50 L 858.70 208.60 L 865.00 218.50 L 870.80 228.50 L 876.20 238.70 L 881.20 249.00 L 885.80 259.40 L 890.00 270.10 L 893.60 280.80 L 896.80 291.70 L 899.50 302.60 L 901.80 313.70 L 903.50 324.80 L 904.70 336.00 L 905.40 347.30 L 905.60 358.70 L 905.40 370.30 L 904.50 384.70 L 902.90 399.20 L 900.70 413.90 L 897.90 428.80 L 894.50 443.50 L 890.70 458.40 L 886.30 473.40 L 881.30 488.60 L 874.20 508.70 L 866.30 528.90 L 857.70 549.30 L 839.10 589.90 L 818.80 630.70 L 808.10 651.00 L 796.90 671.20 L 785.40 691.20 L 773.20 711.00 L 760.50 730.50 L 750.70 744.90 L 740.40 759.10 L 729.70 773.00 L 718.60 786.80 L 707.20 800.10 L 695.30 813.20 L 682.80 825.90 L 669.90 838.40 L 659.30 848.00 L 648.30 857.30 L 637.00 866.40 L 625.20 875.30 L 613.10 883.90 L 600.20 892.50 L 586.90 900.70 L 573.20 908.60 L 559.10 916.10 L 544.80 923.20 L 530.30 929.80 L 515.50 936.00 L 500.60 941.70 L 485.40 946.90 L 470.20 951.50 L 454.90 955.60 L 439.50 959.20 L 424.00 962.20 L 408.60 964.50 L 393.30 966.20 L 378.00 967.20 L 365.70 967.60 L 353.60 967.50 L 341.60 966.90 L 329.80 965.90 L 318.00 964.40 L 306.30 962.40 L 294.80 959.90 L 283.50 956.90 L 272.50 953.30 L 261.50 949.30 L 250.90 944.70 L 240.50 939.60 L 230.20 934.00 L 220.20 927.90 L 210.40 921.20 L 200.90 914.20 L 191.50 906.80 L 182.40 898.90 L 173.50 890.60 L 164.70 881.90 L 154.30 870.60 L 144.10 858.80 L 134.20 846.50 L 124.70 833.60 L 115.50 820.50 L 106.80 807.00 L 98.30 793.20 L 90.20 779.00 L 82.40 764.60 L 68.00 735.20 L 61.30 720.20 L 52.90 700.10 L 45.10 680.00 L 38.00 659.90 L 31.50 639.50 L 25.60 619.40 L 20.30 599.50 L 15.70 579.70 L 11.80 560.20 L 8.40 540.80 L 5.60 521.10 L 3.30 501.60 L 1.70 482.30 L 0.60 463.10 L 0.00 444.00 L 0.10 425.10 L 0.70 406.10 L 1.80 387.20 L 3.40 368.50 L 5.60 349.80 L 8.30 331.30 L 11.50 312.90 L 14.80 296.40 L 18.50 280.00 L 22.60 263.90 L 27.10 247.90 L 32.10 232.00 L 37.50 216.50 L 43.30 201.30 L 49.50 186.50 L 56.30 171.80 L 63.40 157.70 L 70.90 144.10 L 78.90 130.90 L 85.70 120.60 L 92.70 110.70 L 100.00 101.20 L 107.60 92.20 L 115.40 83.50 L 123.70 75.10 L 132.20 67.20 L 141.00 59.80 L 150.00 52.90 L 159.40 46.40 L 169.50 40.20 L 179.90 34.50 L 190.60 29.40 L 201.60 24.70 L 212.80 20.50 L 224.30 16.70 L 236.00 13.40 L 248.00 10.50 L 260.10 8.00 L 284.80 4.10 L 297.50 2.70 L 314.40 1.30 L 331.50 0.40 L 348.80 0.00 L 383.60 0.50 L 401.00 1.40 L 427.10 3.20 L 452.90 5.50 L 478.40 8.30 L 503.50 11.50 L 528.10 15.20 L 546.40 18.50 L 564.50 22.10 L 582.30 26.20 L 599.80 30.70 L 617.30 35.60 L 634.40 41.20 L 651.30 47.20 L 667.90 53.80 L 681.00 59.50 L 694.00 65.60 L 706.80 72.20 L 719.40 79.20 L 731.90 86.70 Z" fill="#f0f0f0" fill-rule="nonzero" group-id="1" node-id="62" stroke="none" target-height="967.6" target-width="905.6" target-x="0" target-y="0"></path><path d="M 780.10 1035.10 L 767.30 1008.70 L 755.90 984.30 L 728.60 924.20 L 714.70 892.90 L 702.10 863.70 L 691.80 838.70 L 684.80 820.30 L 682.80 813.60 L 682.30 810.60 L 685.40 791.10 L 693.20 749.30 L 703.70 700.30 L 709.30 677.80 L 712.10 667.70 L 717.40 651.70 L 719.60 646.50 L 721.40 643.50 L 722.80 642.00 L 723.90 641.50 L 728.00 640.70 L 739.00 637.40 L 757.80 630.60 L 777.10 623.20 L 781.90 653.80 L 800.40 764.90 L 846.00 1035.10 Z" fill="#3b3744" fill-rule="nonzero" group-id="1" node-id="64" stroke="none" target-height="411.89996" target-width="163.70001" target-x="682.3" target-y="623.2"></path><path d="M 569.40 1035.10 L 570.30 626.80 L 748.50 633.70 L 748.20 640.90 L 747.40 649.50 L 743.90 669.50 L 738.50 692.70 L 733.50 711.10 L 727.60 731.40 L 714.10 773.90 L 699.00 818.50 L 668.30 907.20 L 654.80 948.00 L 648.80 967.00 L 643.80 984.00 L 639.50 1000.20 L 636.50 1013.60 L 635.00 1022.30 L 634.10 1029.40 L 633.90 1035.10 Z" fill="#3b3744" fill-rule="nonzero" group-id="1" node-id="66" stroke="none" target-height="408.3" target-width="179.09998" target-x="569.4" target-y="626.8"></path><path d="M 662.70 300.70 L 653.20 285.10 L 640.50 262.90 L 635.50 253.70 L 632.90 248.10 L 631.80 242.10 L 627.90 213.30 L 616.90 125.20 L 577.50 127.20 L 576.10 179.80 L 575.60 222.10 L 576.00 248.10 L 576.40 253.90 L 576.90 258.80 L 577.50 261.00 L 613.20 331.30 L 637.50 346.70 Z" fill="#ffffff" fill-rule="nonzero" group-id="1" node-id="68" stroke="none" target-height="221.50002" target-width="87.10004" target-x="575.6" target-y="125.2"></path><path d="M 570.80 236.70 L 571.40 249.40 L 571.90 253.90 L 572.50 255.90 L 608.20 326.30 L 632.50 341.70 L 657.70 295.70 L 648.20 280.10 L 635.50 258.00 L 630.50 248.70 L 627.90 243.10 L 626.80 237.10 L 622.90 208.30 L 611.90 120.20 L 572.50 122.20 L 571.20 168.20 L 570.60 207.30" fill="none" group-id="1" node-id="70" stroke="#1b3c87" stroke-linecap="round" stroke-width="3.19" target-height="221.50002" target-width="87.10004" target-x="570.6" target-y="120.2"></path><g node-id="165"><path d="M 842.20 17.80 L 871.50 14.90 L 875.50 15.30 L 879.00 16.90 L 881.80 19.60 L 883.50 23.10 L 883.90 25.10 L 890.50 93.20 L 890.50 95.30 L 889.50 99.00 L 888.50 100.70 L 885.80 103.50 L 882.30 105.20 L 851.00 108.40 L 842.20 17.80 Z" fill="#88a3ff" fill-rule="nonzero" group-id="1,2" node-id="74" stroke="none" target-height="93.5" target-width="48.299988" target-x="842.2" target-y="14.9"></path></g><path d="M 296.90 70.90 L 222.90 123.80 L 305.80 161.50 L 851.00 108.40 L 842.20 17.80 L 296.90 70.90 Z" fill="#607dff" fill-rule="nonzero" group-id="1" node-id="77" stroke="none" target-height="143.7" target-width="628.1" target-x="222.9" target-y="17.8"></path><path d="M 697.30 290.70 L 702.50 290.90 L 707.40 291.60 L 712.10 292.80 L 716.60 294.40 L 720.80 296.40 L 725.90 299.50 L 730.70 303.10 L 735.20 307.40 L 739.60 312.40 L 743.50 317.60 L 747.20 323.40 L 750.70 329.70 L 754.00 336.70 L 757.90 346.10 L 761.40 356.40 L 764.70 367.50 L 767.40 378.70 L 769.90 390.50 L 772.10 402.90 L 775.50 428.10 L 778.20 460.60 L 779.20 480.20 L 779.80 499.60 L 780.00 536.50 L 778.80 583.90 L 777.10 623.20 L 773.50 626.00 L 770.50 627.50 L 761.10 630.30 L 746.80 632.90 L 734.80 634.30 L 720.80 635.40 L 690.90 636.40 L 659.60 636.20 L 629.30 634.70 L 602.50 632.30 L 590.70 630.60 L 581.70 628.90 L 576.00 627.50 L 572.00 626.10 L 569.40 624.80 L 568.90 617.70 L 568.60 606.60 L 568.80 594.30 L 570.40 562.40 L 572.00 543.80 L 574.10 524.60 L 576.80 504.00 L 580.10 483.10 L 584.10 461.70 L 590.50 433.30 L 594.20 419.40 L 598.30 405.50 L 602.70 392.20 L 607.40 379.40 L 611.30 369.90 L 619.60 352.30 L 624.00 344.20 L 628.80 336.20 L 633.80 328.80 L 639.00 322.10 L 644.30 316.00 L 648.90 311.40 L 653.70 307.20 L 658.50 303.50 L 663.50 300.20 L 668.60 297.40 L 674.00 295.00 L 679.50 293.20 L 685.20 291.80 L 691.10 291.00 L 697.30 290.70 Z" fill="#46dbc9" fill-rule="nonzero" group-id="1" node-id="79" stroke="none" target-height="345.7" target-width="211.40002" target-x="568.6" target-y="290.7"></path><path d="M 767.30 399.30 L 770.60 424.40 L 771.90 437.30 L 773.30 456.80 L 774.30 476.20 L 774.80 495.50 L 775.00 514.00 L 774.70 548.90 L 772.10 618.20 L 770.40 619.80 L 767.60 621.50 L 763.60 623.20 L 759.50 624.50 L 748.50 626.90 L 739.10 628.30 L 728.10 629.50 L 716.70 630.40 L 691.30 631.40 L 678.00 631.50 L 651.30 631.10" fill="none" group-id="1" node-id="81" stroke="#1b3c87" stroke-linecap="round" stroke-width="3.19" target-height="232.20001" target-width="123.70001" target-x="651.3" target-y="399.3"></path><path d="M 567.60 533.50 L 569.80 514.30 L 572.60 493.90 L 576.00 473.30 L 580.10 452.30 L 586.50 424.40 L 590.20 410.80 L 594.30 397.30 L 598.70 384.30 L 603.40 371.80 L 607.30 362.50 L 615.60 345.40 L 620.00 337.50 L 624.80 329.70 L 629.70 322.60 L 634.80 316.10 L 640.10 310.20 L 644.60 305.70 L 649.30 301.60 L 654.10 298.10 L 659.00 294.90 L 664.10 292.20 L 669.30 289.90 L 674.80 288.10 L 680.40 286.80 L 686.20 286.00 L 692.20 285.70 L 697.60 285.90 L 702.60 286.70 L 707.40 287.90 L 711.90 289.50 L 716.20 291.60 L 720.40 294.10 L 724.40 297.00 L 731.70 304.00 L 738.40 312.50 L 741.50 317.30 L 745.30 324.00 L 748.80 331.30 L 752.20 339.20" fill="none" group-id="1" node-id="83" stroke="#1b3c87" stroke-linecap="round" stroke-width="3.19" target-height="247.79999" target-width="184.60004" target-x="567.6" target-y="285.7"></path><path d="M 610.20 628.70 L 589.70 626.30 L 580.90 624.80 L 569.70 622.10 L 564.40 619.80 L 563.70 606.30 L 563.90 586.60" fill="none" group-id="1" node-id="85" stroke="#1b3c87" stroke-linecap="round" stroke-width="3.19" target-height="42.100037" target-width="46.5" target-x="563.7" target-y="586.6"></path><path d="M 711.50 756.20 L 699.80 789.00 L 674.50 857.10 L 665.00 888.00 L 651.60 934.50 L 638.60 983.10 L 631.50 1013.10 L 629.10 1026.50 L 628.90 1030.10" fill="none" group-id="1" node-id="87" stroke="#1b3c87" stroke-linecap="round" stroke-width="3.19" target-height="273.89996" target-width="82.599976" target-x="628.9" target-y="756.2"></path><path d="M 743.50 627.70 L 742.70 641.10 L 741.50 649.20 L 739.20 661.60 L 736.10 675.50 L 728.10 704.80" fill="none" group-id="1" node-id="89" stroke="#1b3c87" stroke-linecap="round" stroke-width="3.19" target-height="77.099976" target-width="15.400024" target-x="728.1" target-y="627.7"></path><path d="M 564.40 947.60 L 564.40 1030.10" fill="none" group-id="1" node-id="91" stroke="#1b3c87" stroke-linecap="round" stroke-width="3.19" target-height="82.5" target-width="0" target-x="564.4" target-y="947.6"></path><path d="M 564.40 619.80 L 564.40 885.70" fill="none" group-id="1" node-id="93" stroke="#1b3c87" stroke-linecap="round" stroke-width="3.19" target-height="265.90002" target-width="0" target-x="564.4" target-y="619.8"></path><path d="M 772.10 618.20 L 773.30 630.60 L 776.60 654.50 L 781.70 687.50 L 795.30 772.20 L 811.30 866.90 L 826.50 953.70 L 837.80 1014.80 L 841.00 1030.10" fill="none" group-id="1" node-id="95" stroke="#1b3c87" stroke-linecap="round" stroke-width="3.19" target-height="411.89996" target-width="68.900024" target-x="772.1" target-y="618.2"></path><path d="M 737.00 951.00 L 710.60 891.40 L 699.20 864.80 L 690.40 843.10 L 685.00 828.90" fill="none" group-id="1" node-id="97" stroke="#1b3c87" stroke-linecap="round" stroke-width="3.19" target-height="122.099976" target-width="52" target-x="685" target-y="828.9"></path><path d="M 775.10 1030.10 L 770.70 1022.40 L 756.10 992.30" fill="none" group-id="1" node-id="99" stroke="#1b3c87" stroke-linecap="round" stroke-width="3.19" target-height="37.799988" target-width="19" target-x="756.1" target-y="992.3"></path><path d="M 153.00 423.30 L 152.70 426.50 L 151.90 429.40 L 150.60 432.10 L 148.80 434.60 L 146.70 436.70 L 144.30 438.40 L 141.60 439.70 L 138.60 440.50 L 135.40 440.80 L 133.10 440.70 L 128.70 439.50 L 124.80 437.20 L 123.00 435.70 L 120.20 432.00 L 118.50 427.80 L 118.00 425.60 L 117.90 423.30 L 118.50 418.70 L 120.20 414.50 L 123.00 410.90 L 124.80 409.30 L 128.70 407.10 L 133.10 405.90 L 135.40 405.70 L 138.60 406.00 L 141.60 406.80 L 144.30 408.10 L 146.70 409.90 L 148.80 412.00 L 150.60 414.40 L 151.90 417.10 L 152.70 420.10 L 153.00 423.30 Z" fill="#b2c3fb" fill-rule="nonzero" group-id="1" node-id="101" stroke="none" target-height="35.099976" target-width="35.1" target-x="117.9" target-y="405.7"></path><path d="M 489.70 452.60 L 489.40 455.60 L 488.60 458.40 L 487.40 461.00 L 485.80 463.30 L 483.80 465.30 L 481.50 466.90 L 478.90 468.10 L 476.10 468.90 L 473.10 469.20 L 470.10 468.90 L 467.30 468.10 L 464.70 466.90 L 462.40 465.30 L 460.40 463.30 L 458.80 461.00 L 457.60 458.40 L 456.80 455.60 L 456.50 452.60 L 456.80 449.60 L 457.60 446.80 L 458.80 444.30 L 460.40 441.90 L 462.40 440.00 L 464.70 438.30 L 467.30 437.10 L 470.10 436.30 L 473.10 436.10 L 476.10 436.30 L 478.90 437.10 L 481.50 438.30 L 483.80 440.00 L 485.80 441.90 L 487.40 444.30 L 488.60 446.80 L 489.40 449.60 L 489.70 452.60 Z" fill="#fb5d64" fill-rule="nonzero" group-id="1" node-id="103" stroke="none" target-height="33.100006" target-width="33.200012" target-x="456.5" target-y="436.1"></path><path d="M 340.00 824.20 L 339.70 827.20 L 338.90 829.90 L 337.70 832.50 L 336.10 834.80 L 334.10 836.80 L 331.80 838.40 L 329.20 839.70 L 326.40 840.40 L 323.40 840.70 L 320.40 840.40 L 317.60 839.70 L 315.00 838.40 L 312.70 836.80 L 310.70 834.80 L 309.10 832.50 L 307.90 829.90 L 307.10 827.20 L 306.80 824.20 L 307.10 821.10 L 307.90 818.40 L 309.10 815.80 L 310.70 813.50 L 312.70 811.50 L 315.00 809.90 L 317.60 808.60 L 320.40 807.90 L 323.40 807.60 L 326.40 807.90 L 329.20 808.60 L 331.80 809.90 L 334.10 811.50 L 336.10 813.50 L 337.70 815.80 L 338.90 818.40 L 339.70 821.10 L 340.00 824.20 Z" fill="#ffffff" fill-rule="nonzero" group-id="1" node-id="105" stroke="none" target-height="33.100037" target-width="33.200012" target-x="306.8" target-y="807.6"></path><g node-id="166"><path d="M 97.60 225.40 L 186.10 149.50 L 348.10 338.40 L 259.60 414.30 Z" fill="#ffffff" fill-rule="nonzero" group-id="1,3" node-id="109" stroke="none" target-height="264.8" target-width="250.5" target-x="97.6" target-y="149.5"></path></g><path d="M 733.50 254.70 L 731.60 276.40 L 730.80 290.70 L 730.40 304.10 L 730.60 314.10 L 727.50 316.00 L 720.80 317.70 L 715.90 318.20 L 710.70 318.20 L 705.30 317.80 L 699.90 316.90 L 694.90 315.50 L 691.80 314.20 L 686.60 310.90 L 689.70 298.90 L 691.40 289.40 L 691.80 283.50 L 691.70 277.20 L 690.90 266.20 L 691.40 263.70 L 692.40 261.60 L 693.90 259.70 L 695.80 258.10 L 698.20 256.80 L 702.10 255.30 L 706.50 254.30 L 711.20 253.80 L 720.50 253.50 L 733.50 254.70 Z" fill="#ffffff" fill-rule="nonzero" group-id="1" node-id="112" stroke="none" target-height="64.70001" target-width="46.900024" target-x="686.6" target-y="253.5"></path><path d="M 684.90 297.80 L 686.80 289.40 L 687.50 284.60 L 687.80 278.90 L 687.70 272.80 L 686.90 262.20 L 687.40 259.70 L 688.40 257.60 L 689.90 255.70 L 691.80 254.10 L 694.10 252.80 L 698.00 251.30 L 702.50 250.30 L 707.10 249.80 L 716.50 249.50 L 729.50 250.70 L 727.50 272.40 L 726.70 286.70 L 726.30 300.10 L 726.60 310.10 L 723.60 312.00 L 721.10 312.80 L 717.20 313.60 L 712.40 314.10 L 707.40 314.30 L 702.20 313.90 L 696.90 313.20 L 692.00 311.90" fill="none" group-id="1" node-id="114" stroke="#1b3c87" stroke-linecap="round" stroke-width="3.19" target-height="64.79999" target-width="44.599976" target-x="684.9" target-y="249.5"></path><path d="M 748.90 207.20 L 748.60 214.50 L 747.70 221.40 L 746.40 228.10 L 744.40 234.50 L 742.00 240.50 L 739.20 246.10 L 735.90 251.40 L 732.30 256.20 L 728.40 260.40 L 721.70 265.80 L 714.60 269.70 L 710.80 271.20 L 706.90 272.20 L 702.90 272.90 L 698.70 273.10 L 694.60 272.90 L 690.60 272.20 L 686.70 271.20 L 682.90 269.70 L 675.70 265.80 L 672.30 263.30 L 669.10 260.40 L 665.10 256.20 L 661.50 251.40 L 658.20 246.10 L 655.40 240.50 L 653.00 234.50 L 651.10 228.10 L 649.70 221.40 L 648.80 214.50 L 648.50 207.20 L 648.80 200.00 L 649.70 193.00 L 651.10 186.40 L 653.00 180.00 L 655.40 173.90 L 658.20 168.40 L 661.50 163.10 L 665.10 158.30 L 669.10 154.10 L 675.70 148.70 L 682.90 144.80 L 686.70 143.30 L 690.60 142.30 L 694.60 141.60 L 698.70 141.40 L 702.90 141.60 L 706.90 142.30 L 710.80 143.30 L 714.60 144.80 L 721.70 148.70 L 725.10 151.20 L 728.40 154.10 L 732.30 158.30 L 735.90 163.10 L 739.20 168.40 L 742.00 173.90 L 744.40 180.00 L 746.40 186.40 L 747.70 193.00 L 748.60 200.00 L 748.90 207.20 Z" fill="#ffffff" fill-rule="nonzero" group-id="1" node-id="116" stroke="none" target-height="131.70001" target-width="100.400024" target-x="648.5" target-y="141.4"></path><path d="M 645.70 217.40 L 644.80 210.40 L 644.50 203.20 L 644.80 196.00 L 645.70 189.00 L 647.10 182.40 L 649.00 176.00 L 651.40 169.90 L 654.20 164.40 L 657.50 159.10 L 661.10 154.30 L 665.10 150.10 L 668.30 147.20 L 671.70 144.70 L 678.90 140.80 L 682.70 139.30 L 686.60 138.30 L 690.60 137.60 L 694.70 137.40 L 698.90 137.60 L 702.90 138.30 L 706.80 139.30 L 714.20 142.60 L 721.10 147.20 L 724.40 150.10 L 728.30 154.30 L 731.90 159.10 L 735.20 164.40 L 738.00 169.90 L 740.40 176.00 L 742.40 182.40 L 743.70 189.00 L 744.60 196.00 L 744.90 203.20 L 744.70 209.60 L 744.00 215.90 L 742.80 222.10 L 741.10 228.20 L 739.00 234.20 L 736.40 240.00" fill="none" group-id="1" node-id="118" stroke="#1b3c87" stroke-linecap="round" stroke-width="3.19" target-height="102.600006" target-width="100.400024" target-x="644.5" target-y="137.4"></path><path d="M 711.30 265.40 L 707.30 267.00 L 703.20 268.10 L 699.00 268.80 L 694.70 269.10 L 690.20 268.80 L 685.80 268.00 L 681.60 266.80 L 677.40 265.10 L 673.50 262.90 L 669.70 260.40 L 666.10 257.40 L 662.70 254.00 L 656.70 246.30 L 651.70 237.20" fill="none" group-id="1" node-id="120" stroke="#1b3c87" stroke-linecap="round" stroke-width="3.19" target-height="31.90001" target-width="59.599976" target-x="651.7" target-y="237.2"></path><path d="M 674.50 207.60 L 673.90 211.70 L 672.90 213.20 L 671.90 213.20 L 671.40 212.70 L 670.40 209.90 L 670.40 205.30 L 670.90 203.50 L 671.90 201.90 L 672.90 201.90 L 673.90 203.50 L 674.50 207.60 Z" fill="#1b3c87" fill-rule="nonzero" group-id="1" node-id="122" stroke="none" target-height="11.300003" target-width="4.0999756" target-x="670.4" target-y="201.9"></path><path d="M 663.00 209.00 L 662.70 211.50 L 660.40 217.60 L 658.70 220.60 L 654.70 225.90" fill="none" group-id="1" node-id="124" stroke="#1b3c87" stroke-linecap="round" stroke-width="3.19" target-height="16.899994" target-width="8.299988" target-x="654.7" target-y="209"></path><path d="M 667.50 248.50 L 671.20 247.50 L 673.80 246.20 L 677.00 244.10 L 680.90 240.20 L 682.90 237.70" fill="none" group-id="1" node-id="126" stroke="#1b3c87" stroke-linecap="round" stroke-width="3.19" target-height="10.800003" target-width="15.400024" target-x="667.5" target-y="237.7"></path><path d="M 721.60 224.40 L 722.90 228.00 L 726.00 241.20 L 728.10 247.00 L 729.00 248.60 L 730.60 250.00 L 731.30 249.90 L 732.40 249.30 L 736.20 244.90 L 741.60 236.00 L 747.20 224.90 L 749.60 219.10 L 753.40 208.00 L 754.60 202.90 L 754.90 199.00 L 754.70 192.90 L 752.80 177.90 L 749.20 161.30 L 746.80 153.00 L 743.90 144.80 L 738.50 132.20 L 733.50 123.70 L 730.70 120.00 L 727.80 116.90 L 725.00 114.50 L 722.60 113.00 L 720.20 111.90 L 717.80 111.30 L 715.40 111.10 L 713.40 111.40 L 711.70 112.10 L 710.30 113.20 L 708.30 116.30 L 706.80 121.30 L 706.10 129.40 L 704.70 126.60 L 702.20 123.00 L 699.10 119.40 L 695.20 115.70 L 692.30 113.50 L 685.60 109.80 L 682.00 108.50 L 678.20 107.70 L 674.20 107.40 L 670.00 107.60 L 666.40 108.20 L 663.40 109.10 L 660.80 110.20 L 658.30 111.80 L 656.20 113.60 L 653.00 117.80 L 651.50 121.10 L 650.40 124.70 L 649.70 128.60 L 649.40 136.80 L 649.70 141.20 L 650.50 147.60 L 651.80 153.90 L 648.20 151.80 L 645.30 150.70 L 641.00 150.50 L 639.30 150.70 L 637.90 151.40 L 635.50 153.90 L 633.90 157.70 L 633.20 161.00 L 632.90 164.60 L 633.10 168.90 L 634.50 175.60 L 637.00 181.10 L 638.50 183.20 L 641.10 186.00 L 643.90 188.10 L 649.50 191.10 L 657.20 193.00 L 674.10 194.70 L 691.50 195.10 L 693.80 199.70 L 698.30 207.20 L 701.30 211.30 L 707.20 217.80 L 712.60 221.80 L 715.50 223.30 L 718.50 224.10 L 721.60 224.40 Z" fill="#ecc953" fill-rule="nonzero" group-id="1" node-id="128" stroke="none" target-height="142.6" target-width="122" target-x="632.9" target-y="107.4"></path><path d="M 656.80 188.60 L 666.70 189.60 L 676.60 190.00 L 686.50 190.10 L 688.80 194.70 L 693.30 202.20 L 696.30 206.30 L 702.20 212.80 L 707.60 216.80 L 710.50 218.30 L 713.50 219.10 L 716.60 219.40 L 717.90 223.00 L 722.00 239.50 L 723.10 242.00 L 724.80 244.50 L 725.60 245.00 L 727.00 244.60 L 729.70 241.90 L 731.70 239.20" fill="none" group-id="1" node-id="130" stroke="#1b3c87" stroke-linecap="round" stroke-width="3.19" target-height="56.399994" target-width="74.900024" target-x="656.8" target-y="188.6"></path><path d="M 650.80 109.00 L 648.90 111.40 L 647.30 114.10 L 646.10 117.00 L 644.70 123.50 L 644.40 132.40 L 644.90 137.90 L 646.80 148.90 L 643.20 146.80 L 640.30 145.70 L 636.00 145.40 L 634.30 145.70 L 632.90 146.40 L 630.50 148.90 L 628.90 152.70 L 628.20 156.00 L 627.90 159.50 L 628.10 163.60 L 628.60 167.10 L 630.40 173.00 L 633.00 177.50 L 635.40 180.30 L 637.90 182.50" fill="none" group-id="1" node-id="132" stroke="#1b3c87" stroke-linecap="round" stroke-width="3.19" target-height="73.5" target-width="22.899963" target-x="627.9" target-y="109"></path><path d="M 723.80 112.80 L 719.50 109.20 L 715.00 106.90 L 710.40 106.10 L 708.40 106.40 L 706.70 107.10 L 704.20 109.70 L 702.50 113.30 L 701.30 119.40 L 701.10 124.40 L 699.70 121.60 L 697.20 118.00 L 694.10 114.40 L 690.20 110.70 L 687.30 108.50 L 680.60 104.80 L 677.00 103.50 L 673.20 102.70 L 667.00 102.40" fill="none" group-id="1" node-id="134" stroke="#1b3c87" stroke-linecap="round" stroke-width="3.19" target-height="22" target-width="56.799988" target-x="667" target-y="102.4"></path><path d="M 742.90 218.30 L 746.50 209.30 L 749.00 200.90 L 749.90 194.00 L 749.70 187.50 L 748.80 179.60 L 747.50 171.40 L 745.70 162.60 L 743.50 153.70 L 740.80 144.90 L 737.60 136.30 L 734.10 128.50" fill="none" group-id="1" node-id="136" stroke="#1b3c87" stroke-linecap="round" stroke-width="3.19" target-height="89.8" target-width="15.800049" target-x="734.1" target-y="128.5"></path><path d="M 729.60 215.70 L 729.30 218.80 L 728.40 221.70 L 726.90 224.50 L 724.90 226.90 L 722.50 228.90 L 719.80 230.30 L 716.90 231.20 L 713.80 231.50 L 710.60 231.20 L 707.70 230.30 L 705.00 228.90 L 702.60 226.90 L 700.60 224.50 L 699.10 221.70 L 698.20 218.80 L 697.90 215.70 L 698.20 212.60 L 699.10 209.60 L 700.60 206.90 L 702.60 204.50 L 705.00 202.50 L 707.70 201.10 L 710.60 200.20 L 713.80 199.90 L 716.90 200.20 L 719.80 201.10 L 722.50 202.50 L 724.90 204.50 L 726.90 206.90 L 728.40 209.60 L 729.30 212.60 L 729.60 215.70 Z" fill="#ffffff" fill-rule="nonzero" group-id="1" node-id="138" stroke="none" target-height="31.600006" target-width="31.699951" target-x="697.9" target-y="199.9"></path><path d="M 701.80 198.00 L 703.80 197.00 L 708.00 196.00 L 711.10 195.90 L 714.30 196.50 L 716.30 197.30 L 720.00 199.60 L 721.50 201.10 L 723.90 204.60 L 725.10 207.60 L 725.60 210.80 L 725.30 215.00 L 724.70 217.10 L 722.60 221.00 L 721.30 222.60 L 718.80 224.70 L 716.10 226.20 L 712.00 227.40 L 709.70 227.60" fill="none" group-id="1" node-id="140" stroke="#1b3c87" stroke-linecap="round" stroke-width="3.19" target-height="31.700012" target-width="23.799988" target-x="701.8" target-y="195.9"></path><path d="M 668.00 337.90 L 601.80 311.80 L 581.30 303.10 L 572.80 298.60 L 571.00 297.30 L 566.50 290.80 L 549.50 260.60 L 529.00 222.10 L 511.10 187.00 L 512.80 183.50 L 513.70 180.80 L 515.00 173.30 L 515.10 169.00 L 514.50 164.30 L 511.30 153.40 L 510.50 149.60 L 509.20 138.50 L 508.90 130.70 L 508.70 129.00 L 508.20 127.90 L 507.50 127.40 L 506.50 127.20 L 504.00 128.10 L 502.10 129.80 L 498.80 134.70 L 496.60 140.20 L 495.90 143.20 L 495.30 150.50 L 490.70 149.30 L 484.50 145.50 L 480.60 142.30 L 469.20 131.80 L 461.90 125.90 L 458.40 124.00 L 456.10 123.10 L 453.90 122.80 L 451.90 122.90 L 449.90 123.60 L 448.00 125.00 L 446.10 127.20 L 462.30 161.60 L 470.40 179.70 L 486.20 217.00 L 507.90 270.50 L 530.10 327.10 L 539.50 350.20 L 540.50 351.70 L 545.20 354.70 L 555.60 360.30 L 586.80 376.50 L 635.30 400.30 L 645.30 404.80 L 649.50 406.20 L 651.50 402.20 L 655.00 393.00 L 659.30 380.50 L 665.30 359.80 L 668.00 347.80 L 668.60 343.40 L 668.70 340.50 L 668.00 337.90 Z" fill="#ffffff" fill-rule="nonzero" group-id="1" node-id="142" stroke="none" target-height="283.40002" target-width="222.6" target-x="446.1" target-y="122.8"></path><path d="M 766.70 418.90 L 767.40 414.90 L 767.60 410.70 L 767.20 406.40 L 766.30 401.70 L 764.90 397.30 L 763.10 392.70 L 760.80 388.00 L 757.90 383.20 L 753.60 377.10 L 748.70 371.10 L 742.90 365.10 L 736.80 359.50 L 730.20 354.20 L 722.90 349.20 L 715.40 344.70 L 707.60 340.70 L 699.40 337.30 L 693.00 335.10 L 686.70 333.40 L 680.20 332.10 L 673.70 331.30 L 672.50 332.10 L 669.00 336.30 L 666.30 340.50 L 660.00 352.40 L 653.70 366.90 L 648.10 382.10 L 644.00 396.60 L 642.80 402.80 L 642.30 406.90 L 642.50 413.00 L 648.60 418.30 L 653.00 421.40 L 662.60 427.00 L 677.40 433.80 L 687.10 437.40 L 693.80 439.50 L 707.20 442.70 L 714.00 443.80 L 720.60 444.40 L 727.00 444.70 L 733.40 444.40 L 739.20 443.50 L 744.70 442.10 L 748.70 440.60 L 752.30 438.80 L 755.50 436.50 L 758.50 433.90 L 761.10 430.90 L 763.40 427.50 L 765.20 423.50 L 766.70 418.90 Z" fill="#46dbc9" fill-rule="nonzero" group-id="1" node-id="144" stroke="none" target-height="113.400024" target-width="125.29999" target-x="642.3" target-y="331.3"></path><path d="M 665.20 329.70 L 662.60 333.50 L 656.10 345.20 L 649.50 359.90 L 646.40 367.80 L 641.10 383.40 L 639.10 390.90 L 637.30 401.70 L 637.50 408.00 L 640.50 410.90 L 644.70 414.20 L 655.00 420.60" fill="none" group-id="1" node-id="146" stroke="#1b3c87" stroke-linecap="round" stroke-width="3.19" target-height="90.899994" target-width="27.900024" target-x="637.3" target-y="329.7"></path><path d="M 668.70 326.30 L 666.80 327.80 L 665.20 329.70" fill="none" group-id="1" node-id="148" stroke="#1b3c87" stroke-linecap="round" stroke-width="3.19" target-height="3.4000244" target-width="3.5" target-x="665.2" target-y="326.3"></path><path d="M 693.80 435.80 L 699.80 437.20 L 711.60 439.10 L 723.20 439.60 L 728.60 439.30 L 733.90 438.60 L 738.80 437.40 L 743.40 435.70 L 746.60 434.10 L 752.30 430.00 L 754.80 427.50 L 757.00 424.70 L 758.80 421.60 L 760.40 418.00 L 761.70 413.90 L 762.40 410.10 L 762.60 406.20 L 762.30 402.10 L 761.50 397.70 L 758.70 389.20 L 754.10 380.20 L 750.30 374.40 L 745.80 368.60 L 740.70 362.80 L 735.10 357.40 L 729.10 352.20 L 722.50 347.20 L 715.60 342.70 L 708.40 338.60 L 700.90 334.90" fill="none" group-id="1" node-id="150" stroke="#1b3c87" stroke-linecap="round" stroke-width="3.19" target-height="104.70001" target-width="68.79999" target-x="693.8" target-y="334.9"></path><path d="M 448.00 134.50 L 441.00 122.20 L 440.60 121.10 L 440.60 120.20 L 442.00 118.30 L 443.30 117.70 L 447.10 117.20 L 449.60 117.60 L 452.70 118.60 L 455.60 119.90 L 459.10 122.10 L 463.20 125.30 L 467.00 128.70 L 471.30 133.40 L 476.30 139.50" fill="none" group-id="1" node-id="152" stroke="#1b3c87" stroke-linecap="round" stroke-width="3.19" target-height="22.300003" target-width="35.69998" target-x="440.6" target-y="117.2"></path><path d="M 555.90 358.50 L 535.40 346.70 L 534.30 345.50 L 532.80 343.00 L 527.50 330.90 L 523.50 320.20 L 503.10 262.10 L 489.70 226.20 L 482.20 207.50 L 474.20 188.40 L 465.60 169.40 L 456.50 150.70" fill="none" group-id="1" node-id="154" stroke="#1b3c87" stroke-linecap="round" stroke-width="3.19" target-height="207.8" target-width="99.400024" target-x="456.5" target-y="150.7"></path><path d="M 637.40 401.20 L 624.00 394.50 L 582.10 372.60" fill="none" group-id="1" node-id="156" stroke="#1b3c87" stroke-linecap="round" stroke-width="3.19" target-height="28.600006" target-width="55.30005" target-x="582.1" target-y="372.6"></path><path d="M 520.90 211.30 L 506.10 182.00 L 507.80 178.50 L 508.70 175.80 L 510.00 168.30 L 510.10 164.00 L 509.50 159.30 L 506.30 148.40 L 505.50 144.60 L 504.70 139.30 L 503.70 124.00 L 503.20 122.90 L 502.50 122.40 L 500.40 122.40 L 499.00 123.10 L 497.10 124.80 L 495.00 127.50 L 492.70 132.20 L 491.60 135.20 L 490.50 141.70 L 490.30 145.50" fill="none" group-id="1" node-id="158" stroke="#1b3c87" stroke-linecap="round" stroke-width="3.19" target-height="88.9" target-width="30.600037" target-x="490.3" target-y="122.4"></path><path d="M 663.00 332.90 L 596.80 306.80 L 576.30 298.10 L 567.80 293.60 L 566.00 292.30 L 562.60 287.40 L 556.90 278.00 L 541.40 250.00" fill="none" group-id="1" node-id="160" stroke="#1b3c87" stroke-linecap="round" stroke-width="3.19" target-height="82.899994" target-width="121.599976" target-x="541.4" target-y="250"></path><path d="M 446.00 524.10 L 230.00 579.60 L 386.10 738.90 L 446.00 524.10 Z" fill="none" group-id="1" node-id="162" stroke="#d8dfff" stroke-linecap="round" stroke-width="3.19" target-height="214.80005" target-width="216" target-x="230" target-y="524.1"></path></g></svg>