<?xml version="1.0" standalone="no"?><!DOCTYPE svg PUBLIC "-//W3C//DTD SVG 1.1//EN" "http://www.w3.org/Graphics/SVG/1.1/DTD/svg11.dtd"><svg t="1744622403895" class="icon" viewBox="0 0 1024 1024" version="1.1" xmlns="http://www.w3.org/2000/svg" p-id="1411" xmlns:xlink="http://www.w3.org/1999/xlink" width="256" height="256"><path d="M433 157H166.3c-47.1 0-85.3 38.2-85.3 85.3V788c0 47.1 38.2 85.3 85.3 85.3h429.8c47.1 0 85.3-38.2 85.3-85.3V398.8c0-23.2-9.5-45.5-26.3-61.5L492 180.7c-15.9-15.2-37-23.7-59-23.7z" fill="#E88C1B" p-id="1412"></path><path d="M556.3 787.9V398.8c0-23.2-9.5-45.5-26.3-61.5L366.9 180.7c-15.9-15.2-37-23.7-59-23.7H166.3c-47.1 0-85.3 38.2-85.3 85.3V788c0 47.1 38.2 85.3 85.3 85.3H471c47.1-0.1 85.3-38.3 85.3-85.4z" fill="#FADE2F" p-id="1413"></path><path d="M555.4 390.5c-2-20.1-10.7-39.1-25.4-53.3L366.9 180.7c-15.9-15.2-37-23.7-59-23.7H166.3c-47.1 0-85.3 38.2-85.3 85.3v148.2h474.4z" fill="#FBC831" p-id="1414"></path><path d="M487.2 635V517.6c0-82.6 67-149.6 149.6-149.6s149.6 67 149.6 149.6V635h59.4V517.6c0-115.4-93.6-209-209-209s-209 93.6-209 209V635h59.4z" fill="#100515" p-id="1415"></path><path d="M527.3 873.2H331c-4.4 0-8-3.6-8-8V646.8c0-4.4 3.6-8 8-8h196.3c2.9 0 5.2 2.3 5.2 5.2v224c0 2.9-2.3 5.2-5.2 5.2z" fill="#263FEC" p-id="1416"></path><path d="M458.4 830V682c0-23.8-19.3-43.2-43.2-43.2h-25.4c-36.9 0-66.9 29.9-66.9 66.9v100.7c0 36.9 29.9 66.9 66.9 66.9h25.4c23.9-0.1 43.2-19.4 43.2-43.3z" fill="#3FABFB" p-id="1417"></path><path d="M458.4 746.7V682c0-23.8-19.3-43.2-43.2-43.2h-25.4c-36.9 0-66.9 29.9-66.9 66.9v41h135.5z" fill="#2784FA" p-id="1418"></path><path d="M736.8 873.2h196.3c4.4 0 8-3.6 8-8V646.8c0-4.4-3.6-8-8-8H736.8c-2.9 0-5.2 2.3-5.2 5.2v224c0 2.9 2.3 5.2 5.2 5.2z" fill="#263FEC" p-id="1419"></path><path d="M805.7 830V682c0-23.8 19.3-43.2 43.2-43.2h25.4c36.9 0 66.9 29.9 66.9 66.9v100.7c0 36.9-29.9 66.9-66.9 66.9h-25.4c-23.9-0.1-43.2-19.4-43.2-43.3z" fill="#3FABFB" p-id="1420"></path><path d="M805.7 746.7V682c0-23.8 19.3-43.2 43.2-43.2h25.4c36.9 0 66.9 29.9 66.9 66.9v41H805.7z" fill="#2784FA" p-id="1421"></path></svg>