<?xml version="1.0" standalone="no"?><!DOCTYPE svg PUBLIC "-//W3C//DTD SVG 1.1//EN" "http://www.w3.org/Graphics/SVG/1.1/DTD/svg11.dtd"><svg t="1744637273362" class="icon" viewBox="0 0 1024 1024" version="1.1" xmlns="http://www.w3.org/2000/svg" p-id="1588" xmlns:xlink="http://www.w3.org/1999/xlink" width="256" height="256"><path d="M862.7 172.8h-117c-3.9 0-7.1 3.2-7.1 7.1v497.8c0 0.7 0.6 1.4 1.4 1.4h128.4c0.7 0 1.4-0.6 1.4-1.4V179.9c0-3.9-3.2-7.1-7.1-7.1z" fill="#263FEC" p-id="1589"></path><path d="M824.6 666.6V238.4c0-28.3-17.9-52.3-43-61.5-25.1 9.2-43 33.2-43 61.5v428.2c0 6.9 5.6 12.5 12.5 12.5h60.8c7.1 0 12.7-5.6 12.7-12.5z" fill="#3FABFB" p-id="1590"></path><path d="M655.9 896.9H79c-5.7 0-10.4-4.7-10.4-10.4V127.4c0-5.7 4.7-10.4 10.4-10.4h576.9c5.7 0 10.4 4.7 10.4 10.4v759.1c0 5.7-4.6 10.4-10.4 10.4z" fill="#E88C1B" p-id="1591"></path><path d="M573.8 800.3V213.6c0-53.3-43.2-96.6-96.6-96.6h-312c-53.3 0-96.6 43.2-96.6 96.6v586.8c0 53.3 43.2 96.6 96.6 96.6h312c53.4-0.1 96.6-43.4 96.6-96.7z" fill="#FADE2F" p-id="1592"></path><path d="M573.8 385.4V213.6c0-53.3-43.2-96.6-96.6-96.6h-312c-53.3 0-96.6 43.2-96.6 96.6v171.9h505.2z" fill="#FBC831" p-id="1593"></path><path d="M204.5 361.6m-41.7 0a41.7 41.7 0 1 0 83.4 0 41.7 41.7 0 1 0-83.4 0Z" fill="#FFF3E1" p-id="1594"></path><path d="M568.7 394.5H303.9c-2 0-3.5-1.6-3.5-3.5v-58.7c0-2 1.6-3.5 3.5-3.5h264.7c2 0 3.5 1.6 3.5 3.5V391c0.1 1.9-1.5 3.5-3.4 3.5z" fill="#FFF3E1" p-id="1595"></path><path d="M204.5 506.9m-41.7 0a41.7 41.7 0 1 0 83.4 0 41.7 41.7 0 1 0-83.4 0Z" fill="#FFF3E1" p-id="1596"></path><path d="M568.7 539.8H303.9c-2 0-3.5-1.6-3.5-3.5v-58.7c0-2 1.6-3.5 3.5-3.5h264.7c2 0 3.5 1.6 3.5 3.5v58.7c0.1 2-1.5 3.5-3.4 3.5z" fill="#FFF3E1" p-id="1597"></path><path d="M204.5 652.2m-41.7 0a41.7 41.7 0 1 0 83.4 0 41.7 41.7 0 1 0-83.4 0Z" fill="#FFF3E1" p-id="1598"></path><path d="M568.7 685.1H303.9c-2 0-3.5-1.6-3.5-3.5v-58.7c0-2 1.6-3.5 3.5-3.5h264.7c2 0 3.5 1.6 3.5 3.5v58.7c0.1 2-1.5 3.5-3.4 3.5z" fill="#FFF3E1" p-id="1599"></path><path d="M749.2 770.9h110.1c4.8 0 7.9 5.1 5.8 9.4L810 890.9c-2.4 4.8-9.2 4.8-11.6 0l-55.1-110.6c-2.1-4.3 1.1-9.4 5.9-9.4z" fill="#263FEC" p-id="1600"></path><path d="M956.4 236.2H916c-1.3 0-2.4 1.1-2.4 2.4v246c0 1.3 1.1 2.4 2.4 2.4h40.4c1.3 0 2.4-1.1 2.4-2.4v-246c0-1.3-1.1-2.4-2.4-2.4z" fill="#100515" p-id="1601"></path><path d="M824.6 292.2v-53.8c0-28.3-17.9-52.3-43-61.5-25.1 9.2-43 33.2-43 61.5v53.8h86z" fill="#2784FA" p-id="1602"></path></svg>