<?xml version="1.0" standalone="no"?><!DOCTYPE svg PUBLIC "-//W3C//DTD SVG 1.1//EN" "http://www.w3.org/Graphics/SVG/1.1/DTD/svg11.dtd"><svg height="1024" node-id="1" sillyvg="true" template-height="1024" template-width="1024" version="1.1" viewBox="0 0 1024 1024" width="1024" xmlns="http://www.w3.org/2000/svg" xmlns:xlink="http://www.w3.org/1999/xlink"><defs node-id="119"><clipPath id="SVGID_00000066496178542659023120000010036627206511965884_" node-id="29"><path d="M 498.30 330.60 L 498.00 338.80 L 497.00 346.60 L 495.40 354.30 L 493.30 361.70 L 490.50 368.90 L 487.30 375.80 L 483.50 382.40 L 479.20 388.70 L 474.50 394.60 L 469.40 400.10 L 463.80 405.20 L 457.90 409.90 L 451.50 414.20 L 444.90 417.90 L 438.00 421.10 L 430.70 423.90 L 423.30 426.00 L 415.60 427.60 L 407.70 428.60 L 399.50 428.90 L 391.30 428.60 L 383.40 427.60 L 375.70 426.00 L 368.30 423.90 L 361.00 421.10 L 354.10 417.90 L 347.50 414.20 L 341.20 409.90 L 335.20 405.20 L 329.60 400.10 L 324.50 394.60 L 319.80 388.70 L 315.50 382.40 L 311.70 375.80 L 308.50 368.90 L 305.70 361.70 L 303.60 354.30 L 302.00 346.60 L 301.00 338.80 L 300.70 330.60 L 301.00 322.40 L 302.00 314.60 L 303.60 306.90 L 305.70 299.50 L 308.50 292.30 L 311.70 285.40 L 315.50 278.80 L 319.80 272.50 L 324.50 266.60 L 329.60 261.10 L 335.20 256.00 L 341.20 251.30 L 347.50 247.00 L 354.10 243.30 L 361.00 240.10 L 368.30 237.30 L 375.70 235.20 L 383.40 233.60 L 391.30 232.60 L 399.50 232.30 L 407.70 232.60 L 415.60 233.60 L 423.30 235.20 L 430.70 237.30 L 438.00 240.10 L 444.90 243.30 L 451.50 247.00 L 457.90 251.30 L 463.80 256.00 L 469.40 261.10 L 474.50 266.60 L 479.20 272.50 L 483.50 278.80 L 487.30 285.40 L 490.50 292.30 L 493.30 299.50 L 495.40 306.90 L 497.00 314.60 L 498.00 322.40 L 498.30 330.60 Z" fill="#000000" fill-rule="nonzero" node-id="122" stroke="none" target-height="196.59999" target-width="197.59998" target-x="300.7" target-y="232.3"></path></clipPath><clipPath id="SVGID_00000062161159680288560790000007468716526333802686_" node-id="35"><path d="M 498.30 330.60 L 498.00 338.80 L 497.00 346.60 L 495.40 354.30 L 493.30 361.70 L 490.50 368.90 L 487.30 375.80 L 483.50 382.40 L 479.20 388.70 L 474.50 394.60 L 469.40 400.10 L 463.80 405.20 L 457.90 409.90 L 451.50 414.20 L 444.90 417.90 L 438.00 421.10 L 430.70 423.90 L 423.30 426.00 L 415.60 427.60 L 407.70 428.60 L 399.50 428.90 L 391.30 428.60 L 383.40 427.60 L 375.70 426.00 L 368.30 423.90 L 361.00 421.10 L 354.10 417.90 L 347.50 414.20 L 341.20 409.90 L 335.20 405.20 L 329.60 400.10 L 324.50 394.60 L 319.80 388.70 L 315.50 382.40 L 311.70 375.80 L 308.50 368.90 L 305.70 361.70 L 303.60 354.30 L 302.00 346.60 L 301.00 338.80 L 300.70 330.60 L 301.00 322.40 L 302.00 314.60 L 303.60 306.90 L 305.70 299.50 L 308.50 292.30 L 311.70 285.40 L 315.50 278.80 L 319.80 272.50 L 324.50 266.60 L 329.60 261.10 L 335.20 256.00 L 341.20 251.30 L 347.50 247.00 L 354.10 243.30 L 361.00 240.10 L 368.30 237.30 L 375.70 235.20 L 383.40 233.60 L 391.30 232.60 L 399.50 232.30 L 407.70 232.60 L 415.60 233.60 L 423.30 235.20 L 430.70 237.30 L 438.00 240.10 L 444.90 243.30 L 451.50 247.00 L 457.90 251.30 L 463.80 256.00 L 469.40 261.10 L 474.50 266.60 L 479.20 272.50 L 483.50 278.80 L 487.30 285.40 L 490.50 292.30 L 493.30 299.50 L 495.40 306.90 L 497.00 314.60 L 498.00 322.40 L 498.30 330.60 Z" fill="#000000" fill-rule="nonzero" node-id="126" stroke="none" target-height="196.59999" target-width="197.59998" target-x="300.7" target-y="232.3"></path></clipPath><clipPath id="SVGID_00000044169117320588998510000008835916670018718370_" node-id="41"><path d="M 498.30 330.60 L 498.00 338.80 L 497.00 346.60 L 495.40 354.30 L 493.30 361.70 L 490.50 368.90 L 487.30 375.80 L 483.50 382.40 L 479.20 388.70 L 474.50 394.60 L 469.40 400.10 L 463.80 405.20 L 457.90 409.90 L 451.50 414.20 L 444.90 417.90 L 438.00 421.10 L 430.70 423.90 L 423.30 426.00 L 415.60 427.60 L 407.70 428.60 L 399.50 428.90 L 391.30 428.60 L 383.40 427.60 L 375.70 426.00 L 368.30 423.90 L 361.00 421.10 L 354.10 417.90 L 347.50 414.20 L 341.20 409.90 L 335.20 405.20 L 329.60 400.10 L 324.50 394.60 L 319.80 388.70 L 315.50 382.40 L 311.70 375.80 L 308.50 368.90 L 305.70 361.70 L 303.60 354.30 L 302.00 346.60 L 301.00 338.80 L 300.70 330.60 L 301.00 322.40 L 302.00 314.60 L 303.60 306.90 L 305.70 299.50 L 308.50 292.30 L 311.70 285.40 L 315.50 278.80 L 319.80 272.50 L 324.50 266.60 L 329.60 261.10 L 335.20 256.00 L 341.20 251.30 L 347.50 247.00 L 354.10 243.30 L 361.00 240.10 L 368.30 237.30 L 375.70 235.20 L 383.40 233.60 L 391.30 232.60 L 399.50 232.30 L 407.70 232.60 L 415.60 233.60 L 423.30 235.20 L 430.70 237.30 L 438.00 240.10 L 444.90 243.30 L 451.50 247.00 L 457.90 251.30 L 463.80 256.00 L 469.40 261.10 L 474.50 266.60 L 479.20 272.50 L 483.50 278.80 L 487.30 285.40 L 490.50 292.30 L 493.30 299.50 L 495.40 306.90 L 497.00 314.60 L 498.00 322.40 L 498.30 330.60 Z" fill="#000000" fill-rule="nonzero" node-id="130" stroke="none" target-height="196.59999" target-width="197.59998" target-x="300.7" target-y="232.3"></path></clipPath></defs><g node-id="411"><path d="M 882.50 839.60 L 881.30 844.30 L 879.60 849.10 L 877.40 854.00 L 874.70 859.00 L 871.60 863.60 L 867.90 868.30 L 863.50 872.90 L 858.50 877.50 L 852.00 882.50 L 845.30 886.90 L 838.40 890.60 L 831.30 893.90 L 824.20 896.70 L 817.20 899.00 L 803.10 902.30 L 796.40 903.40 L 786.40 904.60 L 769.10 905.30 L 758.80 905.10 L 738.40 903.60 L 694.10 898.10 L 675.70 896.10 L 666.20 895.50 L 656.60 895.30 L 650.10 895.50 L 637.30 896.70 L 631.00 897.80 L 624.80 899.30 L 618.70 901.20 L 614.40 888.90 L 621.20 886.80 L 628.00 885.10 L 634.90 883.90 L 641.90 883.00 L 655.70 882.30 L 666.10 882.50 L 686.20 884.10 L 732.30 889.90 L 754.80 891.90 L 766.00 892.30 L 777.20 892.20 L 785.20 891.70 L 794.30 890.70 L 806.60 888.40 L 819.50 884.70 L 825.90 882.20 L 832.30 879.30 L 838.40 876.00 L 844.40 872.10 L 850.20 867.60 L 854.50 863.60 L 858.60 859.10 L 862.30 854.10 L 865.50 848.80 L 867.20 845.10 L 869.80 837.50 L 870.50 834.40 L 870.90 828.20 L 870.10 822.00 L 869.30 819.00 L 867.90 815.30 L 866.00 811.90 L 861.10 805.80 L 855.10 800.60 L 848.50 796.60 L 843.40 794.30 L 838.50 792.60 L 834.80 791.80 L 828.40 791.00 L 812.10 790.00 L 792.10 789.40 L 750.70 789.10 L 723.20 789.40 L 723.00 783.70 L 732.70 775.40 L 758.40 775.20 L 777.10 775.50 L 797.00 776.00 L 815.80 776.90 L 831.60 778.30 L 838.00 779.20 L 842.10 780.10 L 848.50 782.30 L 854.40 785.00 L 859.90 788.10 L 867.30 793.70 L 873.40 800.10 L 878.30 807.30 L 881.70 815.00 L 883.40 823.10 L 883.70 831.30 L 882.50 839.60 Z" fill="#88b6e5" fill-rule="nonzero" group-id="1" node-id="136" stroke="none" target-height="130.09998" target-width="269.3" target-x="614.4" target-y="775.2"></path></g><g node-id="412"><path d="M 498.70 886.10 L 467.40 883.50 L 436.20 881.30 L 404.80 879.60 L 373.50 878.30 L 342.20 877.40 L 310.80 877.00 L 279.50 877.00 L 239.10 877.50 L 223.60 876.80 L 211.70 874.90 L 205.90 873.40 L 200.50 871.30 L 195.50 868.80 L 191.90 866.60 L 188.70 863.90 L 185.70 860.90 L 182.90 857.40 L 186.80 854.60 L 190.90 852.30 L 195.20 850.30 L 204.20 847.40 L 209.00 846.30 L 216.10 845.20 L 230.80 844.00 L 792.40 824.50 L 790.90 823.10 L 789.80 821.50 L 789.00 819.70 L 788.50 816.80 L 788.90 810.10 L 790.60 799.10 L 790.90 795.60 L 790.60 792.30 L 794.40 791.40 L 798.90 790.80 L 803.90 790.50 L 814.30 791.00 L 819.90 791.80 L 828.30 793.30 L 836.30 795.50 L 841.60 797.20 L 850.80 801.20 L 855.00 803.60 L 858.30 806.00 L 861.00 808.40 L 857.30 806.10 L 852.80 804.10 L 847.90 802.50 L 842.70 801.20 L 832.10 799.70 L 822.30 799.80 L 818.00 800.50 L 814.60 801.50 L 810.80 803.40 L 807.30 805.60 L 803.50 809.20 L 800.80 813.30 L 800.00 815.50 L 799.60 817.80 L 799.70 820.00 L 800.20 822.40 L 801.40 824.90 L 805.20 830.40 L 806.20 833.50 L 806.20 835.30 L 805.80 836.90 L 805.00 838.50 L 803.30 840.50 L 801.10 842.40 L 798.60 843.90 L 788.40 847.90 L 780.60 850.10 L 772.70 851.80 L 764.70 853.00 L 748.30 854.40 L 711.10 855.70 L 698.80 856.40 L 690.60 857.20 L 674.80 859.90 L 663.30 863.30 L 657.60 865.40 L 650.20 869.00 L 648.50 870.10 L 645.50 873.10 L 644.50 875.00 L 644.00 876.90 L 644.00 878.60 L 644.30 880.40 L 645.30 882.60 L 646.80 884.70 L 648.90 886.90 L 653.90 890.40 L 656.90 891.80 L 661.40 893.60 L 665.90 894.60 L 686.80 897.90 L 707.70 900.60 L 728.70 902.80 L 749.80 904.50 L 770.80 905.60 L 792.00 906.20 L 648.60 913.00 L 649.70 914.80 L 650.50 916.60 L 650.80 918.70 L 650.30 922.80 L 649.60 924.80 L 648.60 926.70 L 645.90 930.00 L 643.40 931.90 L 640.60 933.40 L 637.70 934.50 L 633.00 935.80 L 619.40 938.10 L 600.20 940.10 L 580.30 940.90 L 559.60 940.40 L 538.90 938.40 L 528.60 936.80 L 518.50 934.80 L 508.60 932.30 L 498.80 929.30 L 489.40 925.90 L 480.40 921.90 L 473.80 918.60 L 467.60 915.00 L 461.60 911.00 L 455.90 906.80 L 466.20 901.20 L 498.70 886.10 Z" fill="#f2f2f2" fill-rule="nonzero" group-id="2" node-id="141" stroke="none" target-height="150.40002" target-width="678.1" target-x="182.9" target-y="790.5"></path></g><g node-id="413"><path d="M 564.90 827.60 L 653.10 847.70 L 636.30 925.00 L 577.90 953.00 L 497.80 918.10 L 551.50 894.20 Z" fill="#3583f0" fill-rule="nonzero" group-id="3" node-id="146" stroke="none" target-height="125.400024" target-width="155.29999" target-x="497.8" target-y="827.6"></path></g><g node-id="414"><path d="M 564.90 827.60 L 653.10 847.70 L 636.30 925.00 L 577.90 953.00 L 497.80 918.10 L 551.50 894.20 Z" fill="#769dd6" fill-rule="nonzero" group-id="4" node-id="151" stroke="none" target-height="125.400024" target-width="155.29999" target-x="497.8" target-y="827.6"></path></g><g node-id="415"><path d="M 559.10 826.00 L 647.40 846.10 L 630.50 923.40 L 573.30 951.30 L 493.20 916.40 L 545.80 892.50 Z" fill="#b9c0d0" fill-rule="nonzero" group-id="5" node-id="156" stroke="none" target-height="125.29999" target-width="154.20001" target-x="493.2" target-y="826"></path></g><g node-id="416"><path d="M 557.00 892.90 L 625.30 914.50 L 639.50 851.90 L 568.50 836.70 Z" fill="#aad5f9" fill-rule="nonzero" group-id="6" node-id="161" stroke="none" target-height="77.79999" target-width="82.5" target-x="557" target-y="836.7"></path></g><g node-id="417"><g node-id="430"><g node-id="461"><path d="M 877.80 216.60 L 874.60 208.00 L 876.10 207.40 L 879.30 216.10 L 877.80 216.60 Z M 871.00 199.50 L 866.80 191.30 L 868.20 190.60 L 872.40 198.90 L 871.00 199.50 Z M 862.20 183.30 L 857.10 175.60 L 858.40 174.70 L 863.50 182.50 L 862.20 183.30 Z M 585.50 203.30 L 584.10 202.70 L 588.10 194.30 L 589.50 195.00 L 585.50 203.30 Z M 851.60 168.20 L 845.70 161.20 L 846.90 160.20 L 852.90 167.30 L 851.60 168.20 Z M 593.80 186.90 L 592.40 186.10 L 597.30 178.20 L 598.60 179.10 L 593.80 186.90 Z M 839.30 154.50 L 832.60 148.20 L 833.60 147.00 L 840.40 153.40 L 839.30 154.50 Z M 604.00 171.50 L 602.80 170.60 L 608.60 163.30 L 609.80 164.30 L 604.00 171.50 Z M 825.50 142.30 L 818.10 136.80 L 819.00 135.50 L 826.50 141.00 L 825.50 142.30 Z M 616.00 157.50 L 614.90 156.40 L 621.50 149.90 L 622.60 151.00 L 616.00 157.50 Z M 810.40 131.90 L 802.40 127.40 L 803.10 126.00 L 811.20 130.60 L 810.40 131.90 Z M 629.50 145.00 L 628.50 143.80 L 635.90 138.10 L 636.80 139.40 L 629.50 145.00 Z M 794.10 123.30 L 785.60 119.70 L 786.20 118.20 L 794.80 121.80 L 794.10 123.30 Z M 644.30 134.10 L 643.50 132.80 L 647.50 130.30 L 651.50 128.00 L 652.30 129.40 L 644.30 134.10 Z M 776.90 116.60 L 768.00 114.10 L 768.40 112.60 L 777.30 115.20 L 776.90 116.60 Z M 660.40 125.10 L 659.70 123.70 L 668.20 119.90 L 668.80 121.30 L 660.40 125.10 Z M 759.10 112.10 L 750.00 110.60 L 750.20 109.10 L 759.40 110.60 L 759.10 112.10 Z M 677.30 118.00 L 676.80 116.50 L 681.20 115.00 L 685.70 113.70 L 686.10 115.20 L 677.30 118.00 Z M 740.80 109.60 L 731.60 109.20 L 731.60 107.60 L 740.90 108.00 L 740.80 109.60 Z M 695.00 112.90 L 694.70 111.40 L 703.80 109.60 L 704.00 111.10 L 695.00 112.90 Z M 722.40 109.30 L 713.20 110.00 L 713.00 108.40 L 722.30 107.70 L 722.40 109.30 Z" fill="#777f99" fill-rule="nonzero" group-id="7,20,51" node-id="170" stroke="none" target-height="109.00001" target-width="295.2" target-x="584.1" target-y="107.6"></path></g></g><path d="M 881.60 229.90 L 880.50 225.40 L 882.00 225.00 L 883.20 229.60 L 881.60 229.90 Z" fill="#777f99" fill-rule="nonzero" group-id="7,21,52" node-id="178" stroke="none" target-height="4.899994" target-width="2.7000122" target-x="880.5" target-y="225"></path></g><g node-id="418"><g node-id="432"><g node-id="463"><g node-id="471"><g clip-path="url(#SVGID_00000066496178542659023120000010036627206511965884_)" group-id="8,22,53,61" node-id="191"><path d="M 362.70 232.20 L 300.70 288.90 L 300.70 232.20 Z" fill="#bccbe1" fill-rule="nonzero" group-id="8,22,53,61,64" node-id="193" stroke="none" target-height="56.699997" target-width="62" target-x="300.7" target-y="232.2"></path></g></g><g node-id="472"><g clip-path="url(#SVGID_00000062161159680288560790000007468716526333802686_)" group-id="8,22,53,62" node-id="199"><path d="M 458.30 232.20 L 300.70 376.30 L 300.70 288.90 L 362.70 232.20 Z" fill="#ffffff" fill-rule="nonzero" group-id="8,22,53,62,65" node-id="201" stroke="none" target-height="144.09999" target-width="157.59998" target-x="300.7" target-y="232.2"></path></g></g><g clip-path="url(#SVGID_00000044169117320588998510000008835916670018718370_)" group-id="8,22,53,63" node-id="207"><path d="M 300.70 376.30 L 458.30 232.20 L 498.20 232.20 L 498.20 428.90 L 300.70 428.90 Z" fill="#ffffff" fill-rule="nonzero" group-id="8,22,53,63,66" node-id="209" stroke="none" target-height="196.7" target-width="197.5" target-x="300.7" target-y="232.2"></path></g></g></g></g><g node-id="419"><g node-id="433"><path d="M 718.80 345.40 L 723.90 755.60 L 723.70 759.10 L 723.00 762.30 L 721.90 765.40 L 720.40 768.30 L 718.60 770.90 L 716.40 773.30 L 713.90 775.40 L 711.30 777.10 L 708.30 778.60 L 705.20 779.60 L 701.90 780.30 L 698.40 780.50 L 298.40 780.50 L 294.90 780.30 L 291.60 779.60 L 288.50 778.50 L 285.50 777.00 L 282.90 775.20 L 280.40 773.10 L 278.20 770.70 L 276.40 768.00 L 274.90 765.10 L 273.80 762.10 L 273.10 758.90 L 272.90 755.60 L 272.90 228.20 L 273.10 224.70 L 273.80 221.50 L 274.90 218.40 L 276.40 215.50 L 278.20 212.90 L 280.40 210.60 L 282.90 208.50 L 285.50 206.70 L 288.50 205.30 L 291.60 204.30 L 294.90 203.60 L 298.40 203.40 L 588.20 203.40 L 718.80 345.40 Z" fill="#ffffff" fill-rule="nonzero" group-id="9,23" node-id="220" stroke="none" target-height="577.1" target-width="451.00003" target-x="272.9" target-y="203.4"></path><path d="M 698.40 796.50 L 298.40 796.50 L 294.10 796.30 L 290.00 795.70 L 286.00 794.70 L 278.60 791.50 L 272.00 787.10 L 266.40 781.60 L 264.00 778.40 L 260.20 771.50 L 258.80 767.70 L 257.80 763.90 L 257.10 759.80 L 256.90 755.60 L 256.90 228.20 L 257.10 224.00 L 257.80 219.90 L 258.80 216.10 L 261.90 208.70 L 266.40 202.30 L 272.00 196.70 L 278.60 192.40 L 286.00 189.20 L 290.00 188.20 L 294.10 187.60 L 298.40 187.40 L 595.30 187.40 L 734.80 339.10 L 740.00 755.60 L 739.80 759.80 L 738.10 767.70 L 734.90 775.10 L 730.40 781.60 L 724.80 787.10 L 718.20 791.50 L 710.80 794.70 L 706.80 795.70 L 702.70 796.30 L 698.40 796.50 Z M 298.40 219.40 L 295.80 219.70 L 293.60 220.60 L 291.70 222.00 L 290.20 223.70 L 289.50 225.10 L 288.90 228.20 L 288.90 755.60 L 289.50 758.60 L 291.70 761.80 L 293.70 763.20 L 295.90 764.20 L 298.40 764.50 L 698.40 764.50 L 701.00 764.20 L 703.20 763.30 L 705.10 761.90 L 706.60 760.20 L 707.50 758.10 L 707.90 755.70 L 702.90 351.80 L 581.20 219.40 L 298.40 219.40 Z" fill="#bcd6f6" fill-rule="nonzero" group-id="9,23" node-id="222" stroke="none" target-height="609.1" target-width="483.1" target-x="256.9" target-y="187.4"></path></g></g><g node-id="420"><g node-id="434"><path d="M 464.20 692.80 L 456.00 692.80 L 454.70 692.50 L 453.70 691.70 L 453.10 690.50 L 452.80 689.10 L 453.10 687.70 L 453.70 686.50 L 454.70 685.70 L 456.00 685.40 L 464.20 685.40 L 465.50 685.70 L 466.50 686.50 L 467.10 687.60 L 467.40 689.10 L 467.10 690.70 L 466.50 691.80 L 465.50 692.50 L 464.20 692.80 Z" fill="#ced7e2" fill-rule="nonzero" group-id="10,24" node-id="230" stroke="none" target-height="7.3999634" target-width="14.600006" target-x="452.8" target-y="685.4"></path></g></g><g node-id="421"><g node-id="435"><path d="M 418.40 692.80 L 341.10 692.80 L 339.00 692.50 L 337.40 691.70 L 336.60 690.90 L 335.90 689.10 L 336.60 687.30 L 337.40 686.50 L 339.00 685.70 L 341.10 685.40 L 418.40 685.40 L 420.50 685.70 L 422.10 686.50 L 422.90 687.20 L 423.60 689.10 L 422.90 691.10 L 422.10 691.80 L 420.40 692.50 L 418.40 692.80 Z" fill="#d5ddea" fill-rule="nonzero" group-id="11,25" node-id="238" stroke="none" target-height="7.3999634" target-width="87.70001" target-x="335.9" target-y="685.4"></path></g></g><g node-id="422"><g node-id="436"><path d="M 532.30 291.00 L 344.00 291.00 L 341.90 290.70 L 339.90 290.00 L 338.30 288.80 L 337.00 287.30 L 336.20 285.60 L 335.90 283.70 L 336.20 281.80 L 337.00 280.10 L 338.30 278.60 L 340.00 277.40 L 341.90 276.70 L 344.00 276.40 L 532.30 276.40 L 534.40 276.70 L 536.40 277.40 L 538.00 278.60 L 539.30 280.10 L 540.10 281.80 L 540.40 283.70 L 540.10 285.60 L 539.30 287.30 L 538.00 288.80 L 536.40 290.00 L 534.40 290.70 L 532.30 291.00 Z" fill="#d5ddea" fill-rule="nonzero" group-id="12,26" node-id="246" stroke="none" target-height="14.600006" target-width="204.50003" target-x="335.9" target-y="276.4"></path></g></g><g node-id="423"><g node-id="437"><path d="M 416.10 334.90 L 344.00 334.90 L 341.90 334.60 L 339.90 333.90 L 338.30 332.70 L 337.00 331.20 L 336.20 329.50 L 335.90 327.60 L 336.20 325.70 L 337.00 324.00 L 338.30 322.50 L 339.90 321.30 L 341.90 320.60 L 344.00 320.30 L 415.50 320.30 L 417.60 320.60 L 419.60 321.30 L 421.20 322.50 L 422.50 324.00 L 423.30 325.70 L 423.60 327.60 L 423.30 329.50 L 422.50 331.20 L 421.20 332.70 L 419.70 333.90 L 417.90 334.60 L 416.10 334.90 Z" fill="#d5ddea" fill-rule="nonzero" group-id="13,27" node-id="254" stroke="none" target-height="14.600006" target-width="87.70001" target-x="335.9" target-y="320.3"></path></g></g><g node-id="424"><g node-id="438"><path d="M 589.70 203.40 L 589.70 320.00 L 590.00 324.10 L 590.80 327.90 L 592.20 331.50 L 594.00 335.00 L 596.20 338.10 L 598.80 340.90 L 601.70 343.40 L 604.90 345.50 L 608.30 347.20 L 612.00 348.50 L 615.80 349.20 L 619.80 349.50 L 718.40 345.80" fill="#d5ddea" fill-rule="nonzero" group-id="14,28" node-id="262" stroke="none" target-height="146.1" target-width="128.70001" target-x="589.7" target-y="203.4"></path></g></g><g node-id="425"><path d="M 432.80 411.60 L 439.90 407.40 L 447.20 403.70 L 454.90 400.60 L 462.80 397.90 L 470.80 395.80 L 479.10 394.30 L 487.60 393.40 L 496.30 393.10 L 504.30 393.40 L 512.00 394.20 L 519.50 395.40 L 526.90 397.20 L 534.10 399.40 L 541.10 402.10 L 547.90 405.20 L 554.40 408.70 L 560.60 412.60 L 566.60 416.90 L 572.30 421.60 L 577.70 426.60 L 582.70 432.00 L 587.40 437.60 L 591.70 443.50 L 595.70 449.80 L 599.20 456.30 L 602.30 463.00 L 605.00 470.00 L 607.30 477.20 L 609.10 484.60 L 610.30 492.10 L 611.10 499.80 L 611.40 507.80 L 611.10 515.80 L 610.30 523.50 L 609.10 531.00 L 607.30 538.30 L 605.00 545.60 L 602.30 552.50 L 599.20 559.20 L 595.70 565.70 L 591.70 572.00 L 587.40 577.90 L 582.70 583.60 L 577.70 588.90 L 572.30 593.90 L 566.60 598.60 L 560.60 602.90 L 554.40 606.80 L 547.90 610.30 L 541.10 613.40 L 534.10 616.10 L 526.90 618.30 L 519.50 620.10 L 512.00 621.30 L 504.30 622.10 L 496.30 622.40 L 488.30 622.10 L 480.60 621.30 L 473.10 620.10 L 465.70 618.30 L 458.50 616.10 L 451.50 613.40 L 444.70 610.30 L 438.20 606.80 L 432.00 602.90 L 426.00 598.60 L 420.30 593.90 L 414.90 588.90 L 409.90 583.60 L 405.20 577.90 L 400.90 572.00 L 396.90 565.70 L 393.40 559.20 L 390.30 552.50 L 387.60 545.60 L 385.30 538.30 L 383.50 531.00 L 382.30 523.50 L 381.50 515.80 L 381.20 507.80 L 381.30 500.20 L 381.80 492.90 L 382.90 485.70 L 384.40 478.70 L 386.40 471.80 L 388.70 465.10 L 391.50 458.70 L 394.70 452.40 L 398.30 446.40 L 402.30 440.60 L 406.60 435.10 L 411.20 429.80 L 416.20 424.80 L 421.40 420.10 L 427.00 415.70 L 432.80 411.60 Z" fill="#4c96ec" fill-rule="nonzero" group-id="15" node-id="268" stroke="none" target-height="229.30002" target-width="230.20001" target-x="381.2" target-y="393.1"></path></g><g node-id="426"><g node-id="439"><path d="M 504.60 455.40 L 538.70 492.90 L 540.10 496.40 L 540.40 500.30 L 540.10 502.20 L 538.70 505.70 L 536.10 508.60 L 532.80 510.10 L 529.30 510.40 L 527.40 510.10 L 524.00 508.60 L 522.50 507.30 L 507.50 491.40 L 507.50 549.60 L 506.80 553.70 L 506.00 555.50 L 503.70 558.50 L 500.50 560.60 L 498.70 561.10 L 496.80 561.30 L 493.10 560.60 L 491.40 559.70 L 488.70 557.10 L 486.80 553.70 L 486.10 549.60 L 486.10 491.40 L 471.10 507.30 L 469.70 508.60 L 466.40 510.10 L 462.90 510.40 L 461.00 510.10 L 457.60 508.60 L 456.10 507.30 L 454.50 505.30 L 453.50 503.40 L 452.90 501.30 L 452.90 497.30 L 453.50 495.00 L 455.00 492.40 L 489.00 455.40 L 491.00 453.80 L 495.00 451.90 L 497.60 451.80 L 500.80 452.60 L 502.30 453.30 L 503.70 454.20 L 504.60 455.40 Z" fill="#ffffff" fill-rule="nonzero" group-id="16,29" node-id="275" stroke="none" target-height="109.5" target-width="87.50003" target-x="452.9" target-y="451.8"></path></g></g><g node-id="427"><g node-id="440"><g node-id="464"><path d="M 940.60 269.50 L 932.40 270.40 L 930.50 270.00 L 929.20 268.60 L 926.40 263.60 L 925.90 261.80 L 926.60 259.90 L 931.80 253.50 L 932.40 252.30 L 932.50 251.10 L 932.10 250.00 L 931.30 249.00 L 917.40 237.80 L 916.20 237.20 L 915.00 237.10 L 913.90 237.50 L 912.90 238.30 L 907.60 244.90 L 906.00 246.00 L 904.10 245.90 L 897.80 243.90 L 896.50 242.50 L 896.30 241.60 L 895.40 233.20 L 895.00 232.00 L 894.30 231.10 L 893.20 230.50 L 891.90 230.40 L 874.10 232.30 L 872.90 232.70 L 872.00 233.50 L 871.40 234.60 L 871.30 235.80 L 872.20 244.20 L 872.10 245.20 L 871.20 246.80 L 865.50 250.10 L 863.70 250.60 L 861.80 249.90 L 855.20 244.60 L 854.00 244.00 L 852.80 243.90 L 851.70 244.30 L 850.70 245.10 L 839.50 259.00 L 838.90 260.20 L 838.80 261.40 L 839.20 262.50 L 840.00 263.50 L 846.40 268.70 L 847.10 269.50 L 847.60 271.30 L 845.80 277.80 L 844.80 279.50 L 843.10 280.20 L 834.90 281.10 L 833.70 281.50 L 832.80 282.30 L 832.20 283.40 L 832.10 284.60 L 834.00 302.40 L 834.40 303.60 L 835.20 304.50 L 836.20 305.10 L 837.50 305.20 L 845.50 304.30 L 846.50 304.40 L 848.20 305.30 L 851.50 311.30 L 852.00 313.20 L 851.30 315.00 L 846.30 321.20 L 845.70 322.40 L 845.60 323.60 L 846.00 324.70 L 846.80 325.70 L 860.70 336.90 L 861.90 337.50 L 863.10 337.60 L 864.20 337.20 L 870.90 329.60 L 872.70 329.10 L 873.70 329.30 L 879.40 331.00 L 881.10 332.00 L 881.90 333.80 L 882.70 341.60 L 883.10 342.80 L 883.90 343.70 L 884.90 344.30 L 886.20 344.40 L 904.00 342.50 L 905.20 342.10 L 906.10 341.30 L 906.70 340.20 L 906.80 339.00 L 906.00 331.20 L 906.40 329.30 L 907.80 328.00 L 914.00 324.70 L 915.90 324.80 L 916.80 325.30 L 922.90 330.20 L 924.10 330.80 L 925.30 330.90 L 926.40 330.50 L 927.40 329.70 L 938.60 315.80 L 939.20 314.60 L 939.30 313.40 L 938.90 312.30 L 938.10 311.30 L 931.90 306.30 L 931.20 305.60 L 930.70 303.70 L 932.50 297.20 L 933.50 295.50 L 935.30 294.70 L 943.30 293.80 L 944.50 293.40 L 945.40 292.60 L 946.00 291.50 L 946.10 290.30 L 944.20 272.50 L 943.70 271.10 L 942.90 270.20 L 941.80 269.60 L 940.60 269.50 Z M 891.90 313.40 L 888.30 313.50 L 884.80 313.20 L 881.50 312.50 L 878.30 311.30 L 875.30 309.70 L 872.50 307.70 L 870.00 305.50 L 867.80 302.90 L 866.00 300.00 L 864.50 296.90 L 863.40 293.60 L 862.80 290.00 L 862.70 286.40 L 863.00 282.90 L 863.70 279.60 L 864.90 276.30 L 866.50 273.40 L 868.50 270.60 L 870.70 268.10 L 873.30 265.90 L 876.20 264.10 L 879.30 262.60 L 882.60 261.50 L 886.20 260.90 L 889.80 260.80 L 893.30 261.10 L 896.60 261.80 L 899.90 263.00 L 902.80 264.60 L 905.60 266.60 L 908.10 268.80 L 910.30 271.40 L 912.10 274.30 L 913.60 277.40 L 914.70 280.70 L 915.30 284.30 L 915.40 287.90 L 915.10 291.40 L 914.40 294.80 L 913.20 298.00 L 911.60 301.00 L 909.60 303.70 L 907.40 306.20 L 904.80 308.40 L 901.90 310.30 L 898.80 311.70 L 895.50 312.80 L 891.90 313.40 Z" fill="#367cff" fill-opacity="0.2" fill-rule="nonzero" group-id="17,30,54" node-id="285" stroke="none" target-height="114" target-width="114" target-x="832.1" target-y="230.4"></path></g></g><path d="M 893.10 324.10 L 885.50 324.10 L 878.40 322.70 L 873.90 321.00 L 869.70 318.80 L 865.80 316.10 L 862.30 312.90 L 859.20 309.20 L 856.60 305.20 L 853.70 298.50 L 852.10 291.10 L 852.10 283.50 L 853.50 276.40 L 855.20 271.90 L 857.40 267.70 L 860.10 263.80 L 863.30 260.30 L 867.00 257.20 L 871.00 254.60 L 877.70 251.70 L 885.10 250.10 L 892.70 250.10 L 899.80 251.50 L 904.30 253.20 L 908.50 255.40 L 912.40 258.10 L 915.90 261.30 L 919.00 265.00 L 921.60 269.00 L 924.50 275.70 L 926.10 283.10 L 926.10 290.70 L 924.70 297.90 L 923.00 302.40 L 920.80 306.60 L 918.10 310.50 L 914.90 314.00 L 911.20 317.10 L 907.20 319.70 L 900.50 322.60 L 893.10 324.10 Z" fill="#ffffff" fill-opacity="0.8" fill-rule="nonzero" group-id="17,31,55" node-id="293" stroke="none" target-height="74" target-width="74" target-x="852.1" target-y="250.1"></path></g><g node-id="428"><g node-id="442"><g node-id="466"><path d="M 909.60 350.20 L 906.40 346.80 L 907.50 345.70 L 910.70 349.20 L 909.60 350.20 Z" fill="#777f99" fill-rule="nonzero" group-id="18,32,56" node-id="304" stroke="none" target-height="4.5" target-width="4.299988" target-x="906.4" target-y="345.7"></path></g></g><g node-id="443"><g node-id="467"><path d="M 820.30 531.70 L 820.40 530.10 L 829.60 530.40 L 829.60 532.00 L 820.30 531.70 Z M 811.00 530.60 L 801.90 528.80 L 802.30 527.30 L 811.30 529.10 L 811.00 530.60 Z M 838.80 531.40 L 838.70 529.80 L 847.80 528.50 L 848.10 530.00 L 838.80 531.40 Z M 857.10 528.10 L 856.70 526.60 L 865.40 523.80 L 865.90 525.30 L 857.10 528.10 Z M 874.60 521.80 L 873.90 520.40 L 882.00 516.20 L 882.80 517.60 L 874.60 521.80 Z M 890.70 512.60 L 889.80 511.30 L 897.10 505.80 L 898.10 507.00 L 890.70 512.60 Z M 905.00 500.70 L 903.90 499.60 L 910.20 492.90 L 911.40 493.90 L 905.00 500.70 Z M 917.20 486.70 L 915.90 485.80 L 921.00 478.20 L 922.30 479.00 L 917.20 486.70 Z M 926.80 470.90 L 925.40 470.20 L 929.10 461.80 L 930.60 462.40 L 926.80 470.90 Z M 933.70 453.60 L 932.20 453.20 L 934.50 444.30 L 936.00 444.60 L 933.70 453.60 Z M 937.50 435.40 L 935.90 435.20 L 936.70 426.00 L 938.30 426.10 L 937.50 435.40 Z M 936.60 416.90 L 935.80 407.80 L 937.30 407.60 L 938.10 416.90 L 936.60 416.90 Z M 934.20 398.80 L 931.90 389.90 L 933.40 389.40 L 935.80 398.40 L 934.20 398.80 Z M 928.80 381.30 L 925.00 373.00 L 926.40 372.30 L 930.20 380.80 L 928.80 381.30 Z M 920.50 364.90 L 915.30 357.30 L 916.60 356.40 L 921.80 364.10 L 920.50 364.90 Z" fill="#777f99" fill-rule="nonzero" group-id="18,33,57" node-id="312" stroke="none" target-height="175.6" target-width="136.39996" target-x="801.9" target-y="356.4"></path></g></g><g node-id="444"><g node-id="468"><path d="M 793.00 526.10 L 788.60 524.50 L 789.20 523.00 L 793.60 524.60 L 793.00 526.10 Z" fill="#777f99" fill-rule="nonzero" group-id="18,34,58" node-id="320" stroke="none" target-height="3.0999756" target-width="5" target-x="788.6" target-y="523"></path></g></g><g node-id="445"><path d="M 758.40 506.30 L 759.40 505.10 L 766.70 510.60 L 765.80 511.90 L 758.40 506.30 Z" fill="#777f99" fill-rule="nonzero" group-id="18,35" node-id="326" stroke="none" target-height="6.799988" target-width="8.299988" target-x="758.4" target-y="505.1"></path></g><g node-id="446"><path d="M 751.40 500.10 L 745.00 493.40 L 746.20 492.40 L 752.50 499.00 L 751.40 500.10 Z" fill="#777f99" fill-rule="nonzero" group-id="18,36" node-id="331" stroke="none" target-height="7.700012" target-width="7.5" target-x="745" target-y="492.4"></path></g><path d="M 773.70 516.80 L 774.50 515.40 L 782.60 519.60 L 782.00 521.00 L 773.70 516.80 Z" fill="#777f99" fill-rule="nonzero" group-id="18,37" node-id="336" stroke="none" target-height="5.5999756" target-width="8.899963" target-x="773.7" target-y="515.4"></path></g><g node-id="429"><g node-id="448"><g node-id="469"><path d="M 110.90 890.60 L 220.30 351.60 L 224.10 352.30 L 114.70 891.30 Z" fill="#b2c7db" fill-rule="nonzero" group-id="19,38,59" node-id="345" stroke="none" target-height="539.69995" target-width="113.200005" target-x="110.9" target-y="351.6"></path></g></g><g node-id="449"><g node-id="470"><path d="M 168.30 893.20 L 278.70 352.90 L 282.40 353.60 L 172.00 894.00 Z" fill="#b2c7db" fill-rule="nonzero" group-id="19,39,60" node-id="353" stroke="none" target-height="541.1" target-width="114.09999" target-x="168.3" target-y="352.9"></path></g></g><g node-id="450"><path d="M 214.50 386.70 L 273.00 386.70 L 273.00 390.50 L 214.50 390.50 Z" fill="#b2c7db" fill-rule="nonzero" group-id="19,40" node-id="359" stroke="none" target-height="3.7999878" target-width="58.5" target-x="214.5" target-y="386.7"></path></g><g node-id="451"><path d="M 205.30 432.30 L 263.80 432.30 L 263.80 436.10 L 205.30 436.10 Z" fill="#b2c7db" fill-rule="nonzero" group-id="19,41" node-id="364" stroke="none" target-height="3.8000183" target-width="58.499985" target-x="205.3" target-y="432.3"></path></g><g node-id="452"><path d="M 196.00 477.90 L 254.50 477.90 L 254.50 481.70 L 196.00 481.70 Z" fill="#b2c7db" fill-rule="nonzero" group-id="19,42" node-id="369" stroke="none" target-height="3.8000183" target-width="58.5" target-x="196" target-y="477.9"></path></g><g node-id="453"><path d="M 186.80 523.50 L 245.30 523.50 L 245.30 527.30 L 186.80 527.30 Z" fill="#b2c7db" fill-rule="nonzero" group-id="19,43" node-id="374" stroke="none" target-height="3.7999878" target-width="58.5" target-x="186.8" target-y="523.5"></path></g><g node-id="454"><path d="M 177.60 569.20 L 236.10 569.20 L 236.10 573.00 L 177.60 573.00 Z" fill="#b2c7db" fill-rule="nonzero" group-id="19,44" node-id="379" stroke="none" target-height="3.7999878" target-width="58.5" target-x="177.6" target-y="569.2"></path></g><g node-id="455"><path d="M 168.40 614.80 L 226.90 614.80 L 226.90 618.60 L 168.40 618.60 Z" fill="#b2c7db" fill-rule="nonzero" group-id="19,45" node-id="384" stroke="none" target-height="3.7999878" target-width="58.5" target-x="168.4" target-y="614.8"></path></g><g node-id="456"><path d="M 159.10 660.40 L 217.60 660.40 L 217.60 664.20 L 159.10 664.20 Z" fill="#b2c7db" fill-rule="nonzero" group-id="19,46" node-id="389" stroke="none" target-height="3.7999878" target-width="58.5" target-x="159.1" target-y="660.4"></path></g><g node-id="457"><path d="M 149.90 706.10 L 208.40 706.10 L 208.40 709.90 L 149.90 709.90 Z" fill="#b2c7db" fill-rule="nonzero" group-id="19,47" node-id="394" stroke="none" target-height="3.8000488" target-width="58.5" target-x="149.9" target-y="706.1"></path></g><g node-id="458"><path d="M 140.70 751.70 L 199.20 751.70 L 199.20 755.50 L 140.70 755.50 Z" fill="#b2c7db" fill-rule="nonzero" group-id="19,48" node-id="399" stroke="none" target-height="3.7999878" target-width="58.5" target-x="140.7" target-y="751.7"></path></g><g node-id="459"><path d="M 131.40 797.30 L 189.90 797.30 L 189.90 801.10 L 131.40 801.10 Z" fill="#b2c7db" fill-rule="nonzero" group-id="19,49" node-id="404" stroke="none" target-height="3.7999878" target-width="58.5" target-x="131.4" target-y="797.3"></path></g><path d="M 122.20 842.90 L 180.70 842.90 L 180.70 846.70 L 122.20 846.70 Z" fill="#b2c7db" fill-rule="nonzero" group-id="19,50" node-id="409" stroke="none" target-height="3.7999878" target-width="58.5" target-x="122.2" target-y="842.9"></path></g></svg>